<svg width="330" height="131" viewBox="0 0 330 131" fill="none" xmlns="http://www.w3.org/2000/svg"><rect opacity=".9" width="330" height="131" rx="15" fill="#FFFCF2"/><path d="M24.948 84.18c-1.272 0-2.424-.276-3.456-.828a6.318 6.318 0 01-2.412-2.322c-.576-.984-.864-2.094-.864-3.33 0-1.236.294-2.346.882-3.33a6.187 6.187 0 012.412-2.304c1.032-.564 2.184-.846 3.456-.846 1.032 0 1.974.18 2.826.54.852.36 1.572.882 2.16 1.566l-1.512 1.422c-.912-.984-2.034-1.476-3.366-1.476-.864 0-1.638.192-2.322.576a4.023 4.023 0 00-1.602 1.566c-.384.672-.576 1.434-.576 2.286 0 .852.192 1.614.576 2.286.384.672.918 1.2 1.602 1.584.684.372 1.458.558 2.322.558 1.332 0 2.454-.498 3.366-1.494l1.512 1.44a5.734 5.734 0 01-2.178 1.566c-.852.36-1.794.54-2.826.54zm15.573-4.932c0 .156-.012.378-.036.666h-7.542c.132.708.474 1.272 1.026 1.692.564.408 1.26.612 2.088.612 1.056 0 1.926-.348 2.61-1.044l1.206 1.386a4.063 4.063 0 01-1.638 1.17c-.66.264-1.404.396-2.232.396-1.056 0-1.986-.21-2.79-.63a4.617 4.617 0 01-1.872-1.746c-.432-.756-.648-1.608-.648-2.556 0-.936.21-1.776.63-2.52a4.578 4.578 0 011.782-1.764c.756-.42 1.608-.63 2.556-.63.936 0 1.77.21 2.502.63a4.25 4.25 0 011.728 1.746c.42.744.63 1.608.63 2.592zm-4.86-3.168c-.72 0-1.332.216-1.836.648-.492.42-.792.984-.9 1.692h5.454c-.096-.696-.39-1.26-.882-1.692-.492-.432-1.104-.648-1.836-.648zm12.649-1.8c.936 0 1.77.204 2.502.612a4.397 4.397 0 011.746 1.728c.42.744.63 1.602.63 2.574 0 .972-.21 1.836-.63 2.592a4.397 4.397 0 01-1.746 1.728c-.732.408-1.566.612-2.502.612-1.296 0-2.322-.432-3.078-1.296v4.662h-2.25V74.388h2.142v1.26a3.495 3.495 0 011.368-1.026 4.717 4.717 0 011.818-.342zm-.252 7.92c.828 0 1.506-.276 2.034-.828.54-.552.81-1.278.81-2.178 0-.9-.27-1.626-.81-2.178-.528-.552-1.206-.828-2.034-.828a2.84 2.84 0 00-1.458.378c-.432.24-.774.588-1.026 1.044-.252.456-.378.984-.378 1.584 0 .6.126 1.128.378 1.584.252.456.594.81 1.026 1.062.432.24.918.36 1.458.36zm14.335-3.204c1.188.36 1.782 1.128 1.782 2.304 0 .864-.324 1.53-.972 1.998-.648.468-1.608.702-2.88.702h-4.896v-9.612h4.698c1.176 0 2.094.216 2.754.648.66.432.99 1.044.99 1.836 0 .492-.132.918-.396 1.278-.252.36-.612.642-1.08.846zm-4.824-.594h2.358c1.164 0 1.746-.402 1.746-1.206 0-.78-.582-1.17-1.746-1.17h-2.358v2.376zm2.574 3.96c1.236 0 1.854-.402 1.854-1.206 0-.42-.144-.732-.432-.936-.288-.216-.738-.324-1.35-.324h-2.646v2.466h2.574zm6.429-7.974h2.25v6.336l5.31-6.336h2.052V84h-2.25v-6.336L68.642 84h-2.07v-9.612zm17.012 9.738c-.996 0-1.89-.21-2.682-.63a4.645 4.645 0 01-1.854-1.746c-.444-.756-.666-1.608-.666-2.556s.222-1.794.666-2.538a4.676 4.676 0 011.836-1.746c.792-.42 1.692-.63 2.7-.63.948 0 1.776.192 2.484.576.72.384 1.26.936 1.62 1.656L85.96 77.52a2.656 2.656 0 00-1.044-.99 2.72 2.72 0 00-1.35-.342c-.84 0-1.536.276-2.088.828-.552.54-.828 1.266-.828 2.178 0 .912.27 1.644.81 2.196.552.54 1.254.81 2.106.81a2.84 2.84 0 001.35-.324c.42-.228.768-.564 1.044-1.008l1.728 1.008a3.936 3.936 0 01-1.638 1.674c-.708.384-1.53.576-2.466.576zm16.802-5.13c.6.168 1.062.444 1.386.828.336.372.504.822.504 1.35a2.32 2.32 0 01-.594 1.566c-.396.444-.942.792-1.638 1.044s-1.488.378-2.376.378c-.744 0-1.47-.084-2.178-.252a7.858 7.858 0 01-1.926-.756l.648-1.674c.468.264.996.468 1.584.612a7.392 7.392 0 001.764.216c.756 0 1.344-.114 1.764-.342.432-.24.648-.564.648-.972 0-.372-.168-.66-.504-.864-.324-.204-.786-.306-1.386-.306H96.21v-1.512h1.692c.564 0 1.002-.096 1.314-.288.324-.192.486-.462.486-.81 0-.348-.192-.624-.576-.828-.384-.204-.912-.306-1.584-.306-.96 0-1.974.234-3.042.702l-.576-1.656c1.26-.588 2.532-.882 3.816-.882.816 0 1.548.114 2.196.342.648.216 1.152.528 1.512.936.372.396.558.852.558 1.368 0 .468-.144.888-.432 1.26-.288.36-.684.642-1.188.846zm7.807-4.716c1.416 0 2.496.342 3.24 1.026.756.672 1.134 1.692 1.134 3.06V84h-2.124v-1.17c-.276.42-.672.744-1.188.972-.504.216-1.116.324-1.836.324s-1.35-.12-1.89-.36c-.54-.252-.96-.594-1.26-1.026a2.686 2.686 0 01-.432-1.494c0-.864.318-1.554.954-2.07.648-.528 1.662-.792 3.042-.792h2.484v-.144c0-.672-.204-1.188-.612-1.548-.396-.36-.99-.54-1.782-.54-.54 0-1.074.084-1.602.252a3.925 3.925 0 00-1.314.702l-.882-1.638c.504-.384 1.11-.678 1.818-.882a8.089 8.089 0 012.25-.306zm-.306 8.208c.564 0 1.062-.126 1.494-.378.444-.264.756-.636.936-1.116v-1.116h-2.322c-1.296 0-1.944.426-1.944 1.278 0 .408.162.732.486.972.324.24.774.36 1.35.36zm16.68-8.1V84h-2.232v-7.704h-4.734V84h-2.25v-9.612h9.216zm12.108 0l-4.5 10.386c-.42 1.044-.93 1.776-1.53 2.196-.6.432-1.326.648-2.178.648a4.47 4.47 0 01-1.422-.234c-.468-.156-.852-.372-1.152-.648l.9-1.656c.216.204.468.366.756.486.3.12.6.18.9.18.396 0 .72-.102.972-.306.264-.204.504-.546.72-1.026l.162-.378-4.194-9.648h2.34l3.024 7.11 3.042-7.11h2.16zm5.673 9.738c-.996 0-1.89-.21-2.682-.63a4.645 4.645 0 01-1.854-1.746c-.444-.756-.666-1.608-.666-2.556s.222-1.794.666-2.538a4.676 4.676 0 011.836-1.746c.792-.42 1.692-.63 2.7-.63.948 0 1.776.192 2.484.576.72.384 1.26.936 1.62 1.656l-1.728 1.008a2.656 2.656 0 00-1.044-.99 2.72 2.72 0 00-1.35-.342c-.84 0-1.536.276-2.088.828-.552.54-.828 1.266-.828 2.178 0 .912.27 1.644.81 2.196.552.54 1.254.81 2.106.81a2.84 2.84 0 001.35-.324c.42-.228.768-.564 1.044-1.008l1.728 1.008a3.936 3.936 0 01-1.638 1.674c-.708.384-1.53.576-2.466.576zm10.081-3.978h-1.746V84h-2.25v-9.612h2.25v3.888h1.8l2.844-3.888h2.412l-3.492 4.626L157.973 84h-2.646l-2.898-3.852zm10.537-5.868c1.416 0 2.496.342 3.24 1.026.756.672 1.134 1.692 1.134 3.06V84h-2.124v-1.17c-.276.42-.672.744-1.188.972-.504.216-1.116.324-1.836.324s-1.35-.12-1.89-.36c-.54-.252-.96-.594-1.26-1.026a2.686 2.686 0 01-.432-1.494c0-.864.318-1.554.954-2.07.648-.528 1.662-.792 3.042-.792h2.484v-.144c0-.672-.204-1.188-.612-1.548-.396-.36-.99-.54-1.782-.54-.54 0-1.074.084-1.602.252a3.925 3.925 0 00-1.314.702l-.882-1.638c.504-.384 1.11-.678 1.818-.882a8.089 8.089 0 012.25-.306zm-.306 8.208c.564 0 1.062-.126 1.494-.378.444-.264.756-.636.936-1.116v-1.116h-2.322c-1.296 0-1.944.426-1.944 1.278 0 .408.162.732.486.972.324.24.774.36 1.35.36zm12.439-8.1h2.25v6.336l5.31-6.336h2.052V84h-2.25v-6.336L177.169 84h-2.07v-9.612zm26.685 0l-4.5 10.386c-.42 1.044-.93 1.776-1.53 2.196-.6.432-1.326.648-2.178.648a4.47 4.47 0 01-1.422-.234c-.468-.156-.852-.372-1.152-.648l.9-1.656c.216.204.468.366.756.486.3.12.6.18.9.18.396 0 .72-.102.972-.306.264-.204.504-.546.72-1.026l.162-.378-4.194-9.648h2.34l3.024 7.11 3.042-7.11h2.16zm10.779 0V84h-2.232v-7.704h-4.734V84h-2.25v-9.612h9.216zm8.364-.108c.936 0 1.77.204 2.502.612a4.397 4.397 0 011.746 1.728c.42.744.63 1.602.63 2.574 0 .972-.21 1.836-.63 2.592a4.397 4.397 0 01-1.746 1.728c-.732.408-1.566.612-2.502.612-1.296 0-2.322-.432-3.078-1.296v4.662h-2.25V74.388h2.142v1.26a3.495 3.495 0 011.368-1.026 4.717 4.717 0 011.818-.342zm-.252 7.92c.828 0 1.506-.276 2.034-.828.54-.552.81-1.278.81-2.178 0-.9-.27-1.626-.81-2.178-.528-.552-1.206-.828-2.034-.828a2.84 2.84 0 00-1.458.378c-.432.24-.774.588-1.026 1.044-.252.456-.378.984-.378 1.584 0 .6.126 1.128.378 1.584.252.456.594.81 1.026 1.062.432.24.918.36 1.458.36zm10.828-7.92c1.416 0 2.496.342 3.24 1.026.756.672 1.134 1.692 1.134 3.06V84h-2.124v-1.17c-.276.42-.672.744-1.188.972-.504.216-1.116.324-1.836.324s-1.35-.12-1.89-.36c-.54-.252-.96-.594-1.26-1.026a2.686 2.686 0 01-.432-1.494c0-.864.318-1.554.954-2.07.648-.528 1.662-.792 3.042-.792h2.484v-.144c0-.672-.204-1.188-.612-1.548-.396-.36-.99-.54-1.782-.54-.54 0-1.074.084-1.602.252a3.925 3.925 0 00-1.314.702l-.882-1.638c.504-.384 1.11-.678 1.818-.882a8.089 8.089 0 012.25-.306zm-.306 8.208c.564 0 1.062-.126 1.494-.378.444-.264.756-.636.936-1.116v-1.116h-2.322c-1.296 0-1.944.426-1.944 1.278 0 .408.162.732.486.972.324.24.774.36 1.35.36zm14.43-3.492c1.188.36 1.782 1.128 1.782 2.304 0 .864-.324 1.53-.972 1.998-.648.468-1.608.702-2.88.702h-4.896v-9.612h4.698c1.176 0 2.094.216 2.754.648.66.432.99 1.044.99 1.836 0 .492-.132.918-.396 1.278-.252.36-.612.642-1.08.846zm-4.824-.594h2.358c1.164 0 1.746-.402 1.746-1.206 0-.78-.582-1.17-1.746-1.17h-2.358v2.376zm2.574 3.96c1.236 0 1.854-.402 1.854-1.206 0-.42-.144-.732-.432-.936-.288-.216-.738-.324-1.35-.324h-2.646v2.466h2.574zm15.141-7.974V84h-2.25v-7.704h-3.6l-.09 1.908c-.06 1.272-.18 2.34-.36 3.204-.168.852-.462 1.53-.882 2.034-.408.492-.972.738-1.692.738-.336 0-.75-.066-1.242-.198l.108-1.89c.168.036.312.054.432.054.456 0 .798-.18 1.026-.54.228-.372.372-.81.432-1.314.072-.516.132-1.248.18-2.196l.162-3.708h7.776zm12.03 4.86c0 .156-.012.378-.036.666h-7.542c.132.708.474 1.272 1.026 1.692.564.408 1.26.612 2.088.612 1.056 0 1.926-.348 2.61-1.044l1.206 1.386a4.063 4.063 0 01-1.638 1.17c-.66.264-1.404.396-2.232.396-1.056 0-1.986-.21-2.79-.63a4.617 4.617 0 01-1.872-1.746c-.432-.756-.648-1.608-.648-2.556 0-.936.21-1.776.63-2.52a4.578 4.578 0 011.782-1.764c.756-.42 1.608-.63 2.556-.63.936 0 1.77.21 2.502.63a4.25 4.25 0 011.728 1.746c.42.744.63 1.608.63 2.592zm-4.86-3.168c-.72 0-1.332.216-1.836.648-.492.42-.792.984-.9 1.692h5.454c-.096-.696-.39-1.26-.882-1.692-.492-.432-1.104-.648-1.836-.648zm7.321-1.692h2.25v3.906h4.842v-3.906h2.25V84h-2.25v-3.798h-4.842V84h-2.25v-9.612zm12.357 0h2.25v6.336l5.31-6.336h2.052V84h-2.25v-6.336L287.436 84h-2.07v-9.612zm20.757 0V84h-2.016v-2.898h-2.538L299.607 84h-2.412l2.268-3.204c-.696-.24-1.23-.606-1.602-1.098-.36-.504-.54-1.122-.54-1.854 0-1.104.39-1.956 1.17-2.556.78-.6 1.854-.9 3.222-.9h4.41zm-4.338 1.89c-1.452 0-2.178.546-2.178 1.638 0 1.08.702 1.62 2.106 1.62h2.394v-3.258h-2.322zM61.852 101.194l2.556-3.492h2.034l-2.502 3.492 2.502 3.474h-2.034l-2.556-3.474zm3.744 0l2.556-3.492h2.034l-2.502 3.492 2.502 3.474h-2.034l-2.556-3.474zm11.019 4.932c-.996 0-1.89-.21-2.682-.63a4.645 4.645 0 01-1.855-1.746c-.444-.756-.666-1.608-.666-2.556s.222-1.794.666-2.538a4.676 4.676 0 011.837-1.746c.791-.42 1.691-.63 2.7-.63.948 0 1.776.192 2.484.576.72.384 1.26.936 1.62 1.656L78.99 99.52a2.656 2.656 0 00-1.044-.99 2.72 2.72 0 00-1.35-.342c-.84 0-1.536.276-2.088.828-.552.54-.829 1.266-.829 2.178 0 .912.27 1.644.81 2.196.553.54 1.255.81 2.107.81a2.84 2.84 0 001.35-.324c.42-.228.767-.564 1.043-1.008l1.729 1.008a3.936 3.936 0 01-1.638 1.674c-.709.384-1.53.576-2.466.576zm9.666-9.846c1.416 0 2.496.342 3.24 1.026.757.672 1.135 1.692 1.135 3.06V106H88.53v-1.17c-.276.42-.672.744-1.188.972-.504.216-1.115.324-1.836.324-.72 0-1.35-.12-1.89-.36-.54-.252-.96-.594-1.26-1.026a2.686 2.686 0 01-.431-1.494c0-.864.317-1.554.953-2.07.648-.528 1.662-.792 3.042-.792h2.484v-.144c0-.672-.204-1.188-.612-1.548-.396-.36-.99-.54-1.782-.54-.54 0-1.073.084-1.602.252a3.925 3.925 0 00-1.314.702l-.882-1.638c.505-.384 1.11-.678 1.819-.882a8.089 8.089 0 012.25-.306zm-.306 8.208c.565 0 1.063-.126 1.495-.378.444-.264.755-.636.936-1.116v-1.116h-2.323c-1.296 0-1.944.426-1.944 1.278 0 .408.163.732.487.972.323.24.773.36 1.35.36zm12.793-8.208c.936 0 1.77.204 2.502.612a4.397 4.397 0 011.746 1.728c.42.744.63 1.602.63 2.574 0 .972-.21 1.836-.63 2.592a4.397 4.397 0 01-1.746 1.728c-.732.408-1.566.612-2.502.612-1.296 0-2.322-.432-3.078-1.296v4.662h-2.25V96.388h2.142v1.26a3.495 3.495 0 011.368-1.026 4.717 4.717 0 011.818-.342zm-.252 7.92c.828 0 1.506-.276 2.034-.828.54-.552.81-1.278.81-2.178 0-.9-.27-1.626-.81-2.178-.528-.552-1.206-.828-2.034-.828a2.84 2.84 0 00-1.458.378c-.432.24-.774.588-1.026 1.044-.252.456-.378.984-.378 1.584 0 .6.126 1.128.378 1.584.252.456.594.81 1.026 1.062.432.24.918.36 1.458.36zm10.828-7.92c1.416 0 2.496.342 3.24 1.026.756.672 1.134 1.692 1.134 3.06V106h-2.124v-1.17c-.276.42-.672.744-1.188.972-.504.216-1.116.324-1.836.324s-1.35-.12-1.89-.36c-.54-.252-.96-.594-1.26-1.026a2.686 2.686 0 01-.432-1.494c0-.864.318-1.554.954-2.07.648-.528 1.662-.792 3.042-.792h2.484v-.144c0-.672-.204-1.188-.612-1.548-.396-.36-.99-.54-1.782-.54-.54 0-1.074.084-1.602.252a3.925 3.925 0 00-1.314.702l-.882-1.638c.504-.384 1.11-.678 1.818-.882a8.089 8.089 0 012.25-.306zm-.306 8.208c.564 0 1.062-.126 1.494-.378.444-.264.756-.636.936-1.116v-1.116h-2.322c-1.296 0-1.944.426-1.944 1.278 0 .408.162.732.486.972.324.24.774.36 1.35.36zm20.172-3.312c0 1.488-.498 2.658-1.494 3.51-.984.852-2.394 1.338-4.23 1.458v3.348h-2.124v-3.33c-1.836-.12-3.246-.606-4.23-1.458-.984-.852-1.476-2.028-1.476-3.528 0-1.488.492-2.646 1.476-3.474.984-.84 2.394-1.32 4.23-1.44v-3.618h2.124v3.618c1.836.12 3.246.6 4.23 1.44.996.84 1.494 1.998 1.494 3.474zm-11.34 0c0 .924.282 1.644.846 2.16.576.516 1.458.828 2.646.936V98.17c-1.188.096-2.07.396-2.646.9-.564.504-.846 1.206-.846 2.106zm5.616 3.096c2.352-.216 3.528-1.248 3.528-3.096 0-.912-.294-1.614-.882-2.106-.576-.504-1.458-.804-2.646-.9v6.102zm11.364-7.992c1.416 0 2.496.342 3.24 1.026.756.672 1.134 1.692 1.134 3.06V106H137.1v-1.17c-.276.42-.672.744-1.188.972-.504.216-1.116.324-1.836.324s-1.35-.12-1.89-.36c-.54-.252-.96-.594-1.26-1.026a2.686 2.686 0 01-.432-1.494c0-.864.318-1.554.954-2.07.648-.528 1.662-.792 3.042-.792h2.484v-.144c0-.672-.204-1.188-.612-1.548-.396-.36-.99-.54-1.782-.54-.54 0-1.074.084-1.602.252a3.925 3.925 0 00-1.314.702l-.882-1.638c.504-.384 1.11-.678 1.818-.882a8.089 8.089 0 012.25-.306zm-.306 8.208c.564 0 1.062-.126 1.494-.378.444-.264.756-.636.936-1.116v-1.116h-2.322c-1.296 0-1.944.426-1.944 1.278 0 .408.162.732.486.972.324.24.774.36 1.35.36zm7.464-8.1h2.25v3.906h4.842v-3.906h2.25V106h-2.25v-3.798h-4.842V106h-2.25v-9.612zm12.358 0h2.25v3.906h4.842v-3.906h2.25V106h-2.25v-3.798h-4.842V106h-2.25v-9.612zm17.037 3.168c1.224 0 2.16.276 2.808.828.648.552.972 1.332.972 2.34 0 1.056-.36 1.872-1.08 2.448-.708.576-1.716.858-3.024.846l-4.356-.018v-9.612h2.25v3.15l2.43.018zm5.022-3.168h2.25V106h-2.25v-9.612zm-5.544 7.974c.66.012 1.164-.126 1.512-.414.348-.288.522-.708.522-1.26 0-.54-.168-.936-.504-1.188-.336-.252-.846-.384-1.53-.396l-1.908-.018v3.258l1.908.018zM191.15 106v-6.372l-3.24 5.364h-.972l-3.186-5.382V106H181.7v-9.612h2.358l3.42 6.012 3.582-6.012h2.106l.018 9.612h-2.034zm15.354-9.72c.936 0 1.77.204 2.502.612a4.397 4.397 0 011.746 1.728c.42.744.63 1.602.63 2.574 0 .972-.21 1.836-.63 2.592a4.397 4.397 0 01-1.746 1.728c-.732.408-1.566.612-2.502.612-1.296 0-2.322-.432-3.078-1.296v4.662h-2.25V96.388h2.142v1.26a3.495 3.495 0 011.368-1.026 4.717 4.717 0 011.818-.342zm-.252 7.92c.828 0 1.506-.276 2.034-.828.54-.552.81-1.278.81-2.178 0-.9-.27-1.626-.81-2.178-.528-.552-1.206-.828-2.034-.828a2.84 2.84 0 00-1.458.378c-.432.24-.774.588-1.026 1.044-.252.456-.378.984-.378 1.584 0 .6.126 1.128.378 1.584.252.456.594.81 1.026 1.062.432.24.918.36 1.458.36zm10.828-7.92c1.416 0 2.496.342 3.24 1.026.756.672 1.134 1.692 1.134 3.06V106h-2.124v-1.17c-.276.42-.672.744-1.188.972-.504.216-1.116.324-1.836.324s-1.35-.12-1.89-.36c-.54-.252-.96-.594-1.26-1.026a2.686 2.686 0 01-.432-1.494c0-.864.318-1.554.954-2.07.648-.528 1.662-.792 3.042-.792h2.484v-.144c0-.672-.204-1.188-.612-1.548-.396-.36-.99-.54-1.782-.54-.54 0-1.074.084-1.602.252a3.925 3.925 0 00-1.314.702l-.882-1.638c.504-.384 1.11-.678 1.818-.882a8.089 8.089 0 012.25-.306zm-.306 8.208c.564 0 1.062-.126 1.494-.378.444-.264.756-.636.936-1.116v-1.116h-2.322c-1.296 0-1.944.426-1.944 1.278 0 .408.162.732.486.972.324.24.774.36 1.35.36zm17.725-.396v4.05h-2.106V106h-7.416v2.142h-2.088v-4.05h.45c.612-.024 1.026-.414 1.242-1.17.228-.768.378-1.848.45-3.24l.126-3.294h7.92v7.704h1.422zm-7.416-4.248c-.048 1.104-.138 2.004-.27 2.7-.132.696-.372 1.212-.72 1.548h4.734v-5.796h-3.69l-.054 1.548zm9.425-3.456h2.25v6.336l5.31-6.336h2.052V106h-2.25v-6.336L238.578 106h-2.07v-9.612zm16.923 9.738c-.972 0-1.848-.21-2.628-.63a4.676 4.676 0 01-1.836-1.746c-.432-.756-.648-1.608-.648-2.556s.216-1.794.648-2.538a4.676 4.676 0 011.836-1.746c.78-.42 1.656-.63 2.628-.63.984 0 1.866.21 2.646.63a4.55 4.55 0 011.818 1.746c.444.744.666 1.59.666 2.538 0 .948-.222 1.8-.666 2.556a4.55 4.55 0 01-1.818 1.746c-.78.42-1.662.63-2.646.63zm0-1.926c.828 0 1.512-.276 2.052-.828.54-.552.81-1.278.81-2.178 0-.9-.27-1.626-.81-2.178s-1.224-.828-2.052-.828c-.828 0-1.512.276-2.052.828-.528.552-.792 1.278-.792 2.178 0 .9.264 1.626.792 2.178.54.552 1.224.828 2.052.828zm6.38.468l2.502-3.474-2.502-3.492h2.034l2.556 3.492-2.556 3.474h-2.034zm3.744 0l2.502-3.474-2.502-3.492h2.034l2.556 3.492-2.556 3.474h-2.034z" fill="#000"/><path d="M30.285 29.48v6.66h11.664v4.68H30.285V50h-5.832V24.8h19.044v4.68H30.285zm21.777 3.708c.672-.936 1.572-1.644 2.7-2.124 1.151-.48 2.471-.72 3.96-.72v5.184a20.268 20.268 0 00-1.26-.072c-1.609 0-2.869.456-3.78 1.368-.913.888-1.369 2.232-1.369 4.032V50h-5.616V30.632h5.364v2.556zm9.999-2.556h5.616V50H62.06V30.632zm2.808-2.7c-1.032 0-1.872-.3-2.52-.9-.648-.6-.972-1.344-.972-2.232 0-.888.324-1.632.972-2.232.648-.6 1.488-.9 2.52-.9s1.872.288 2.52.864c.648.576.972 1.296.972 2.16 0 .936-.324 1.716-.972 2.34-.648.6-1.488.9-2.52.9zM91.86 40.388c0 .072-.036.576-.108 1.512H77.1c.264 1.2.888 2.148 1.872 2.844.984.696 2.208 1.044 3.672 1.044 1.008 0 1.896-.144 2.664-.432.792-.312 1.524-.792 2.196-1.44l2.988 3.24c-1.824 2.088-4.488 3.132-7.992 3.132-2.184 0-4.116-.42-5.796-1.26-1.68-.864-2.976-2.052-3.888-3.564-.912-1.512-1.368-3.228-1.368-5.148 0-1.896.444-3.6 1.332-5.112a9.451 9.451 0 013.708-3.564c1.584-.864 3.348-1.296 5.292-1.296 1.896 0 3.612.408 5.148 1.224a8.786 8.786 0 013.6 3.528c.888 1.512 1.332 3.276 1.332 5.292zm-10.044-5.796c-1.272 0-2.34.36-3.204 1.08-.864.72-1.392 1.704-1.584 2.952h9.54c-.192-1.224-.72-2.196-1.584-2.916-.864-.744-1.92-1.116-3.168-1.116zm25.555-4.248c2.4 0 4.332.72 5.796 2.16 1.488 1.44 2.232 3.576 2.232 6.408V50h-5.616V39.776c0-1.536-.336-2.676-1.008-3.42-.672-.768-1.644-1.152-2.916-1.152-1.416 0-2.544.444-3.384 1.332-.84.864-1.26 2.16-1.26 3.888V50H95.6V30.632h5.364V32.9c.744-.816 1.668-1.44 2.772-1.872 1.104-.456 2.316-.684 3.636-.684zm33.057-7.056V50h-5.364v-2.232c-1.392 1.68-3.408 2.52-6.048 2.52-1.824 0-3.48-.408-4.968-1.224-1.464-.816-2.616-1.98-3.456-3.492-.84-1.512-1.26-3.264-1.26-5.256 0-1.992.42-3.744 1.26-5.256.84-1.512 1.992-2.676 3.456-3.492 1.488-.816 3.144-1.224 4.968-1.224 2.472 0 4.404.78 5.796 2.34v-9.396h5.616zm-10.44 22.392c1.416 0 2.592-.48 3.528-1.44.936-.984 1.404-2.292 1.404-3.924 0-1.632-.468-2.928-1.404-3.888-.936-.984-2.112-1.476-3.528-1.476-1.44 0-2.628.492-3.564 1.476-.936.96-1.404 2.256-1.404 3.888 0 1.632.468 2.94 1.404 3.924.936.96 2.124 1.44 3.564 1.44zM147.787 23c1.008 0 1.836.324 2.484.972.648.624.972 1.452.972 2.484 0 .48-.06.96-.18 1.44s-.372 1.2-.756 2.16l-2.088 5.184h-3.564l1.548-5.688a3.1 3.1 0 01-1.404-1.188c-.336-.528-.504-1.164-.504-1.908 0-1.032.324-1.86.972-2.484.672-.648 1.512-.972 2.52-.972zm13.145 27.288a19.37 19.37 0 01-4.716-.576c-1.536-.408-2.76-.912-3.672-1.512l1.872-4.032c.864.552 1.908 1.008 3.132 1.368 1.224.336 2.424.504 3.6.504 2.376 0 3.564-.588 3.564-1.764 0-.552-.324-.948-.972-1.188-.648-.24-1.644-.444-2.988-.612-1.584-.24-2.892-.516-3.924-.828a6.214 6.214 0 01-2.7-1.656c-.744-.792-1.116-1.92-1.116-3.384 0-1.224.348-2.304 1.044-3.24.72-.96 1.752-1.704 3.096-2.232 1.368-.528 2.976-.792 4.824-.792 1.368 0 2.724.156 4.068.468 1.368.288 2.496.696 3.384 1.224l-1.872 3.996c-1.704-.96-3.564-1.44-5.58-1.44-1.2 0-2.1.168-2.7.504-.6.336-.9.768-.9 1.296 0 .6.324 1.02.972 1.26.648.24 1.68.468 3.096.684 1.584.264 2.88.552 3.888.864a5.703 5.703 0 012.628 1.62c.744.792 1.116 1.896 1.116 3.312 0 1.2-.36 2.268-1.08 3.204-.72.936-1.776 1.668-3.168 2.196-1.368.504-3 .756-4.896.756zm39.797-5.688h-11.7l-2.232 5.4h-5.976l11.232-25.2h5.76L209.081 50h-6.12l-2.232-5.4zm-1.836-4.428l-3.996-9.648-3.996 9.648h7.992zm31.958-16.884V50h-5.364v-2.232c-1.392 1.68-3.408 2.52-6.048 2.52-1.824 0-3.48-.408-4.968-1.224-1.464-.816-2.616-1.98-3.456-3.492-.84-1.512-1.26-3.264-1.26-5.256 0-1.992.42-3.744 1.26-5.256.84-1.512 1.992-2.676 3.456-3.492 1.488-.816 3.144-1.224 4.968-1.224 2.472 0 4.404.78 5.796 2.34v-9.396h5.616zm-10.44 22.392c1.416 0 2.592-.48 3.528-1.44.936-.984 1.404-2.292 1.404-3.924 0-1.632-.468-2.928-1.404-3.888-.936-.984-2.112-1.476-3.528-1.476-1.44 0-2.628.492-3.564 1.476-.936.96-1.404 2.256-1.404 3.888 0 1.632.468 2.94 1.404 3.924.936.96 2.124 1.44 3.564 1.44zm34.862-15.048L247.101 50h-5.796l-8.136-19.368h5.796l5.364 13.176 5.544-13.176h5.4zm2.292 0h5.616V50h-5.616V30.632zm2.808-2.7c-1.032 0-1.872-.3-2.52-.9-.648-.6-.972-1.344-.972-2.232 0-.888.324-1.632.972-2.232.648-.6 1.488-.9 2.52-.9s1.872.288 2.52.864c.648.576.972 1.296.972 2.16 0 .936-.324 1.716-.972 2.34-.648.6-1.488.9-2.52.9zm17.38 22.356c-2.064 0-3.924-.42-5.58-1.26-1.632-.864-2.916-2.052-3.852-3.564-.912-1.512-1.368-3.228-1.368-5.148 0-1.92.456-3.636 1.368-5.148.936-1.512 2.22-2.688 3.852-3.528 1.656-.864 3.516-1.296 5.58-1.296 2.04 0 3.816.432 5.328 1.296 1.536.84 2.652 2.052 3.348 3.636l-4.356 2.34c-1.008-1.776-2.46-2.664-4.356-2.664-1.464 0-2.676.48-3.636 1.44s-1.44 2.268-1.44 3.924c0 1.656.48 2.964 1.44 3.924s2.172 1.44 3.636 1.44c1.92 0 3.372-.888 4.356-2.664l4.356 2.376c-.696 1.536-1.812 2.736-3.348 3.6-1.512.864-3.288 1.296-5.328 1.296zm30.635-9.9c0 .072-.036.576-.108 1.512h-14.652c.264 1.2.888 2.148 1.872 2.844.984.696 2.208 1.044 3.672 1.044 1.008 0 1.896-.144 2.664-.432.792-.312 1.524-.792 2.196-1.44l2.988 3.24c-1.824 2.088-4.488 3.132-7.992 3.132-2.184 0-4.116-.42-5.796-1.26-1.68-.864-2.976-2.052-3.888-3.564-.912-1.512-1.368-3.228-1.368-5.148 0-1.896.444-3.6 1.332-5.112a9.451 9.451 0 013.708-3.564c1.584-.864 3.348-1.296 5.292-1.296 1.896 0 3.612.408 5.148 1.224a8.786 8.786 0 013.6 3.528c.888 1.512 1.332 3.276 1.332 5.292zm-10.044-5.796c-1.272 0-2.34.36-3.204 1.08-.864.72-1.392 1.704-1.584 2.952h9.54c-.192-1.224-.72-2.196-1.584-2.916-.864-.744-1.92-1.116-3.168-1.116z" fill="#FF6072"/></svg>