<svg width="306" height="104" viewBox="0 0 306 104" fill="none" xmlns="http://www.w3.org/2000/svg"><g opacity=".9" fill="#FFFCF2"><path d="M0 37c0-8.284 6.716-15 15-15h276c8.284 0 15 6.716 15 15v67H0V37z"/><path d="M176 22.5c0 12.426-10.074 22.5-22.5 22.5S131 34.926 131 22.5 141.074 0 153.5 0 176 10.074 176 22.5z"/></g><path d="M154.715 20.285a4.852 4.852 0 00-6.861 0l-3.433 3.43a4.853 4.853 0 006.864 6.864L153 28.863m-1.715-5.148a4.852 4.852 0 006.861 0l3.433-3.43a4.853 4.853 0 00-6.864-6.864L153 15.137" stroke="#FF6072" stroke-width="2" stroke-linecap="round" stroke-linejoin="round"/><path d="M34.137 56.02v4.662h-2.16V58H22.31v2.682h-2.178l.018-4.662h.54c.792-.036 1.344-.618 1.656-1.746.324-1.14.522-2.766.594-4.878l.144-3.996h9.234v10.62h1.818zm-9.144-6.408c-.06 1.632-.192 2.994-.396 4.086-.204 1.08-.528 1.854-.972 2.322h6.39v-8.64h-4.932l-.09 2.232zM39.67 48.28c1.416 0 2.496.342 3.24 1.026.756.672 1.134 1.692 1.134 3.06V58H41.92v-1.17c-.276.42-.672.744-1.188.972-.504.216-1.116.324-1.836.324s-1.35-.12-1.89-.36c-.54-.252-.96-.594-1.26-1.026a2.686 2.686 0 01-.432-1.494c0-.864.318-1.554.954-2.07.648-.528 1.662-.792 3.042-.792h2.484v-.144c0-.672-.204-1.188-.612-1.548-.396-.36-.99-.54-1.782-.54-.54 0-1.074.084-1.602.252a3.925 3.925 0 00-1.314.702l-.882-1.638c.504-.384 1.11-.678 1.818-.882a8.089 8.089 0 012.25-.306zm-.306 8.208c.564 0 1.062-.126 1.494-.378.444-.264.756-.636.936-1.116v-1.116h-2.322c-1.296 0-1.944.426-1.944 1.278 0 .408.162.732.486.972.324.24.774.36 1.35.36zm17.724-.396v4.05h-2.106V58h-7.416v2.142h-2.088v-4.05h.45c.612-.024 1.026-.414 1.242-1.17.228-.768.378-1.848.45-3.24l.126-3.294h7.92v7.704h1.422zm-7.416-4.248c-.048 1.104-.138 2.004-.27 2.7-.132.696-.372 1.212-.72 1.548h4.734v-5.796h-3.69l-.054 1.548zm9.426-3.456h2.25v6.336l5.31-6.336h2.052V58h-2.25v-6.336L61.168 58h-2.07v-9.612zM81.187 58v-6.372l-3.24 5.364h-.972l-3.186-5.382V58h-2.052v-9.612h2.358l3.42 6.012 3.582-6.012h2.106L83.22 58h-2.034zm16.992-5.004c1.188.36 1.782 1.128 1.782 2.304 0 .864-.324 1.53-.972 1.998-.648.468-1.608.702-2.88.702h-4.896v-9.612h4.698c1.176 0 2.094.216 2.754.648.66.432.99 1.044.99 1.836 0 .492-.132.918-.396 1.278-.252.36-.612.642-1.08.846zm-4.824-.594h2.358c1.164 0 1.746-.402 1.746-1.206 0-.78-.582-1.17-1.746-1.17h-2.358v2.376zm2.574 3.96c1.236 0 1.854-.402 1.854-1.206 0-.42-.144-.732-.432-.936-.288-.216-.738-.324-1.35-.324h-2.646v2.466h2.574zm10.011-8.082c1.416 0 2.496.342 3.24 1.026.756.672 1.134 1.692 1.134 3.06V58h-2.124v-1.17c-.276.42-.672.744-1.188.972-.504.216-1.116.324-1.836.324s-1.35-.12-1.89-.36c-.54-.252-.96-.594-1.26-1.026a2.686 2.686 0 01-.432-1.494c0-.864.318-1.554.954-2.07.648-.528 1.662-.792 3.042-.792h2.484v-.144c0-.672-.204-1.188-.612-1.548-.396-.36-.99-.54-1.782-.54-.54 0-1.074.084-1.602.252a3.925 3.925 0 00-1.314.702l-.882-1.638c.504-.384 1.11-.678 1.818-.882a8.089 8.089 0 012.25-.306zm-.306 8.208c.564 0 1.062-.126 1.494-.378.444-.264.756-.636.936-1.116v-1.116h-2.322c-1.296 0-1.944.426-1.944 1.278 0 .408.162.732.486.972.324.24.774.36 1.35.36zM122.548 58v-6.372l-3.24 5.364h-.972l-3.186-5.382V58h-2.052v-9.612h2.358l3.42 6.012 3.582-6.012h2.106l.018 9.612h-2.034zm14.401.126c-.996 0-1.89-.21-2.682-.63a4.645 4.645 0 01-1.854-1.746c-.444-.756-.666-1.608-.666-2.556s.222-1.794.666-2.538a4.676 4.676 0 011.836-1.746c.792-.42 1.692-.63 2.7-.63.948 0 1.776.192 2.484.576.72.384 1.26.936 1.62 1.656l-1.728 1.008a2.656 2.656 0 00-1.044-.99 2.72 2.72 0 00-1.35-.342c-.84 0-1.536.276-2.088.828-.552.54-.828 1.266-.828 2.178 0 .912.27 1.644.81 2.196.552.54 1.254.81 2.106.81a2.84 2.84 0 001.35-.324c.42-.228.768-.564 1.044-1.008l1.728 1.008a3.936 3.936 0 01-1.638 1.674c-.708.384-1.53.576-2.466.576zm10.318 0c-.996 0-1.89-.21-2.682-.63a4.645 4.645 0 01-1.854-1.746c-.444-.756-.666-1.608-.666-2.556s.222-1.794.666-2.538a4.676 4.676 0 011.836-1.746c.792-.42 1.692-.63 2.7-.63.948 0 1.776.192 2.484.576.72.384 1.26.936 1.62 1.656l-1.728 1.008a2.656 2.656 0 00-1.044-.99 2.72 2.72 0 00-1.35-.342c-.84 0-1.536.276-2.088.828-.552.54-.828 1.266-.828 2.178 0 .912.27 1.644.81 2.196.552.54 1.254.81 2.106.81a2.84 2.84 0 001.35-.324c.42-.228.768-.564 1.044-1.008l1.728 1.008a3.936 3.936 0 01-1.638 1.674c-.708.384-1.53.576-2.466.576zm10.765-6.57c1.224 0 2.16.276 2.808.828.648.552.972 1.332.972 2.34 0 1.056-.36 1.872-1.08 2.448-.708.576-1.716.858-3.024.846L153.352 58v-9.612h2.25v3.15l2.43.018zm5.022-3.168h2.25V58h-2.25v-9.612zm-5.544 7.974c.66.012 1.164-.126 1.512-.414.348-.288.522-.708.522-1.26 0-.54-.168-.936-.504-1.188-.336-.252-.846-.384-1.53-.396l-1.908-.018v3.258l1.908.018zm19.53-7.974V58h-2.25v-7.704h-3.6l-.09 1.908c-.06 1.272-.18 2.34-.36 3.204-.168.852-.462 1.53-.882 2.034-.408.492-.972.738-1.692.738-.336 0-.75-.066-1.242-.198l.108-1.89c.168.036.312.054.432.054.456 0 .798-.18 1.026-.54.228-.372.372-.81.432-1.314.072-.516.132-1.248.18-2.196l.162-3.708h7.776zm7.027 5.76h-1.746V58h-2.25v-9.612h2.25v3.888h1.8l2.844-3.888h2.412l-3.492 4.626L189.611 58h-2.646l-2.898-3.852zm15.658-5.76l-4.5 10.386c-.42 1.044-.93 1.776-1.53 2.196-.6.432-1.326.648-2.178.648a4.47 4.47 0 01-1.422-.234c-.468-.156-.852-.372-1.152-.648l.9-1.656c.216.204.468.366.756.486.3.12.6.18.9.18.396 0 .72-.102.972-.306.264-.204.504-.546.72-1.026l.162-.378-4.194-9.648h2.34l3.024 7.11 3.042-7.11h2.16zm10.533 5.76h-1.746V58h-2.25v-9.612h2.25v3.888h1.8l2.844-3.888h2.412l-3.492 4.626L215.802 58h-2.646l-2.898-3.852zm11.099 3.978c-.972 0-1.848-.21-2.628-.63a4.676 4.676 0 01-1.836-1.746c-.432-.756-.648-1.608-.648-2.556s.216-1.794.648-2.538a4.676 4.676 0 011.836-1.746c.78-.42 1.656-.63 2.628-.63.984 0 1.866.21 2.646.63a4.55 4.55 0 011.818 1.746c.444.744.666 1.59.666 2.538 0 .948-.222 1.8-.666 2.556a4.55 4.55 0 01-1.818 1.746c-.78.42-1.662.63-2.646.63zm0-1.926c.828 0 1.512-.276 2.052-.828.54-.552.81-1.278.81-2.178 0-.9-.27-1.626-.81-2.178s-1.224-.828-2.052-.828c-.828 0-1.512.276-2.052.828-.528.552-.792 1.278-.792 2.178 0 .9.264 1.626.792 2.178.54.552 1.224.828 2.052.828zm14.615-5.904h-3.366V58h-2.25v-7.704h-3.384v-1.908h9v1.908zm5.494 7.83c-.972 0-1.848-.21-2.628-.63a4.676 4.676 0 01-1.836-1.746c-.432-.756-.648-1.608-.648-2.556s.216-1.794.648-2.538a4.676 4.676 0 011.836-1.746c.78-.42 1.656-.63 2.628-.63.984 0 1.866.21 2.646.63a4.55 4.55 0 011.818 1.746c.444.744.666 1.59.666 2.538 0 .948-.222 1.8-.666 2.556a4.55 4.55 0 01-1.818 1.746c-.78.42-1.662.63-2.646.63zm0-1.926c.828 0 1.512-.276 2.052-.828.54-.552.81-1.278.81-2.178 0-.9-.27-1.626-.81-2.178s-1.224-.828-2.052-.828c-.828 0-1.512.276-2.052.828-.528.552-.792 1.278-.792 2.178 0 .9.264 1.626.792 2.178.54.552 1.224.828 2.052.828zm12.681-7.92c.936 0 1.77.204 2.502.612a4.397 4.397 0 011.746 1.728c.42.744.63 1.602.63 2.574 0 .972-.21 1.836-.63 2.592a4.397 4.397 0 01-1.746 1.728c-.732.408-1.566.612-2.502.612-1.296 0-2.322-.432-3.078-1.296v4.662h-2.25V48.388h2.142v1.26a3.495 3.495 0 011.368-1.026 4.717 4.717 0 011.818-.342zm-.252 7.92c.828 0 1.506-.276 2.034-.828.54-.552.81-1.278.81-2.178 0-.9-.27-1.626-.81-2.178-.528-.552-1.206-.828-2.034-.828a2.84 2.84 0 00-1.458.378c-.432.24-.774.588-1.026 1.044-.252.456-.378.984-.378 1.584 0 .6.126 1.128.378 1.584.252.456.594.81 1.026 1.062.432.24.918.36 1.458.36zm16.177-7.812l-4.5 10.386c-.42 1.044-.93 1.776-1.53 2.196-.6.432-1.326.648-2.178.648a4.47 4.47 0 01-1.422-.234c-.468-.156-.852-.372-1.152-.648l.9-1.656c.216.204.468.366.756.486.3.12.6.18.9.18.396 0 .72-.102.972-.306.264-.204.504-.546.72-1.026l.162-.378-4.194-9.648h2.34l3.024 7.11 3.042-7.11h2.16zm10.347-.108c.96 0 1.818.21 2.574.63.756.408 1.35.99 1.782 1.746.432.744.648 1.59.648 2.538 0 .948-.216 1.8-.648 2.556a4.614 4.614 0 01-1.782 1.746c-.756.42-1.614.63-2.574.63-.84 0-1.608-.162-2.304-.486a4.705 4.705 0 01-1.728-1.404 4.775 4.775 0 01-.882-2.088h-1.62V58h-2.25v-9.612h2.25v3.726h1.656a4.533 4.533 0 01.9-1.998 4.488 4.488 0 011.71-1.35c.684-.324 1.44-.486 2.268-.486zm0 7.938c.528 0 1.002-.12 1.422-.36.42-.252.75-.606.99-1.062.24-.468.36-1.002.36-1.602 0-.912-.264-1.638-.792-2.178-.516-.552-1.176-.828-1.98-.828s-1.464.276-1.98.828c-.516.54-.774 1.266-.774 2.178 0 .912.258 1.644.774 2.196.528.552 1.188.828 1.98.828zM19.626 70.388h2.25v3.906h4.842v-3.906h2.25V80h-2.25v-3.798h-4.842V80h-2.25v-9.612zm21.43 0l-4.5 10.386c-.42 1.044-.93 1.776-1.53 2.196-.6.432-1.326.648-2.178.648a4.47 4.47 0 01-1.422-.234c-.468-.156-.852-.372-1.152-.648l.9-1.656c.216.204.468.366.756.486.3.12.6.18.9.18.396 0 .72-.102.972-.306.264-.204.504-.546.72-1.026l.162-.378-4.194-9.648h2.34l3.024 7.11 3.042-7.11h2.16zm10.144 5.76h-1.62V80h-2.233v-3.852h-1.62L43.388 80h-2.663l3.15-4.968-2.916-4.644h2.394l2.34 3.888h1.655v-3.888h2.233v3.888h1.638l2.357-3.888h2.394l-2.916 4.644L56.222 80h-2.683l-2.34-3.852zm6.694-5.76h2.25v3.906h4.842v-3.906h2.25V80h-2.25v-3.798h-4.842V80h-2.25v-9.612zm16.641 9.738c-.972 0-1.848-.21-2.628-.63a4.676 4.676 0 01-1.836-1.746c-.432-.756-.648-1.608-.648-2.556s.216-1.794.648-2.538a4.676 4.676 0 011.836-1.746c.78-.42 1.656-.63 2.628-.63.984 0 1.866.21 2.646.63A4.55 4.55 0 0179 72.656c.444.744.666 1.59.666 2.538 0 .948-.222 1.8-.666 2.556a4.55 4.55 0 01-1.818 1.746c-.78.42-1.662.63-2.646.63zm0-1.926c.828 0 1.512-.276 2.052-.828.54-.552.81-1.278.81-2.178 0-.9-.27-1.626-.81-2.178s-1.224-.828-2.052-.828c-.828 0-1.512.276-2.052.828-.528.552-.792 1.278-.792 2.178 0 .9.264 1.626.792 2.178.54.552 1.224.828 2.052.828zm17.656-7.92c.936 0 1.77.204 2.502.612a4.397 4.397 0 011.746 1.728c.42.744.63 1.602.63 2.574 0 .972-.21 1.836-.63 2.592a4.397 4.397 0 01-1.746 1.728c-.732.408-1.566.612-2.502.612-1.296 0-2.322-.432-3.078-1.296v4.662h-2.25V70.388h2.142v1.26a3.495 3.495 0 011.368-1.026 4.717 4.717 0 011.818-.342zm-.252 7.92c.828 0 1.506-.276 2.034-.828.54-.552.81-1.278.81-2.178 0-.9-.27-1.626-.81-2.178-.528-.552-1.206-.828-2.034-.828a2.84 2.84 0 00-1.458.378c-.432.24-.774.588-1.026 1.044-.252.456-.378.984-.378 1.584 0 .6.126 1.128.378 1.584.252.456.594.81 1.026 1.062.432.24.918.36 1.458.36zm10.828-7.92c1.416 0 2.496.342 3.24 1.026.756.672 1.134 1.692 1.134 3.06V80h-2.124v-1.17c-.276.42-.672.744-1.188.972-.504.216-1.116.324-1.836.324s-1.35-.12-1.89-.36c-.54-.252-.96-.594-1.26-1.026a2.686 2.686 0 01-.432-1.494c0-.864.318-1.554.954-2.07.648-.528 1.662-.792 3.042-.792h2.484v-.144c0-.672-.204-1.188-.612-1.548-.396-.36-.99-.54-1.782-.54-.54 0-1.074.084-1.602.252a3.926 3.926 0 00-1.314.702l-.882-1.638c.504-.384 1.11-.678 1.818-.882a8.089 8.089 0 012.25-.306zm-.306 8.208c.564 0 1.062-.126 1.494-.378.444-.264.756-.636.936-1.116v-1.116h-2.322c-1.296 0-1.944.426-1.944 1.278 0 .408.162.732.486.972.324.24.774.36 1.35.36zm13.083-3.492c.6.168 1.062.444 1.386.828.336.372.504.822.504 1.35a2.32 2.32 0 01-.594 1.566c-.396.444-.942.792-1.638 1.044s-1.488.378-2.376.378c-.744 0-1.47-.084-2.178-.252a7.858 7.858 0 01-1.926-.756l.648-1.674c.468.264.996.468 1.584.612a7.392 7.392 0 001.764.216c.756 0 1.344-.114 1.764-.342.432-.24.648-.564.648-.972 0-.372-.168-.66-.504-.864-.324-.204-.786-.306-1.386-.306h-1.872v-1.512h1.692c.564 0 1.002-.096 1.314-.288.324-.192.486-.462.486-.81 0-.348-.192-.624-.576-.828-.384-.204-.912-.306-1.584-.306-.96 0-1.974.234-3.042.702l-.576-1.656c1.26-.588 2.532-.882 3.816-.882.816 0 1.548.114 2.196.342.648.216 1.152.528 1.512.936.372.396.558.852.558 1.368 0 .468-.144.888-.432 1.26-.288.36-.684.642-1.188.846zM129.219 80v-6.372l-3.24 5.364h-.972l-3.186-5.382V80h-2.052v-9.612h2.358l3.42 6.012 3.582-6.012h2.106l.018 9.612h-2.034zm14.052-4.752c0 .156-.012.378-.036.666h-7.542c.132.708.474 1.272 1.026 1.692.564.408 1.26.612 2.088.612 1.056 0 1.926-.348 2.61-1.044l1.206 1.386a4.063 4.063 0 01-1.638 1.17c-.66.264-1.404.396-2.232.396-1.056 0-1.986-.21-2.79-.63a4.617 4.617 0 01-1.872-1.746c-.432-.756-.648-1.608-.648-2.556 0-.936.21-1.776.63-2.52a4.578 4.578 0 011.782-1.764c.756-.42 1.608-.63 2.556-.63.936 0 1.77.21 2.502.63a4.25 4.25 0 011.728 1.746c.42.744.63 1.608.63 2.592zm-4.86-3.168c-.72 0-1.332.216-1.836.648-.492.42-.792.984-.9 1.692h5.454c-.096-.696-.39-1.26-.882-1.692-.492-.432-1.104-.648-1.836-.648zm11.695 8.046c-.996 0-1.89-.21-2.682-.63a4.645 4.645 0 01-1.854-1.746c-.444-.756-.666-1.608-.666-2.556s.222-1.794.666-2.538a4.676 4.676 0 011.836-1.746c.792-.42 1.692-.63 2.7-.63.948 0 1.776.192 2.484.576.72.384 1.26.936 1.62 1.656l-1.728 1.008a2.656 2.656 0 00-1.044-.99 2.72 2.72 0 00-1.35-.342c-.84 0-1.536.276-2.088.828-.552.54-.828 1.266-.828 2.178 0 .912.27 1.644.81 2.196.552.54 1.254.81 2.106.81a2.84 2.84 0 001.35-.324c.42-.228.768-.564 1.044-1.008l1.728 1.008a3.936 3.936 0 01-1.638 1.674c-.708.384-1.53.576-2.466.576zm13.611-7.83h-3.366V80h-2.25v-7.704h-3.384v-1.908h9v1.908zm1.632-1.908h2.25v6.336l5.31-6.336h2.052V80h-2.25v-6.336L167.419 80h-2.07v-9.612zm20.253 1.908h-3.366V80h-2.25v-7.704h-3.384v-1.908h9v1.908zm6.456 1.26c1.224 0 2.16.276 2.808.828.66.552.99 1.332.99 2.34 0 1.056-.36 1.872-1.08 2.448-.72.576-1.734.858-3.042.846l-4.5-.018v-9.612h2.25v3.15l2.574.018zm-.522 4.806c.66.012 1.164-.126 1.512-.414.348-.288.522-.708.522-1.26 0-.54-.168-.936-.504-1.188-.336-.252-.846-.384-1.53-.396l-2.052-.018v3.258l2.052.018zm11.272-7.974h2.25v3.906h4.842v-3.906h2.25V80h-2.25v-3.798h-4.842V80h-2.25v-9.612zm15.939-.108c1.416 0 2.496.342 3.24 1.026.756.672 1.134 1.692 1.134 3.06V80h-2.124v-1.17c-.276.42-.672.744-1.188.972-.504.216-1.116.324-1.836.324s-1.35-.12-1.89-.36c-.54-.252-.96-.594-1.26-1.026a2.686 2.686 0 01-.432-1.494c0-.864.318-1.554.954-2.07.648-.528 1.662-.792 3.042-.792h2.484v-.144c0-.672-.204-1.188-.612-1.548-.396-.36-.99-.54-1.782-.54-.54 0-1.074.084-1.602.252a3.925 3.925 0 00-1.314.702l-.882-1.638c.504-.384 1.11-.678 1.818-.882a8.089 8.089 0 012.25-.306zm-.306 8.208c.564 0 1.062-.126 1.494-.378.444-.264.756-.636.936-1.116v-1.116h-2.322c-1.296 0-1.944.426-1.944 1.278 0 .408.162.732.486.972.324.24.774.36 1.35.36zm16.813 1.638c-.996 0-1.89-.21-2.682-.63a4.645 4.645 0 01-1.854-1.746c-.444-.756-.666-1.608-.666-2.556s.222-1.794.666-2.538a4.676 4.676 0 011.836-1.746c.792-.42 1.692-.63 2.7-.63.948 0 1.776.192 2.484.576.72.384 1.26.936 1.62 1.656l-1.728 1.008a2.656 2.656 0 00-1.044-.99 2.72 2.72 0 00-1.35-.342c-.84 0-1.536.276-2.088.828-.552.54-.828 1.266-.828 2.178 0 .912.27 1.644.81 2.196.552.54 1.254.81 2.106.81a2.84 2.84 0 001.35-.324c.42-.228.768-.564 1.044-1.008l1.728 1.008a3.936 3.936 0 01-1.638 1.674c-.708.384-1.53.576-2.466.576zm9.667-9.846c1.416 0 2.496.342 3.24 1.026.756.672 1.134 1.692 1.134 3.06V80h-2.124v-1.17c-.276.42-.672.744-1.188.972-.504.216-1.116.324-1.836.324s-1.35-.12-1.89-.36c-.54-.252-.96-.594-1.26-1.026a2.686 2.686 0 01-.432-1.494c0-.864.318-1.554.954-2.07.648-.528 1.662-.792 3.042-.792h2.484v-.144c0-.672-.204-1.188-.612-1.548-.396-.36-.99-.54-1.782-.54-.54 0-1.074.084-1.602.252a3.925 3.925 0 00-1.314.702l-.882-1.638c.504-.384 1.11-.678 1.818-.882a8.089 8.089 0 012.25-.306zm-.306 8.208c.564 0 1.062-.126 1.494-.378.444-.264.756-.636.936-1.116v-1.116h-2.322c-1.296 0-1.944.426-1.944 1.278 0 .408.162.732.486.972.324.24.774.36 1.35.36zm7.464-8.1h2.25v6.336l5.31-6.336h2.052V80h-2.25v-6.336L254.149 80h-2.07v-9.612zm4.662-1.134c-.972 0-1.716-.222-2.232-.666-.504-.456-.762-1.116-.774-1.98h1.494c.012.432.144.774.396 1.026.264.252.63.378 1.098.378.456 0 .816-.126 1.08-.378.276-.252.42-.594.432-1.026h1.53c-.012.864-.276 1.524-.792 1.98-.516.444-1.26.666-2.232.666zm15.591 3.042h-3.366V80h-2.25v-7.704h-3.384v-1.908h9v1.908zm10.21 2.952c0 .156-.012.378-.036.666h-7.542c.132.708.474 1.272 1.026 1.692.564.408 1.26.612 2.088.612 1.056 0 1.926-.348 2.61-1.044l1.206 1.386a4.063 4.063 0 01-1.638 1.17c-.66.264-1.404.396-2.232.396-1.056 0-1.986-.21-2.79-.63a4.617 4.617 0 01-1.872-1.746c-.432-.756-.648-1.608-.648-2.556 0-.936.21-1.776.63-2.52a4.578 4.578 0 011.782-1.764c.756-.42 1.608-.63 2.556-.63.936 0 1.77.21 2.502.63a4.25 4.25 0 011.728 1.746c.42.744.63 1.608.63 2.592zm-4.86-3.168c-.72 0-1.332.216-1.836.648-.492.42-.792.984-.9 1.692h5.454c-.096-.696-.39-1.26-.882-1.692-.492-.432-1.104-.648-1.836-.648zm8.005 8.046c-.408 0-.756-.138-1.044-.414a1.465 1.465 0 01-.432-1.08c0-.444.138-.804.414-1.08a1.476 1.476 0 011.062-.414c.42 0 .768.138 1.044.414.288.276.432.636.432 1.08 0 .432-.144.792-.432 1.08a1.454 1.454 0 01-1.044.414z" fill="#333"/></svg>