<svg width="306" height="123" viewBox="0 0 306 123" fill="none" xmlns="http://www.w3.org/2000/svg"><g opacity=".9" fill="#FFFCF2"><path d="M0 0h306v86c0 8.284-6.716 15-15 15H15c-8.284 0-15-6.716-15-15V0z"/><path d="M176 100.5c0 12.426-10.074 22.5-22.5 22.5S131 112.926 131 100.5 141.074 78 153.5 78 176 88.074 176 100.5z"/></g><path d="M146 93h4.01v-2H144v6h2v-4zm0 12h-2v6h6.01v-2H146v-4zm16 4h-4v2h6v-6h-2v4zm-4-16h4v4h2v-6h-6v2z" fill="#FF6072"/><path d="M147 100h6v-6h-6v6zm2-4h2v2h-2v-2zm-2 12h6v-6h-6v6zm2-4h2v2h-2v-2zm12-10h-6v6h6v-6zm-2 4h-2v-2h2v2zm-3.99 4h2v2h-2v-2zm2 2h2v2h-2v-2zm2 2h2v2h-2v-2zm0-4h2v2h-2v-2z" fill="#FF6072"/><path d="M44.691 33.02v4.662h-2.16V35h-9.666v2.682h-2.178l.018-4.662h.54c.793-.036 1.345-.618 1.656-1.746.324-1.14.522-2.766.594-4.878l.145-3.996h9.233v10.62h1.819zm-9.144-6.408c-.06 1.632-.191 2.994-.395 4.086-.205 1.08-.529 1.854-.973 2.322h6.39v-8.64h-4.931l-.09 2.232zm19.808-1.224V35h-2.25v-7.704h-3.6l-.09 1.908c-.06 1.272-.18 2.34-.36 3.204-.168.852-.462 1.53-.882 2.034-.408.492-.972.738-1.692.738-.336 0-.75-.066-1.242-.198l.108-1.89c.168.036.312.054.432.054.456 0 .798-.18 1.026-.54.228-.372.372-.81.432-1.314.072-.516.132-1.248.18-2.196l.162-3.708h7.776zm11.148 0V35h-2.016v-2.898h-2.538L59.987 35h-2.412l2.268-3.204c-.696-.24-1.23-.606-1.602-1.098-.36-.504-.54-1.122-.54-1.854 0-1.104.39-1.956 1.17-2.556.78-.6 1.854-.9 3.222-.9h4.41zm-4.338 1.89c-1.452 0-2.178.546-2.178 1.638 0 1.08.702 1.62 2.106 1.62h2.394v-3.258h-2.322zm16.623 7.848c-.972 0-1.848-.21-2.628-.63a4.676 4.676 0 01-1.836-1.746c-.432-.756-.648-1.608-.648-2.556s.216-1.794.648-2.538a4.676 4.676 0 011.836-1.746c.78-.42 1.656-.63 2.628-.63.984 0 1.866.21 2.646.63a4.55 4.55 0 011.818 1.746c.444.744.666 1.59.666 2.538 0 .948-.222 1.8-.666 2.556a4.55 4.55 0 01-1.818 1.746c-.78.42-1.662.63-2.646.63zm0-1.926c.828 0 1.512-.276 2.052-.828.54-.552.81-1.278.81-2.178 0-.9-.27-1.626-.81-2.178s-1.224-.828-2.052-.828c-.828 0-1.512.276-2.052.828-.528.552-.792 1.278-.792 2.178 0 .9.264 1.626.792 2.178.54.552 1.224.828 2.052.828zm20.06-3.024c0 1.488-.497 2.658-1.493 3.51-.984.852-2.394 1.338-4.23 1.458v3.348H91v-3.33c-1.836-.12-3.246-.606-4.23-1.458-.984-.852-1.476-2.028-1.476-3.528 0-1.488.492-2.646 1.476-3.474.984-.84 2.394-1.32 4.23-1.44v-3.618h2.124v3.618c1.836.12 3.246.6 4.23 1.44.996.84 1.494 1.998 1.494 3.474zm-11.34 0c0 .924.283 1.644.847 2.16.576.516 1.458.828 2.646.936V27.17c-1.188.096-2.07.396-2.646.9-.564.504-.846 1.206-.846 2.106zm5.617 3.096c2.352-.216 3.528-1.248 3.528-3.096 0-.912-.294-1.614-.882-2.106-.576-.504-1.458-.804-2.646-.9v6.102zm16.511-7.884V35h-2.25v-7.704h-3.6l-.09 1.908c-.06 1.272-.18 2.34-.36 3.204-.168.852-.462 1.53-.882 2.034-.408.492-.972.738-1.692.738-.336 0-.75-.066-1.242-.198l.108-1.89c.168.036.312.054.432.054.456 0 .798-.18 1.026-.54.228-.372.372-.81.432-1.314.072-.516.132-1.248.18-2.196l.162-3.708h7.776zm6.612-.108c1.416 0 2.496.342 3.24 1.026.756.672 1.134 1.692 1.134 3.06V35h-2.124v-1.17c-.276.42-.672.744-1.188.972-.504.216-1.116.324-1.836.324s-1.35-.12-1.89-.36c-.54-.252-.96-.594-1.26-1.026a2.686 2.686 0 01-.432-1.494c0-.864.318-1.554.954-2.07.648-.528 1.662-.792 3.042-.792h2.484v-.144c0-.672-.204-1.188-.612-1.548-.396-.36-.99-.54-1.782-.54-.54 0-1.074.084-1.602.252a3.925 3.925 0 00-1.314.702l-.882-1.638c.504-.384 1.11-.678 1.818-.882a8.089 8.089 0 012.25-.306zm-.306 8.208c.564 0 1.062-.126 1.494-.378.444-.264.756-.636.936-1.116v-1.116h-2.322c-1.296 0-1.944.426-1.944 1.278 0 .408.162.732.486.972.324.24.774.36 1.35.36zm7.465-8.1h2.25v6.336l5.31-6.336h2.052V35h-2.25v-6.336L125.477 35h-2.07v-9.612zm4.662-1.134c-.972 0-1.716-.222-2.232-.666-.504-.456-.762-1.116-.774-1.98h1.494c.012.432.144.774.396 1.026.264.252.63.378 1.098.378.456 0 .816-.126 1.08-.378.276-.252.42-.594.432-1.026h1.53c-.012.864-.276 1.524-.792 1.98-.516.444-1.26.666-2.232.666zm7.976 1.134h2.25v3.906h4.842v-3.906h2.25V35h-2.25v-3.798h-4.842V35h-2.25v-9.612zm22.534.468c.912 0 1.716.198 2.412.594a4.048 4.048 0 011.62 1.62c.396.696.594 1.494.594 2.394 0 .924-.216 1.746-.648 2.466a4.421 4.421 0 01-1.818 1.656c-.78.396-1.668.594-2.664.594-1.668 0-2.958-.552-3.87-1.656-.912-1.104-1.368-2.694-1.368-4.77 0-1.932.414-3.462 1.242-4.59.828-1.128 2.094-1.872 3.798-2.232l4.464-.954.324 2.016-4.05.828c-1.164.24-2.034.648-2.61 1.224-.576.576-.912 1.386-1.008 2.43a4.35 4.35 0 011.566-1.188 4.675 4.675 0 012.016-.432zm-.45 7.506c.828 0 1.494-.264 1.998-.792.516-.54.774-1.224.774-2.052 0-.828-.258-1.494-.774-1.998-.504-.504-1.17-.756-1.998-.756-.84 0-1.518.252-2.034.756-.516.504-.774 1.17-.774 1.998 0 .84.258 1.524.774 2.052.528.528 1.206.792 2.034.792zm7.254-7.974h2.25v6.336l5.31-6.336h2.052V35h-2.25v-6.336L167.453 35h-2.07v-9.612zm18.258 4.608c.6.168 1.062.444 1.386.828.336.372.504.822.504 1.35a2.32 2.32 0 01-.594 1.566c-.396.444-.942.792-1.638 1.044s-1.488.378-2.376.378c-.744 0-1.47-.084-2.178-.252a7.858 7.858 0 01-1.926-.756l.648-1.674c.468.264.996.468 1.584.612a7.392 7.392 0 001.764.216c.756 0 1.344-.114 1.764-.342.432-.24.648-.564.648-.972 0-.372-.168-.66-.504-.864-.324-.204-.786-.306-1.386-.306h-1.872v-1.512h1.692c.564 0 1.002-.096 1.314-.288.324-.192.486-.462.486-.81 0-.348-.192-.624-.576-.828-.384-.204-.912-.306-1.584-.306-.96 0-1.974.234-3.042.702l-.576-1.656c1.26-.588 2.532-.882 3.816-.882.816 0 1.548.114 2.196.342.648.216 1.152.528 1.512.936.372.396.558.852.558 1.368 0 .468-.144.888-.432 1.26-.288.36-.684.642-1.188.846zm4.225-4.608h2.25v3.906h4.842v-3.906h2.25V35h-2.25v-3.798h-4.842V35h-2.25v-9.612zm21.357 4.86c0 .156-.012.378-.036.666h-7.542c.132.708.474 1.272 1.026 1.692.564.408 1.26.612 2.088.612 1.056 0 1.926-.348 2.61-1.044l1.206 1.386a4.063 4.063 0 01-1.638 1.17c-.66.264-1.404.396-2.232.396-1.056 0-1.986-.21-2.79-.63a4.617 4.617 0 01-1.872-1.746c-.432-.756-.648-1.608-.648-2.556 0-.936.21-1.776.63-2.52a4.578 4.578 0 011.782-1.764c.756-.42 1.608-.63 2.556-.63.936 0 1.77.21 2.502.63a4.25 4.25 0 011.728 1.746c.42.744.63 1.608.63 2.592zm-4.86-3.168c-.72 0-1.332.216-1.836.648-.492.42-.792.984-.9 1.692h5.454c-.096-.696-.39-1.26-.882-1.692-.492-.432-1.104-.648-1.836-.648zm11.695 8.046c-.996 0-1.89-.21-2.682-.63a4.645 4.645 0 01-1.854-1.746c-.444-.756-.666-1.608-.666-2.556s.222-1.794.666-2.538a4.676 4.676 0 011.836-1.746c.792-.42 1.692-.63 2.7-.63.948 0 1.776.192 2.484.576.72.384 1.26.936 1.62 1.656l-1.728 1.008a2.656 2.656 0 00-1.044-.99 2.72 2.72 0 00-1.35-.342c-.84 0-1.536.276-2.088.828-.552.54-.828 1.266-.828 2.178 0 .912.27 1.644.81 2.196.552.54 1.254.81 2.106.81a2.84 2.84 0 001.35-.324c.42-.228.768-.564 1.044-1.008l1.728 1.008a3.936 3.936 0 01-1.638 1.674c-.708.384-1.53.576-2.466.576zm9.667-9.846c1.416 0 2.496.342 3.24 1.026.756.672 1.134 1.692 1.134 3.06V35h-2.124v-1.17c-.276.42-.672.744-1.188.972-.504.216-1.116.324-1.836.324s-1.35-.12-1.89-.36c-.54-.252-.96-.594-1.26-1.026a2.686 2.686 0 01-.432-1.494c0-.864.318-1.554.954-2.07.648-.528 1.662-.792 3.042-.792h2.484v-.144c0-.672-.204-1.188-.612-1.548-.396-.36-.99-.54-1.782-.54-.54 0-1.074.084-1.602.252a3.925 3.925 0 00-1.314.702l-.882-1.638c.504-.384 1.11-.678 1.818-.882a8.089 8.089 0 012.25-.306zm-.306 8.208c.564 0 1.062-.126 1.494-.378.444-.264.756-.636.936-1.116v-1.116h-2.322c-1.296 0-1.944.426-1.944 1.278 0 .408.162.732.486.972.324.24.774.36 1.35.36zm11.917-4.428h4.95v1.872h-4.95V29.06zm25.904 7.2c-.42.492-.912.864-1.476 1.116a4.326 4.326 0 01-1.818.378 4.848 4.848 0 01-2.376-.594c-.72-.384-1.542-1.056-2.466-2.016-1.164-.096-2.208-.432-3.132-1.008a6.257 6.257 0 01-2.16-2.286c-.516-.948-.774-1.998-.774-3.15 0-1.224.294-2.328.882-3.312a6.116 6.116 0 012.43-2.322c1.032-.564 2.19-.846 3.474-.846 1.284 0 2.442.282 3.474.846a6.154 6.154 0 012.43 2.304c.588.984.882 2.094.882 3.33 0 .996-.198 1.92-.594 2.772a6.347 6.347 0 01-1.656 2.16 6.623 6.623 0 01-2.466 1.278c.348.372.69.642 1.026.81.336.168.696.252 1.08.252.828 0 1.548-.336 2.16-1.008l1.08 1.296zm-11.844-7.56c0 .84.192 1.602.576 2.286.384.672.912 1.2 1.584 1.584.672.372 1.428.558 2.268.558.84 0 1.596-.186 2.268-.558a4.183 4.183 0 001.584-1.584c.384-.684.576-1.446.576-2.286 0-.84-.192-1.596-.576-2.268a4.022 4.022 0 00-1.584-1.584c-.672-.384-1.428-.576-2.268-.576-.84 0-1.596.192-2.268.576-.672.372-1.2.9-1.584 1.584-.384.672-.576 1.428-.576 2.268zm21.938 6.3l-2.574-3.69c-.108.012-.27.018-.486.018h-2.844V35h-2.34V22.4h5.184c1.092 0 2.04.18 2.844.54.816.36 1.44.876 1.872 1.548.432.672.648 1.47.648 2.394 0 .948-.234 1.764-.702 2.448-.456.684-1.116 1.194-1.98 1.53l2.898 4.14h-2.52zm-.054-8.118c0-.804-.264-1.422-.792-1.854-.528-.432-1.302-.648-2.322-.648h-2.736v5.022h2.736c1.02 0 1.794-.216 2.322-.648.528-.444.792-1.068.792-1.872zM25.678 53.148h-1.746V57h-2.25v-9.612h2.25v3.888h1.8l2.844-3.888h2.412l-3.492 4.626L31.222 57h-2.646l-2.898-3.852zm11.098 3.978c-.972 0-1.848-.21-2.628-.63a4.676 4.676 0 01-1.836-1.746c-.431-.756-.647-1.608-.647-2.556s.216-1.794.648-2.538a4.676 4.676 0 011.835-1.746c.78-.42 1.656-.63 2.628-.63.984 0 1.866.21 2.646.63a4.55 4.55 0 011.819 1.746c.444.744.666 1.59.666 2.538 0 .948-.222 1.8-.666 2.556a4.55 4.55 0 01-1.819 1.746c-.78.42-1.661.63-2.645.63zm0-1.926c.828 0 1.512-.276 2.052-.828.54-.552.81-1.278.81-2.178 0-.9-.27-1.626-.81-2.178s-1.224-.828-2.052-.828c-.828 0-1.512.276-2.052.828-.527.552-.791 1.278-.791 2.178 0 .9.264 1.626.791 2.178.54.552 1.225.828 2.053.828zm17.508-.108v4.05h-2.106V57h-7.416v2.142h-2.088v-4.05h.45c.612-.024 1.026-.414 1.242-1.17.228-.768.378-1.848.45-3.24l.126-3.294h7.92v7.704h1.422zm-7.416-4.248c-.048 1.104-.138 2.004-.27 2.7-.132.696-.372 1.212-.72 1.548h4.734v-5.796h-3.69l-.054 1.548zm18.396 2.304h-1.746V57h-2.25v-9.612h2.25v3.888h1.8l2.844-3.888h2.412l-3.492 4.626L70.808 57h-2.646l-2.898-3.852zm11.098 3.978c-.972 0-1.848-.21-2.628-.63a4.676 4.676 0 01-1.836-1.746c-.432-.756-.648-1.608-.648-2.556s.216-1.794.648-2.538a4.676 4.676 0 011.836-1.746c.78-.42 1.656-.63 2.628-.63.984 0 1.866.21 2.646.63a4.55 4.55 0 011.818 1.746c.444.744.666 1.59.666 2.538 0 .948-.222 1.8-.666 2.556a4.55 4.55 0 01-1.818 1.746c-.78.42-1.662.63-2.646.63zm0-1.926c.828 0 1.512-.276 2.052-.828.54-.552.81-1.278.81-2.178 0-.9-.27-1.626-.81-2.178s-1.224-.828-2.052-.828c-.828 0-1.512.276-2.052.828-.528.552-.792 1.278-.792 2.178 0 .9.264 1.626.792 2.178.54.552 1.224.828 2.052.828zm14.616-5.904h-3.366V57h-2.25v-7.704h-3.384v-1.908h9v1.908zm5.494 7.83c-.972 0-1.848-.21-2.628-.63a4.676 4.676 0 01-1.836-1.746c-.432-.756-.648-1.608-.648-2.556s.216-1.794.648-2.538a4.676 4.676 0 011.836-1.746c.78-.42 1.656-.63 2.628-.63.984 0 1.866.21 2.646.63a4.55 4.55 0 011.818 1.746c.444.744.666 1.59.666 2.538 0 .948-.222 1.8-.666 2.556a4.55 4.55 0 01-1.818 1.746c-.78.42-1.662.63-2.646.63zm0-1.926c.828 0 1.512-.276 2.052-.828.54-.552.81-1.278.81-2.178 0-.9-.27-1.626-.81-2.178s-1.224-.828-2.052-.828c-.828 0-1.512.276-2.052.828-.528.552-.792 1.278-.792 2.178 0 .9.264 1.626.792 2.178.54.552 1.224.828 2.052.828zm12.681-7.92c.936 0 1.77.204 2.502.612a4.397 4.397 0 011.746 1.728c.42.744.63 1.602.63 2.574 0 .972-.21 1.836-.63 2.592a4.397 4.397 0 01-1.746 1.728c-.732.408-1.566.612-2.502.612-1.296 0-2.322-.432-3.078-1.296v4.662h-2.25V47.388h2.142v1.26a3.495 3.495 0 011.368-1.026 4.717 4.717 0 011.818-.342zm-.252 7.92c.828 0 1.506-.276 2.034-.828.54-.552.81-1.278.81-2.178 0-.9-.27-1.626-.81-2.178-.528-.552-1.206-.828-2.034-.828a2.84 2.84 0 00-1.458.378c-.432.24-.774.588-1.026 1.044-.252.456-.378.984-.378 1.584 0 .6.126 1.128.378 1.584.252.456.594.81 1.026 1.062.432.24.918.36 1.458.36zm12.049-4.644c1.224 0 2.16.276 2.808.828.648.552.972 1.332.972 2.34 0 1.056-.36 1.872-1.08 2.448-.708.576-1.716.858-3.024.846L116.27 57v-9.612h2.25v3.15l2.43.018zm5.022-3.168h2.25V57h-2.25v-9.612zm-5.544 7.974c.66.012 1.164-.126 1.512-.414.348-.288.522-.708.522-1.26 0-.54-.168-.936-.504-1.188-.336-.252-.846-.384-1.53-.396l-1.908-.018v3.258l1.908.018zm10.818-7.974h2.25v6.336l5.31-6.336h2.052V57h-2.25v-6.336L133.316 57h-2.07v-9.612zm4.662-1.134c-.972 0-1.716-.222-2.232-.666-.504-.456-.762-1.116-.774-1.98h1.494c.012.432.144.774.396 1.026.264.252.63.378 1.098.378.456 0 .816-.126 1.08-.378.276-.252.42-.594.432-1.026h1.53c-.012.864-.276 1.524-.792 1.98-.516.444-1.26.666-2.232.666zm18.28 1.026c.936 0 1.77.204 2.502.612a4.397 4.397 0 011.746 1.728c.42.744.63 1.602.63 2.574 0 .972-.21 1.836-.63 2.592a4.397 4.397 0 01-1.746 1.728c-.732.408-1.566.612-2.502.612-1.296 0-2.322-.432-3.078-1.296v4.662h-2.25V47.388h2.142v1.26a3.495 3.495 0 011.368-1.026 4.717 4.717 0 011.818-.342zm-.252 7.92c.828 0 1.506-.276 2.034-.828.54-.552.81-1.278.81-2.178 0-.9-.27-1.626-.81-2.178-.528-.552-1.206-.828-2.034-.828a2.84 2.84 0 00-1.458.378c-.432.24-.774.588-1.026 1.044-.252.456-.378.984-.378 1.584 0 .6.126 1.128.378 1.584.252.456.594.81 1.026 1.062.432.24.918.36 1.458.36zm10.828-7.92c1.416 0 2.496.342 3.24 1.026.756.672 1.134 1.692 1.134 3.06V57h-2.124v-1.17c-.276.42-.672.744-1.188.972-.504.216-1.116.324-1.836.324s-1.35-.12-1.89-.36c-.54-.252-.96-.594-1.26-1.026a2.686 2.686 0 01-.432-1.494c0-.864.318-1.554.954-2.07.648-.528 1.662-.792 3.042-.792h2.484v-.144c0-.672-.204-1.188-.612-1.548-.396-.36-.99-.54-1.782-.54-.54 0-1.074.084-1.602.252a3.925 3.925 0 00-1.314.702l-.882-1.638c.504-.384 1.11-.678 1.818-.882a8.089 8.089 0 012.25-.306zm-.306 8.208c.564 0 1.062-.126 1.494-.378.444-.264.756-.636.936-1.116v-1.116h-2.322c-1.296 0-1.944.426-1.944 1.278 0 .408.162.732.486.972.324.24.774.36 1.35.36zm13.083-3.492c.6.168 1.062.444 1.386.828.336.372.504.822.504 1.35a2.32 2.32 0 01-.594 1.566c-.396.444-.942.792-1.638 1.044s-1.488.378-2.376.378c-.744 0-1.47-.084-2.178-.252a7.858 7.858 0 01-1.926-.756l.648-1.674c.468.264.996.468 1.584.612a7.392 7.392 0 001.764.216c.756 0 1.344-.114 1.764-.342.432-.24.648-.564.648-.972 0-.372-.168-.66-.504-.864-.324-.204-.786-.306-1.386-.306h-1.872v-1.512h1.692c.564 0 1.002-.096 1.314-.288.324-.192.486-.462.486-.81 0-.348-.192-.624-.576-.828-.384-.204-.912-.306-1.584-.306-.96 0-1.974.234-3.042.702l-.576-1.656c1.26-.588 2.532-.882 3.816-.882.816 0 1.548.114 2.196.342.648.216 1.152.528 1.512.936.372.396.558.852.558 1.368 0 .468-.144.888-.432 1.26-.288.36-.684.642-1.188.846zM191.216 57v-6.372l-3.24 5.364h-.972l-3.186-5.382V57h-2.052v-9.612h2.358l3.42 6.012 3.582-6.012h2.106L193.25 57h-2.034zm14.052-4.752c0 .156-.012.378-.036.666h-7.542c.132.708.474 1.272 1.026 1.692.564.408 1.26.612 2.088.612 1.056 0 1.926-.348 2.61-1.044l1.206 1.386a4.063 4.063 0 01-1.638 1.17c-.66.264-1.404.396-2.232.396-1.056 0-1.986-.21-2.79-.63a4.617 4.617 0 01-1.872-1.746c-.432-.756-.648-1.608-.648-2.556 0-.936.21-1.776.63-2.52a4.578 4.578 0 011.782-1.764c.756-.42 1.608-.63 2.556-.63.936 0 1.77.21 2.502.63a4.25 4.25 0 011.728 1.746c.42.744.63 1.608.63 2.592zm-4.86-3.168c-.72 0-1.332.216-1.836.648-.492.42-.792.984-.9 1.692h5.454c-.096-.696-.39-1.26-.882-1.692-.492-.432-1.104-.648-1.836-.648zm11.695 8.046c-.996 0-1.89-.21-2.682-.63a4.645 4.645 0 01-1.854-1.746c-.444-.756-.666-1.608-.666-2.556s.222-1.794.666-2.538a4.676 4.676 0 011.836-1.746c.792-.42 1.692-.63 2.7-.63.948 0 1.776.192 2.484.576.72.384 1.26.936 1.62 1.656l-1.728 1.008a2.656 2.656 0 00-1.044-.99 2.72 2.72 0 00-1.35-.342c-.84 0-1.536.276-2.088.828-.552.54-.828 1.266-.828 2.178 0 .912.27 1.644.81 2.196.552.54 1.254.81 2.106.81a2.84 2.84 0 001.35-.324c.42-.228.768-.564 1.044-1.008l1.728 1.008a3.936 3.936 0 01-1.638 1.674c-.708.384-1.53.576-2.466.576zm13.611-7.83h-3.366V57h-2.25v-7.704h-3.384v-1.908h9v1.908zm1.632-1.908h2.25v6.336l5.31-6.336h2.052V57h-2.25v-6.336L229.416 57h-2.07v-9.612zm20.253 1.908h-3.366V57h-2.25v-7.704h-3.384v-1.908h9v1.908zm10.21 2.952c0 .156-.012.378-.036.666h-7.542c.132.708.474 1.272 1.026 1.692.564.408 1.26.612 2.088.612 1.056 0 1.926-.348 2.61-1.044l1.206 1.386a4.063 4.063 0 01-1.638 1.17c-.66.264-1.404.396-2.232.396-1.056 0-1.986-.21-2.79-.63a4.617 4.617 0 01-1.872-1.746c-.432-.756-.648-1.608-.648-2.556 0-.936.21-1.776.63-2.52a4.578 4.578 0 011.782-1.764c.756-.42 1.608-.63 2.556-.63.936 0 1.77.21 2.502.63a4.25 4.25 0 011.728 1.746c.42.744.63 1.608.63 2.592zm-4.86-3.168c-.72 0-1.332.216-1.836.648-.492.42-.792.984-.9 1.692h5.454c-.096-.696-.39-1.26-.882-1.692-.492-.432-1.104-.648-1.836-.648zm12.295-1.692h2.25v3.906h4.842v-3.906h2.25V57h-2.25v-3.798h-4.842V57h-2.25v-9.612zm15.94-.108c1.416 0 2.496.342 3.24 1.026.756.672 1.134 1.692 1.134 3.06V57h-2.124v-1.17c-.276.42-.672.744-1.188.972-.504.216-1.116.324-1.836.324s-1.35-.12-1.89-.36c-.54-.252-.96-.594-1.26-1.026a2.686 2.686 0 01-.432-1.494c0-.864.318-1.554.954-2.07.648-.528 1.662-.792 3.042-.792h2.484v-.144c0-.672-.204-1.188-.612-1.548-.396-.36-.99-.54-1.782-.54-.54 0-1.074.084-1.602.252a3.925 3.925 0 00-1.314.702l-.882-1.638c.504-.384 1.11-.678 1.818-.882a8.089 8.089 0 012.25-.306zm-.306 8.208c.564 0 1.062-.126 1.494-.378.444-.264.756-.636.936-1.116v-1.116h-2.322c-1.296 0-1.944.426-1.944 1.278 0 .408.162.732.486.972.324.24.774.36 1.35.36zM23.691 73.996c1.188.36 1.782 1.128 1.782 2.304 0 .864-.324 1.53-.972 1.998-.648.468-1.608.702-2.88.702h-4.896v-9.612h4.698c1.176 0 2.094.216 2.754.648.66.432.99 1.044.99 1.836 0 .492-.132.918-.396 1.278-.252.36-.612.642-1.08.846zm-4.824-.594h2.358c1.164 0 1.746-.402 1.746-1.206 0-.78-.582-1.17-1.746-1.17h-2.358v2.376zm2.574 3.96c1.236 0 1.854-.402 1.854-1.206 0-.42-.144-.732-.432-.936-.288-.216-.738-.324-1.35-.324h-2.646v2.466h2.574zm6.428-7.974h2.25v6.336l5.31-6.336h2.052V79h-2.25v-6.336L29.94 79h-2.07v-9.612zm22.9 7.704v4.05h-2.107V79h-7.416v2.142h-2.088v-4.05h.45c.612-.024 1.026-.414 1.242-1.17.228-.768.378-1.848.45-3.24l.126-3.294h7.92v7.704h1.422zm-7.417-4.248c-.048 1.104-.138 2.004-.27 2.7-.132.696-.372 1.212-.72 1.548h4.734v-5.796h-3.69l-.054 1.548zm9.426-3.456h2.25v3.906h4.842v-3.906h2.25V79h-2.25v-3.798h-4.842V79h-2.25v-9.612zm16.641 9.738c-.972 0-1.848-.21-2.628-.63a4.676 4.676 0 01-1.836-1.746c-.432-.756-.648-1.608-.648-2.556s.216-1.794.648-2.538a4.676 4.676 0 011.836-1.746c.78-.42 1.656-.63 2.628-.63.984 0 1.866.21 2.646.63a4.55 4.55 0 011.818 1.746c.444.744.666 1.59.666 2.538 0 .948-.222 1.8-.666 2.556a4.55 4.55 0 01-1.818 1.746c-.78.42-1.662.63-2.646.63zm0-1.926c.828 0 1.512-.276 2.052-.828.54-.552.81-1.278.81-2.178 0-.9-.27-1.626-.81-2.178s-1.224-.828-2.052-.828c-.828 0-1.512.276-2.052.828-.528.552-.792 1.278-.792 2.178 0 .9.264 1.626.792 2.178.54.552 1.224.828 2.052.828zM86.222 79v-6.372l-3.24 5.364h-.972l-3.186-5.382V79h-2.052v-9.612h2.358l3.42 6.012 3.582-6.012h2.106L88.256 79h-2.034zm19.476 0v-6.372l-3.24 5.364h-.972L98.3 72.61V79h-2.052v-9.612h2.358l3.42 6.012 3.582-6.012h2.106l.018 9.612h-2.034zm14.052-4.752c0 .156-.012.378-.036.666h-7.542c.132.708.474 1.272 1.026 1.692.564.408 1.26.612 2.088.612 1.056 0 1.926-.348 2.61-1.044l1.206 1.386a4.063 4.063 0 01-1.638 1.17c-.66.264-1.404.396-2.232.396-1.056 0-1.986-.21-2.79-.63a4.617 4.617 0 01-1.872-1.746c-.432-.756-.648-1.608-.648-2.556 0-.936.21-1.776.63-2.52a4.578 4.578 0 011.782-1.764c.756-.42 1.608-.63 2.556-.63.936 0 1.77.21 2.502.63a4.25 4.25 0 011.728 1.746c.42.744.63 1.608.63 2.592zm-4.86-3.168c-.72 0-1.332.216-1.836.648-.492.42-.792.984-.9 1.692h5.454c-.096-.696-.39-1.26-.882-1.692-.492-.432-1.104-.648-1.836-.648zm11.695 8.046c-.996 0-1.89-.21-2.682-.63a4.645 4.645 0 01-1.854-1.746c-.444-.756-.666-1.608-.666-2.556s.222-1.794.666-2.538a4.676 4.676 0 011.836-1.746c.792-.42 1.692-.63 2.7-.63.948 0 1.776.192 2.484.576.72.384 1.26.936 1.62 1.656l-1.728 1.008a2.656 2.656 0 00-1.044-.99 2.72 2.72 0 00-1.35-.342c-.84 0-1.536.276-2.088.828-.552.54-.828 1.266-.828 2.178 0 .912.27 1.644.81 2.196.552.54 1.254.81 2.106.81a2.84 2.84 0 001.35-.324c.42-.228.768-.564 1.044-1.008l1.728 1.008a3.936 3.936 0 01-1.638 1.674c-.708.384-1.53.576-2.466.576zm13.611-7.83h-3.366V79h-2.25v-7.704h-3.384v-1.908h9v1.908zm10.211 2.952c0 .156-.012.378-.036.666h-7.542c.132.708.474 1.272 1.026 1.692.564.408 1.26.612 2.088.612 1.056 0 1.926-.348 2.61-1.044l1.206 1.386a4.063 4.063 0 01-1.638 1.17c-.66.264-1.404.396-2.232.396-1.056 0-1.986-.21-2.79-.63a4.617 4.617 0 01-1.872-1.746c-.432-.756-.648-1.608-.648-2.556 0-.936.21-1.776.63-2.52a4.578 4.578 0 011.782-1.764c.756-.42 1.608-.63 2.556-.63.936 0 1.77.21 2.502.63a4.25 4.25 0 011.728 1.746c.42.744.63 1.608.63 2.592zm-4.86-3.168c-.72 0-1.332.216-1.836.648-.492.42-.792.984-.9 1.692h5.454c-.096-.696-.39-1.26-.882-1.692-.492-.432-1.104-.648-1.836-.648zm22.555 6.012v4.05h-2.106V79h-7.416v2.142h-2.088v-4.05h.45c.612-.024 1.026-.414 1.242-1.17.228-.768.378-1.848.45-3.24l.126-3.294h7.92v7.704h1.422zm-7.416-4.248c-.048 1.104-.138 2.004-.27 2.7-.132.696-.372 1.212-.72 1.548h4.734v-5.796h-3.69l-.054 1.548zm18.138-3.456V79h-2.25v-7.704h-3.6l-.09 1.908c-.06 1.272-.18 2.34-.36 3.204-.168.852-.462 1.53-.882 2.034-.408.492-.972.738-1.692.738-.336 0-.75-.066-1.242-.198l.108-1.89c.168.036.312.054.432.054.456 0 .798-.18 1.026-.54.228-.372.372-.81.432-1.314.072-.516.132-1.248.18-2.196l.162-3.708h7.776zm11.148 0V79h-2.016v-2.898h-2.538L183.456 79h-2.412l2.268-3.204c-.696-.24-1.23-.606-1.602-1.098-.36-.504-.54-1.122-.54-1.854 0-1.104.39-1.956 1.17-2.556.78-.6 1.854-.9 3.222-.9h4.41zm-4.338 1.89c-1.452 0-2.178.546-2.178 1.638 0 1.08.702 1.62 2.106 1.62h2.394v-3.258h-2.322zm16.335 3.87h-1.746V79h-2.25v-9.612h2.25v3.888h1.8l2.844-3.888h2.412l-3.492 4.626L207.513 79h-2.646l-2.898-3.852zm15.843-5.76V79h-2.25v-7.704h-3.6l-.09 1.908c-.06 1.272-.18 2.34-.36 3.204-.168.852-.462 1.53-.882 2.034-.408.492-.972.738-1.692.738-.336 0-.75-.066-1.242-.198l.108-1.89c.168.036.312.054.432.054.456 0 .798-.18 1.026-.54.228-.372.372-.81.432-1.314.072-.516.132-1.248.18-2.196l.162-3.708h7.776zm3.03 0h2.25v6.336l5.31-6.336h2.052V79h-2.25v-6.336L222.912 79h-2.07v-9.612zm21.639 4.86c0 .156-.012.378-.036.666h-7.542c.132.708.474 1.272 1.026 1.692.564.408 1.26.612 2.088.612 1.056 0 1.926-.348 2.61-1.044l1.206 1.386a4.063 4.063 0 01-1.638 1.17c-.66.264-1.404.396-2.232.396-1.056 0-1.986-.21-2.79-.63a4.617 4.617 0 01-1.872-1.746c-.432-.756-.648-1.608-.648-2.556 0-.936.21-1.776.63-2.52a4.578 4.578 0 011.782-1.764c.756-.42 1.608-.63 2.556-.63.936 0 1.77.21 2.502.63a4.25 4.25 0 011.728 1.746c.42.744.63 1.608.63 2.592zm-4.86-3.168c-.72 0-1.332.216-1.836.648-.492.42-.792.984-.9 1.692h5.454c-.096-.696-.39-1.26-.882-1.692-.492-.432-1.104-.648-1.836-.648zm7.321-1.692h2.25v3.906h4.842v-3.906h2.25V79h-2.25v-3.798h-4.842V79h-2.25v-9.612zm19.971 1.908h-3.366V79h-2.25v-7.704h-3.384v-1.908h9v1.908zm5.494 7.83c-.972 0-1.848-.21-2.628-.63a4.676 4.676 0 01-1.836-1.746c-.432-.756-.648-1.608-.648-2.556s.216-1.794.648-2.538a4.676 4.676 0 011.836-1.746c.78-.42 1.656-.63 2.628-.63.984 0 1.866.21 2.646.63a4.55 4.55 0 011.818 1.746c.444.744.666 1.59.666 2.538 0 .948-.222 1.8-.666 2.556a4.55 4.55 0 01-1.818 1.746c-.78.42-1.662.63-2.646.63zm0-1.926c.828 0 1.512-.276 2.052-.828.54-.552.81-1.278.81-2.178 0-.9-.27-1.626-.81-2.178s-1.224-.828-2.052-.828c-.828 0-1.512.276-2.052.828-.528.552-.792 1.278-.792 2.178 0 .9.264 1.626.792 2.178.54.552 1.224.828 2.052.828zm14.319-3.204c1.188.36 1.782 1.128 1.782 2.304 0 .864-.324 1.53-.972 1.998-.648.468-1.608.702-2.88.702h-4.896v-9.612h4.698c1.176 0 2.094.216 2.754.648.66.432.99 1.044.99 1.836 0 .492-.132.918-.396 1.278-.252.36-.612.642-1.08.846zm-4.824-.594h2.358c1.164 0 1.746-.402 1.746-1.206 0-.78-.582-1.17-1.746-1.17h-2.358v2.376zm2.574 3.96c1.236 0 1.854-.402 1.854-1.206 0-.42-.144-.732-.432-.936-.288-.216-.738-.324-1.35-.324h-2.646v2.466h2.574zm7.113 1.764c-.408 0-.756-.138-1.044-.414a1.465 1.465 0 01-.432-1.08c0-.444.138-.804.414-1.08a1.476 1.476 0 011.062-.414c.42 0 .768.138 1.044.414.288.276.432.636.432 1.08 0 .432-.144.792-.432 1.08a1.454 1.454 0 01-1.044.414z" fill="#333"/></svg>