<svg width="330" height="59" viewBox="0 0 330 59" fill="none" xmlns="http://www.w3.org/2000/svg"><rect opacity=".9" width="330" height="59" rx="10" fill="#FFFCF2"/><path d="M101.459 21.2V38h-3.864V24.368H90.01V38h-3.864V21.2h15.312zm9.924 16.992c-1.36 0-2.584-.28-3.672-.84a6.439 6.439 0 01-2.52-2.376c-.608-1.008-.912-2.152-.912-3.432 0-1.28.304-2.424.912-3.432a6.27 6.27 0 012.52-2.352c1.088-.576 2.312-.864 3.672-.864 1.36 0 2.576.288 3.648.864a6.27 6.27 0 012.52 2.352c.608 1.008.912 2.152.912 3.432 0 1.28-.304 2.424-.912 3.432a6.439 6.439 0 01-2.52 2.376c-1.072.56-2.288.84-3.648.84zm0-3.072c.96 0 1.744-.32 2.352-.96.624-.656.936-1.528.936-2.616s-.312-1.952-.936-2.592c-.608-.656-1.392-.984-2.352-.984s-1.752.328-2.376.984c-.624.64-.936 1.504-.936 2.592s.312 1.96.936 2.616c.624.64 1.416.96 2.376.96zm21.271-10.032V38h-3.744v-4.8c-1.088.544-2.288.816-3.6.816-1.744 0-3.064-.392-3.96-1.176-.88-.8-1.32-2.032-1.32-3.696v-4.056h3.744v3.816c0 .784.2 1.352.6 1.704.416.352 1.008.528 1.776.528a6.28 6.28 0 002.76-.624v-5.424h3.744zm16.147 6.504c0 .048-.024.384-.072 1.008h-9.768c.176.8.592 1.432 1.248 1.896.656.464 1.472.696 2.448.696.672 0 1.264-.096 1.776-.288a4.46 4.46 0 001.464-.96l1.992 2.16c-1.216 1.392-2.992 2.088-5.328 2.088-1.456 0-2.744-.28-3.864-.84-1.12-.576-1.984-1.368-2.592-2.376-.608-1.008-.912-2.152-.912-3.432 0-1.264.296-2.4.888-3.408a6.3 6.3 0 012.472-2.376c1.056-.576 2.232-.864 3.528-.864 1.264 0 2.408.272 3.432.816a5.857 5.857 0 012.4 2.352c.592 1.008.888 2.184.888 3.528zm-6.696-3.864c-.848 0-1.56.24-2.136.72-.576.48-.928 1.136-1.056 1.968h6.36c-.128-.816-.48-1.464-1.056-1.944-.576-.496-1.28-.744-2.112-.744zM164.271 38v-7.728l-3.864 6.48h-1.584l-3.768-6.504V38h-3.384V25.088h3.912l4.128 7.464 4.392-7.464h3.504L167.655 38h-3.384zm19.906-12.912l-5.832 13.704c-.592 1.488-1.328 2.536-2.208 3.144-.864.608-1.912.912-3.144.912a6.555 6.555 0 01-1.992-.312c-.656-.208-1.192-.496-1.608-.864l1.368-2.664c.288.256.616.456.984.6a3.2 3.2 0 001.128.216c.512 0 .928-.128 1.248-.384.32-.24.608-.648.864-1.224l.048-.12-5.592-13.008h3.864l3.624 8.76 3.648-8.76h3.6zM205.38 38v-7.728l-3.864 6.48h-1.584l-3.768-6.504V38h-3.384V25.088h3.912l4.128 7.464 4.392-7.464h3.504L208.764 38h-3.384zm13.763-8.784c1.68.016 2.952.392 3.816 1.128.864.736 1.296 1.792 1.296 3.168 0 1.44-.488 2.552-1.464 3.336-.976.784-2.36 1.176-4.152 1.176L212.351 38V25.088h3.72v4.128h3.072zm6.504-4.128h3.72V38h-3.72V25.088zm-7.344 10.272c.72.016 1.272-.136 1.656-.456.384-.32.576-.8.576-1.44 0-.624-.192-1.08-.576-1.368-.368-.288-.92-.44-1.656-.456l-2.232-.024v3.744h2.232zm18.714-3.192c0-.832.184-1.52.552-2.064.384-.544.936-1.144 1.656-1.8.528-.48.912-.88 1.152-1.2.256-.336.384-.712.384-1.128 0-.592-.24-1.056-.72-1.392-.464-.352-1.088-.528-1.872-.528-.752 0-1.424.16-2.016.48a4.19 4.19 0 00-1.464 1.296l-2.904-1.704a6.74 6.74 0 012.712-2.376c1.152-.56 2.512-.84 4.08-.84 1.84 0 3.312.392 4.416 1.176 1.12.784 1.68 1.872 1.68 3.264 0 .656-.112 1.232-.336 1.728a4.4 4.4 0 01-.792 1.272 17.15 17.15 0 01-1.2 1.176c-.592.528-1.024.976-1.296 1.344-.272.352-.408.784-.408 1.296h-3.624zm1.824 6.024c-.656 0-1.208-.208-1.656-.624a2.127 2.127 0 01-.648-1.56c0-.608.216-1.112.648-1.512.432-.416.984-.624 1.656-.624.672 0 1.224.208 1.656.624.432.4.648.904.648 1.512a2.09 2.09 0 01-.672 1.56c-.432.416-.976.624-1.632.624z" fill="#FF6072"/></svg>