<svg width="306" height="102" viewBox="0 0 306 102" fill="none" xmlns="http://www.w3.org/2000/svg"><g opacity=".9" fill="#FFFCF2"><path d="M0 35c0-8.284 6.716-15 15-15h276c8.284 0 15 6.716 15 15v67H0V35z"/><path d="M177 22.5c0 12.426-10.074 22.5-22.5 22.5S132 34.926 132 22.5 142.074 0 154.5 0 177 10.074 177 22.5z"/></g><path d="M146.638 24.014l6.896 8.275c.604.69 1.308 1.035 2.113 1.035.718 0 1.336-.216 1.853-.647l5.991-5.043a2.964 2.964 0 00.992-1.94c.086-.718-.13-1.422-.647-2.111l-6.896-8.276a4.859 4.859 0 00-2.931-1.854l-5.992-1.38c-.574-.171-1.12-.042-1.638.389l-.732.646c-.431.316-.647.834-.647 1.552l.345 6.164c.144 1.235.575 2.299 1.293 3.19zm1.034-10.173l6.078 1.466c.632.143 1.264.531 1.897 1.163l6.896 8.276c.23.23.302.489.216.776 0 .173-.13.417-.388.733l-5.992 5.043a1.004 1.004 0 01-.732.237c-.288-.014-.503-.122-.647-.323l-6.897-8.276c-.546-.69-.819-1.394-.819-2.112l-.431-6.336.819-.647zm2.457 3.017a.878.878 0 01-.258.647.879.879 0 01-.647.259.876.876 0 01-.646-.26.875.875 0 01-.259-.646c0-.258.086-.474.259-.646a.876.876 0 01.646-.259c.259 0 .474.086.647.259a.878.878 0 01.258.646zm.474 6.423l8.449 2.672h.301c.403 0 .704-.215.906-.646a.835.835 0 00-.043-.69.93.93 0 00-.518-.474l-8.448-2.673a.776.776 0 00-.711 0 .92.92 0 00-.496.518c-.172.66.014 1.092.56 1.293zm6.897 4.138c0 .373-.129.697-.388.97s-.589.409-.991.409c-.403 0-.733-.136-.992-.41a1.366 1.366 0 01-.388-.97c0-.373.137-.696.41-.97.273-.272.596-.409.97-.409.373 0 .697.137.97.41.273.273.409.596.409.97zm-2.759-7.328c0 .374-.136.697-.409.97-.273.273-.596.41-.97.41-.373 0-.697-.137-.97-.41a1.325 1.325 0 01-.409-.97c0-.373.129-.697.388-.97.258-.273.589-.41.991-.41s.733.137.991.41c.259.273.388.597.388.97z" fill="#FF6072"/><path d="M52.364 50.69h-2.34V56H47.72V43.4h2.304v5.274h2.412l3.618-5.274h2.484l-4.302 6.102L58.7 56h-2.646l-3.69-5.31zm16.63-4.302V56h-2.25v-7.704h-3.6l-.09 1.908c-.06 1.272-.18 2.34-.36 3.204-.168.852-.462 1.53-.882 2.034-.407.492-.971.738-1.691.738-.337 0-.75-.066-1.242-.198l.108-1.89c.167.036.311.054.431.054.456 0 .799-.18 1.026-.54.228-.372.372-.81.432-1.314.073-.516.133-1.248.18-2.196l.163-3.708h7.776zm3.03 0h2.25v6.336l5.31-6.336h2.053V56h-2.25v-6.336L74.095 56h-2.07v-9.612zm21.64 4.86c0 .156-.013.378-.037.666h-7.542c.132.708.474 1.272 1.026 1.692.564.408 1.26.612 2.088.612 1.056 0 1.926-.348 2.61-1.044l1.206 1.386a4.063 4.063 0 01-1.638 1.17c-.66.264-1.404.396-2.232.396-1.056 0-1.986-.21-2.79-.63a4.617 4.617 0 01-1.872-1.746c-.432-.756-.648-1.608-.648-2.556 0-.936.21-1.776.63-2.52a4.578 4.578 0 011.782-1.764c.756-.42 1.608-.63 2.556-.63.936 0 1.77.21 2.502.63a4.25 4.25 0 011.728 1.746c.42.744.63 1.608.63 2.592zm-4.86-3.168c-.72 0-1.333.216-1.837.648-.492.42-.792.984-.9 1.692h5.454c-.096-.696-.39-1.26-.882-1.692-.492-.432-1.104-.648-1.836-.648zm7.32-1.692h2.25v3.906h4.842v-3.906h2.25V56h-2.25v-3.798h-4.842V56h-2.25v-9.612zm19.972 1.908h-3.366V56h-2.25v-7.704h-3.384v-1.908h9v1.908zm5.094 1.962h18v1.476h-18v-1.476zm28.861 5.868c-.996 0-1.89-.21-2.682-.63a4.645 4.645 0 01-1.854-1.746c-.444-.756-.666-1.608-.666-2.556s.222-1.794.666-2.538a4.676 4.676 0 011.836-1.746c.792-.42 1.692-.63 2.7-.63.948 0 1.776.192 2.484.576.72.384 1.26.936 1.62 1.656l-1.728 1.008a2.656 2.656 0 00-1.044-.99 2.72 2.72 0 00-1.35-.342c-.84 0-1.536.276-2.088.828-.552.54-.828 1.266-.828 2.178 0 .912.27 1.644.81 2.196.552.54 1.254.81 2.106.81a2.84 2.84 0 001.35-.324c.42-.228.768-.564 1.044-1.008l1.728 1.008a3.936 3.936 0 01-1.638 1.674c-.708.384-1.53.576-2.466.576zm10.228 0c-.972 0-1.848-.21-2.628-.63a4.676 4.676 0 01-1.836-1.746c-.432-.756-.648-1.608-.648-2.556s.216-1.794.648-2.538a4.676 4.676 0 011.836-1.746c.78-.42 1.656-.63 2.628-.63.984 0 1.866.21 2.646.63a4.55 4.55 0 011.818 1.746c.444.744.666 1.59.666 2.538 0 .948-.222 1.8-.666 2.556a4.55 4.55 0 01-1.818 1.746c-.78.42-1.662.63-2.646.63zm0-1.926c.828 0 1.512-.276 2.052-.828.54-.552.81-1.278.81-2.178 0-.9-.27-1.626-.81-2.178s-1.224-.828-2.052-.828c-.828 0-1.512.276-2.052.828-.528.552-.792 1.278-.792 2.178 0 .9.264 1.626.792 2.178.54.552 1.224.828 2.052.828zm16.702 1.926c-.996 0-1.89-.21-2.682-.63a4.645 4.645 0 01-1.854-1.746c-.444-.756-.666-1.608-.666-2.556s.222-1.794.666-2.538a4.676 4.676 0 011.836-1.746c.792-.42 1.692-.63 2.7-.63.948 0 1.776.192 2.484.576.72.384 1.26.936 1.62 1.656l-1.728 1.008a2.656 2.656 0 00-1.044-.99 2.72 2.72 0 00-1.35-.342c-.84 0-1.536.276-2.088.828-.552.54-.828 1.266-.828 2.178 0 .912.27 1.644.81 2.196.552.54 1.254.81 2.106.81a2.84 2.84 0 001.35-.324c.42-.228.768-.564 1.044-1.008l1.728 1.008a3.936 3.936 0 01-1.638 1.674c-.708.384-1.53.576-2.466.576zm10.081-3.978h-1.746V56h-2.25v-9.612h2.25v3.888h1.8l2.844-3.888h2.412l-3.492 4.626L192.606 56h-2.646l-2.898-3.852zm7.131-5.76h2.25v6.336l5.31-6.336h2.052V56h-2.25v-6.336L196.263 56h-2.07v-9.612zm22.898 7.704v4.05h-2.106V56h-7.416v2.142h-2.088v-4.05h.45c.612-.024 1.026-.414 1.242-1.17.228-.768.378-1.848.45-3.24l.126-3.294h7.92v7.704h1.422zm-7.416-4.248c-.048 1.104-.138 2.004-.27 2.7-.132.696-.372 1.212-.72 1.548h4.734v-5.796h-3.69l-.054 1.548zm13.422 2.304h-1.746V56h-2.25v-9.612h2.25v3.888h1.8l2.844-3.888h2.412l-3.492 4.626L228.641 56h-2.646l-2.898-3.852zm11.098 3.978c-.972 0-1.848-.21-2.628-.63a4.676 4.676 0 01-1.836-1.746c-.432-.756-.648-1.608-.648-2.556s.216-1.794.648-2.538a4.676 4.676 0 011.836-1.746c.78-.42 1.656-.63 2.628-.63.984 0 1.866.21 2.646.63a4.55 4.55 0 011.818 1.746c.444.744.666 1.59.666 2.538 0 .948-.222 1.8-.666 2.556a4.55 4.55 0 01-1.818 1.746c-.78.42-1.662.63-2.646.63zm0-1.926c.828 0 1.512-.276 2.052-.828.54-.552.81-1.278.81-2.178 0-.9-.27-1.626-.81-2.178s-1.224-.828-2.052-.828c-.828 0-1.512.276-2.052.828-.528.552-.792 1.278-.792 2.178 0 .9.264 1.626.792 2.178.54.552 1.224.828 2.052.828zm7.353-7.812h2.25v6.336l5.31-6.336h2.052V56h-2.25v-6.336L243.618 56h-2.07v-9.612zm4.662-1.134c-.972 0-1.716-.222-2.232-.666-.504-.456-.762-1.116-.774-1.98h1.494c.012.432.144.774.396 1.026.264.252.63.378 1.098.378.456 0 .816-.126 1.08-.378.276-.252.42-.594.432-1.026h1.53c-.012.864-.276 1.524-.792 1.98-.516.444-1.26.666-2.232.666zm8.679 7.884c.42 0 .768.138 1.044.414.276.276.414.636.414 1.08 0 .192-.03.396-.09.612a7.4 7.4 0 01-.324.936l-.918 2.538h-1.458l.72-2.754a1.376 1.376 0 01-.63-.504 1.578 1.578 0 01-.216-.828c0-.444.138-.804.414-1.08.276-.276.624-.414 1.044-.414zm-233.42 18.31c.803.216 1.415.588 1.835 1.116.42.516.63 1.164.63 1.944 0 1.104-.408 1.962-1.224 2.574-.816.612-1.998.918-3.546.918h-5.976V65.4h5.634c1.416 0 2.52.282 3.312.846.792.564 1.188 1.362 1.188 2.394 0 .66-.162 1.23-.486 1.71-.312.48-.768.846-1.368 1.098zm-5.977-.666h3.132c.756 0 1.332-.15 1.728-.45.396-.3.594-.744.594-1.332 0-.588-.198-1.032-.594-1.332-.396-.312-.972-.468-1.728-.468h-3.132v3.582zm3.6 5.418c1.656 0 2.484-.624 2.484-1.872 0-1.224-.828-1.836-2.484-1.836h-3.6V76.2h3.6zm11.936-4.644c1.224 0 2.16.276 2.808.828.648.552.972 1.332.972 2.34 0 1.056-.36 1.872-1.08 2.448-.708.576-1.716.858-3.024.846L26.348 78v-9.612h2.25v3.15l2.43.018zm5.022-3.168h2.25V78h-2.25v-9.612zm-5.544 7.974c.66.012 1.164-.126 1.512-.414.348-.288.522-.708.522-1.26 0-.54-.168-.936-.504-1.188-.336-.252-.846-.384-1.53-.396l-1.908-.018v3.258l1.908.018zm14.281-4.104h18v1.476h-18v-1.476zm28.86 5.868c-.995 0-1.89-.21-2.681-.63a4.645 4.645 0 01-1.854-1.746c-.444-.756-.666-1.608-.666-2.556s.222-1.794.666-2.538a4.676 4.676 0 011.836-1.746c.792-.42 1.692-.63 2.7-.63.948 0 1.776.192 2.484.576.72.384 1.26.936 1.62 1.656l-1.728 1.008a2.656 2.656 0 00-1.044-.99 2.72 2.72 0 00-1.35-.342c-.84 0-1.536.276-2.088.828-.552.54-.828 1.266-.828 2.178 0 .912.27 1.644.81 2.196.552.54 1.254.81 2.106.81a2.84 2.84 0 001.35-.324c.42-.228.768-.564 1.044-1.008l1.728 1.008a3.936 3.936 0 01-1.638 1.674c-.708.384-1.53.576-2.466.576zm20.276-9.738V78h-2.232v-7.704h-4.734V78h-2.25v-9.612h9.216zm7.32 9.738c-.972 0-1.848-.21-2.628-.63a4.676 4.676 0 01-1.836-1.746c-.432-.756-.648-1.608-.648-2.556s.216-1.794.648-2.538a4.676 4.676 0 011.836-1.746c.78-.42 1.656-.63 2.628-.63.984 0 1.866.21 2.646.63a4.55 4.55 0 011.818 1.746c.444.744.666 1.59.666 2.538 0 .948-.222 1.8-.666 2.556a4.55 4.55 0 01-1.818 1.746c-.78.42-1.662.63-2.646.63zm0-1.926c.828 0 1.512-.276 2.052-.828.54-.552.81-1.278.81-2.178 0-.9-.27-1.626-.81-2.178s-1.224-.828-2.052-.828c-.828 0-1.512.276-2.052.828-.528.552-.792 1.278-.792 2.178 0 .9.264 1.626.792 2.178.54.552 1.224.828 2.052.828zm14.319-3.204c1.188.36 1.782 1.128 1.782 2.304 0 .864-.324 1.53-.972 1.998-.648.468-1.608.702-2.88.702h-4.896v-9.612h4.698c1.176 0 2.094.216 2.754.648.66.432.99 1.044.99 1.836 0 .492-.132.918-.396 1.278-.252.36-.612.642-1.08.846zm-4.824-.594h2.358c1.164 0 1.746-.402 1.746-1.206 0-.78-.582-1.17-1.746-1.17h-2.358v2.376zm2.574 3.96c1.236 0 1.854-.402 1.854-1.206 0-.42-.144-.732-.432-.936-.288-.216-.738-.324-1.35-.324h-2.646v2.466h2.574zm14.043-6.066h-3.366V78h-2.25v-7.704h-3.384v-1.908h9v1.908zm5.494 7.83c-.972 0-1.848-.21-2.628-.63a4.676 4.676 0 01-1.836-1.746c-.432-.756-.648-1.608-.648-2.556s.216-1.794.648-2.538a4.676 4.676 0 011.836-1.746c.78-.42 1.656-.63 2.628-.63.984 0 1.866.21 2.646.63a4.55 4.55 0 011.818 1.746c.444.744.666 1.59.666 2.538 0 .948-.222 1.8-.666 2.556a4.55 4.55 0 01-1.818 1.746c-.78.42-1.662.63-2.646.63zm0-1.926c.828 0 1.512-.276 2.052-.828.54-.552.81-1.278.81-2.178 0-.9-.27-1.626-.81-2.178s-1.224-.828-2.052-.828c-.828 0-1.512.276-2.052.828-.528.552-.792 1.278-.792 2.178 0 .9.264 1.626.792 2.178.54.552 1.224.828 2.052.828zm12.68-7.92c.936 0 1.77.204 2.502.612a4.397 4.397 0 011.746 1.728c.42.744.63 1.602.63 2.574 0 .972-.21 1.836-.63 2.592a4.397 4.397 0 01-1.746 1.728c-.732.408-1.566.612-2.502.612-1.296 0-2.322-.432-3.078-1.296v4.662h-2.25V68.388h2.142v1.26a3.495 3.495 0 011.368-1.026 4.717 4.717 0 011.818-.342zm-.252 7.92c.828 0 1.506-.276 2.034-.828.54-.552.81-1.278.81-2.178 0-.9-.27-1.626-.81-2.178-.528-.552-1.206-.828-2.034-.828a2.84 2.84 0 00-1.458.378c-.432.24-.774.588-1.026 1.044-.252.456-.378.984-.378 1.584 0 .6.126 1.128.378 1.584.252.456.594.81 1.026 1.062.432.24.918.36 1.458.36zm7.37-7.812h2.25v3.906h4.842v-3.906h2.25V78h-2.25v-3.798h-4.842V78h-2.25v-9.612zm16.641 9.738c-.972 0-1.848-.21-2.628-.63a4.676 4.676 0 01-1.836-1.746c-.432-.756-.648-1.608-.648-2.556s.216-1.794.648-2.538a4.676 4.676 0 011.836-1.746c.78-.42 1.656-.63 2.628-.63.984 0 1.866.21 2.646.63a4.55 4.55 0 011.818 1.746c.444.744.666 1.59.666 2.538 0 .948-.222 1.8-.666 2.556a4.55 4.55 0 01-1.818 1.746c-.78.42-1.662.63-2.646.63zm0-1.926c.828 0 1.512-.276 2.052-.828.54-.552.81-1.278.81-2.178 0-.9-.27-1.626-.81-2.178s-1.224-.828-2.052-.828c-.828 0-1.512.276-2.052.828-.528.552-.792 1.278-.792 2.178 0 .9.264 1.626.792 2.178.54.552 1.224.828 2.052.828zm7.353-7.812h2.25v6.336l5.31-6.336h2.052V78h-2.25v-6.336L178.711 78h-2.07v-9.612zm4.662-1.134c-.972 0-1.716-.222-2.232-.666-.504-.456-.762-1.116-.774-1.98h1.494c.012.432.144.774.396 1.026.264.252.63.378 1.098.378.456 0 .816-.126 1.08-.378.276-.252.42-.594.432-1.026h1.53c-.012.864-.276 1.524-.792 1.98-.516.444-1.26.666-2.232.666zm22.167 1.134V78h-2.232v-7.704h-4.734V78h-2.25v-9.612h9.216zm8.364-.108c.936 0 1.77.204 2.502.612a4.397 4.397 0 011.746 1.728c.42.744.63 1.602.63 2.574 0 .972-.21 1.836-.63 2.592a4.397 4.397 0 01-1.746 1.728c-.732.408-1.566.612-2.502.612-1.296 0-2.322-.432-3.078-1.296v4.662h-2.25V68.388h2.142v1.26a3.495 3.495 0 011.368-1.026 4.717 4.717 0 011.818-.342zm-.252 7.92c.828 0 1.506-.276 2.034-.828.54-.552.81-1.278.81-2.178 0-.9-.27-1.626-.81-2.178-.528-.552-1.206-.828-2.034-.828a2.84 2.84 0 00-1.458.378c-.432.24-.774.588-1.026 1.044-.252.456-.378.984-.378 1.584 0 .6.126 1.128.378 1.584.252.456.594.81 1.026 1.062.432.24.918.36 1.458.36zm11.653 1.926c-.972 0-1.848-.21-2.628-.63a4.676 4.676 0 01-1.836-1.746c-.432-.756-.648-1.608-.648-2.556s.216-1.794.648-2.538a4.676 4.676 0 011.836-1.746c.78-.42 1.656-.63 2.628-.63.984 0 1.866.21 2.646.63a4.55 4.55 0 011.818 1.746c.444.744.666 1.59.666 2.538 0 .948-.222 1.8-.666 2.556a4.55 4.55 0 01-1.818 1.746c-.78.42-1.662.63-2.646.63zm0-1.926c.828 0 1.512-.276 2.052-.828.54-.552.81-1.278.81-2.178 0-.9-.27-1.626-.81-2.178s-1.224-.828-2.052-.828c-.828 0-1.512.276-2.052.828-.528.552-.792 1.278-.792 2.178 0 .9.264 1.626.792 2.178.54.552 1.224.828 2.052.828zm17.508-.108v4.05h-2.106V78h-7.416v2.142h-2.088v-4.05h.45c.612-.024 1.026-.414 1.242-1.17.228-.768.378-1.848.45-3.24l.126-3.294h7.92v7.704h1.422zm-7.416-4.248c-.048 1.104-.138 2.004-.27 2.7-.132.696-.372 1.212-.72 1.548h4.734v-5.796h-3.69l-.054 1.548zm13.007-3.564c1.416 0 2.496.342 3.24 1.026.756.672 1.134 1.692 1.134 3.06V78h-2.124v-1.17c-.276.42-.672.744-1.188.972-.504.216-1.116.324-1.836.324s-1.35-.12-1.89-.36c-.54-.252-.96-.594-1.26-1.026a2.686 2.686 0 01-.432-1.494c0-.864.318-1.554.954-2.07.648-.528 1.662-.792 3.042-.792h2.484v-.144c0-.672-.204-1.188-.612-1.548-.396-.36-.99-.54-1.782-.54-.54 0-1.074.084-1.602.252a3.925 3.925 0 00-1.314.702l-.882-1.638c.504-.384 1.11-.678 1.818-.882a8.089 8.089 0 012.25-.306zm-.306 8.208c.564 0 1.062-.126 1.494-.378.444-.264.756-.636.936-1.116v-1.116h-2.322c-1.296 0-1.944.426-1.944 1.278 0 .408.162.732.486.972.324.24.774.36 1.35.36zm16.59-2.34h-1.62V78h-2.232v-3.852h-1.62L254.806 78h-2.664l3.15-4.968-2.916-4.644h2.394l2.34 3.888h1.656v-3.888h2.232v3.888h1.638l2.358-3.888h2.394l-2.916 4.644L267.64 78h-2.682l-2.34-3.852zm15.378-.9c0 .156-.012.378-.036.666h-7.542c.132.708.474 1.272 1.026 1.692.564.408 1.26.612 2.088.612 1.056 0 1.926-.348 2.61-1.044l1.206 1.386a4.063 4.063 0 01-1.638 1.17c-.66.264-1.404.396-2.232.396-1.056 0-1.986-.21-2.79-.63a4.617 4.617 0 01-1.872-1.746c-.432-.756-.648-1.608-.648-2.556 0-.936.21-1.776.63-2.52a4.578 4.578 0 011.782-1.764c.756-.42 1.608-.63 2.556-.63.936 0 1.77.21 2.502.63a4.25 4.25 0 011.728 1.746c.42.744.63 1.608.63 2.592zm-4.86-3.168c-.72 0-1.332.216-1.836.648-.492.42-.792.984-.9 1.692h5.454c-.096-.696-.39-1.26-.882-1.692-.492-.432-1.104-.648-1.836-.648zm7.321-1.692h2.25v6.336l5.31-6.336h2.052V78h-2.25v-6.336L282.527 78h-2.07v-9.612zm4.662-1.134c-.972 0-1.716-.222-2.232-.666-.504-.456-.762-1.116-.774-1.98h1.494c.012.432.144.774.396 1.026.264.252.63.378 1.098.378.456 0 .816-.126 1.08-.378.276-.252.42-.594.432-1.026h1.53c-.012.864-.276 1.524-.792 1.98-.516.444-1.26.666-2.232.666zm7.653-1.854h2.664l-.45 8.424h-1.782l-.432-8.424zm1.332 12.726c-.42 0-.768-.132-1.044-.396a1.372 1.372 0 01-.414-1.008c0-.396.138-.726.414-.99.276-.264.624-.396 1.044-.396.408 0 .744.132 1.008.396.276.264.414.594.414.99s-.138.732-.414 1.008c-.264.264-.6.396-1.008.396z" fill="#333"/></svg>