<svg width="306" height="168" viewBox="0 0 306 168" fill="none" xmlns="http://www.w3.org/2000/svg"><g opacity=".9" fill="#FFFCF2"><path d="M0 0h306v131c0 8.284-6.716 15-15 15H15c-8.284 0-15-6.716-15-15V0z"/><path d="M177 145.5c0 12.426-10.074 22.5-22.5 22.5S132 157.926 132 145.5s10.074-22.5 22.5-22.5 22.5 10.074 22.5 22.5z"/></g><path d="M162.492 156h-14.986a2.407 2.407 0 01-1.766-.732 2.415 2.415 0 01-.731-1.768v-15c0-.69.244-1.279.731-1.768a2.407 2.407 0 011.766-.732h14.986c.689 0 1.278.244 1.766.732.487.489.731 1.078.731 1.768v15c0 .69-.244 1.279-.731 1.768a2.407 2.407 0 01-1.766.732zm-11.239-5.625a.598.598 0 00-.186-.439.598.598 0 00-.439-.186h-1.248a.6.6 0 00-.44.186.601.601 0 00-.185.439v2.5c0 .169.062.316.185.439a.6.6 0 00.44.186h1.248a.598.598 0 00.439-.186.598.598 0 00.186-.439v-2.5zm4.995-5a.598.598 0 00-.186-.439.597.597 0 00-.439-.186h-1.248a.598.598 0 00-.439.186.598.598 0 00-.186.439v7.5c0 .169.062.316.186.439.123.124.27.186.439.186h1.248c.17 0 .316-.062.439-.186a.598.598 0 00.186-.439v-7.5zm4.995-6.25a.601.601 0 00-.185-.439.6.6 0 00-.439-.186h-1.249a.598.598 0 00-.439.186.598.598 0 00-.186.439v13.75c0 .169.062.316.186.439.123.124.27.186.439.186h1.249a.6.6 0 00.439-.186.601.601 0 00.185-.439v-13.75z" fill="#FF6072"/><path d="M44.572 22.4V35h-2.305V24.38h-6.534V35H33.43V22.4h11.142zm7.584 12.726c-.972 0-1.848-.21-2.628-.63a4.676 4.676 0 01-1.836-1.746c-.432-.756-.648-1.608-.648-2.556s.216-1.794.648-2.538a4.676 4.676 0 011.836-1.746c.78-.42 1.656-.63 2.628-.63.984 0 1.866.21 2.646.63a4.55 4.55 0 011.818 1.746c.444.744.666 1.59.666 2.538 0 .948-.222 1.8-.666 2.556a4.55 4.55 0 01-1.818 1.746c-.78.42-1.662.63-2.646.63zm0-1.926c.828 0 1.512-.276 2.052-.828.54-.552.81-1.278.81-2.178 0-.9-.27-1.626-.81-2.178s-1.224-.828-2.052-.828c-.828 0-1.512.276-2.052.828-.528.552-.792 1.278-.792 2.178 0 .9.264 1.626.792 2.178.54.552 1.224.828 2.052.828zm15.96-7.812V35h-2.25v-7.704h-3.6l-.09 1.908c-.06 1.272-.18 2.34-.36 3.204-.168.852-.462 1.53-.882 2.034-.408.492-.972.738-1.692.738-.336 0-.75-.066-1.242-.198l.108-1.89c.168.036.312.054.432.054.456 0 .798-.18 1.026-.54.228-.372.372-.81.432-1.314.072-.516.132-1.248.18-2.196l.162-3.708h7.776zm12.102 0l-4.5 10.386c-.42 1.044-.93 1.776-1.53 2.196-.6.432-1.326.648-2.178.648a4.47 4.47 0 01-1.422-.234c-.468-.156-.852-.372-1.152-.648l.9-1.656c.216.204.468.366.756.486.3.12.6.18.9.18.396 0 .72-.102.972-.306.264-.204.504-.546.72-1.026l.162-.378-4.194-9.648h2.34l3.024 7.11 3.042-7.11h2.16zm9.717 0V35h-2.25v-3.726a6.612 6.612 0 01-2.898.666c-1.236 0-2.184-.282-2.844-.846-.66-.576-.99-1.452-.99-2.628v-3.078h2.25v2.934c0 .612.18 1.068.54 1.368.36.3.87.45 1.53.45.84 0 1.644-.18 2.412-.54v-4.212h2.25zm3.025 0h2.25v6.336l5.31-6.336h2.052V35h-2.25v-6.336L95.03 35h-2.07v-9.612zm20.253 1.908h-3.366V35h-2.25v-7.704h-3.384v-1.908h9v1.908zm10.21 2.952c0 .156-.012.378-.036.666h-7.542c.132.708.474 1.272 1.026 1.692.564.408 1.26.612 2.088.612 1.056 0 1.926-.348 2.61-1.044l1.206 1.386a4.063 4.063 0 01-1.638 1.17c-.66.264-1.404.396-2.232.396-1.056 0-1.986-.21-2.79-.63a4.617 4.617 0 01-1.872-1.746c-.432-.756-.648-1.608-.648-2.556 0-.936.21-1.776.63-2.52a4.578 4.578 0 011.782-1.764c.756-.42 1.608-.63 2.556-.63.936 0 1.77.21 2.502.63a4.25 4.25 0 011.728 1.746c.42.744.63 1.608.63 2.592zm-4.86-3.168c-.72 0-1.332.216-1.836.648-.492.42-.792.984-.9 1.692h5.454c-.096-.696-.39-1.26-.882-1.692-.492-.432-1.104-.648-1.836-.648zm12.296-1.692h2.25v6.336l5.31-6.336h2.052V35h-2.25v-6.336L132.929 35h-2.07v-9.612zm12.638 0h2.25v3.906h4.842v-3.906h2.25V35h-2.25v-3.798h-4.842V35h-2.25v-9.612zm25.066 4.788c0 1.488-.498 2.658-1.494 3.51-.984.852-2.394 1.338-4.23 1.458v3.348h-2.124v-3.33c-1.836-.12-3.246-.606-4.23-1.458-.984-.852-1.476-2.028-1.476-3.528 0-1.488.492-2.646 1.476-3.474.984-.84 2.394-1.32 4.23-1.44v-3.618h2.124v3.618c1.836.12 3.246.6 4.23 1.44.996.84 1.494 1.998 1.494 3.474zm-11.34 0c0 .924.282 1.644.846 2.16.576.516 1.458.828 2.646.936V27.17c-1.188.096-2.07.396-2.646.9-.564.504-.846 1.206-.846 2.106zm5.616 3.096c2.352-.216 3.528-1.248 3.528-3.096 0-.912-.294-1.614-.882-2.106-.576-.504-1.458-.804-2.646-.9v6.102zm12.188 1.854c-.972 0-1.848-.21-2.628-.63a4.676 4.676 0 01-1.836-1.746c-.432-.756-.648-1.608-.648-2.556s.216-1.794.648-2.538a4.676 4.676 0 011.836-1.746c.78-.42 1.656-.63 2.628-.63.984 0 1.866.21 2.646.63a4.55 4.55 0 011.818 1.746c.444.744.666 1.59.666 2.538 0 .948-.222 1.8-.666 2.556a4.55 4.55 0 01-1.818 1.746c-.78.42-1.662.63-2.646.63zm0-1.926c.828 0 1.512-.276 2.052-.828.54-.552.81-1.278.81-2.178 0-.9-.27-1.626-.81-2.178s-1.224-.828-2.052-.828c-.828 0-1.512.276-2.052.828-.528.552-.792 1.278-.792 2.178 0 .9.264 1.626.792 2.178.54.552 1.224.828 2.052.828zm12.681-7.92c.936 0 1.77.204 2.502.612a4.397 4.397 0 011.746 1.728c.42.744.63 1.602.63 2.574 0 .972-.21 1.836-.63 2.592a4.397 4.397 0 01-1.746 1.728c-.732.408-1.566.612-2.502.612-1.296 0-2.322-.432-3.078-1.296v4.662h-2.25V25.388h2.142v1.26a3.495 3.495 0 011.368-1.026 4.717 4.717 0 011.818-.342zm-.252 7.92c.828 0 1.506-.276 2.034-.828.54-.552.81-1.278.81-2.178 0-.9-.27-1.626-.81-2.178-.528-.552-1.206-.828-2.034-.828a2.84 2.84 0 00-1.458.378c-.432.24-.774.588-1.026 1.044-.252.456-.378.984-.378 1.584 0 .6.126 1.128.378 1.584.252.456.594.81 1.026 1.062.432.24.918.36 1.458.36zm16.819 1.8v-6.372l-3.24 5.364h-.972l-3.186-5.382V35h-2.052v-9.612h2.358l3.42 6.012 3.582-6.012h2.106l.018 9.612h-2.034zm8.634-9.72c1.416 0 2.496.342 3.24 1.026.756.672 1.134 1.692 1.134 3.06V35h-2.124v-1.17c-.276.42-.672.744-1.188.972-.504.216-1.116.324-1.836.324s-1.35-.12-1.89-.36c-.54-.252-.96-.594-1.26-1.026a2.686 2.686 0 01-.432-1.494c0-.864.318-1.554.954-2.07.648-.528 1.662-.792 3.042-.792h2.484v-.144c0-.672-.204-1.188-.612-1.548-.396-.36-.99-.54-1.782-.54-.54 0-1.074.084-1.602.252a3.925 3.925 0 00-1.314.702l-.882-1.638c.504-.384 1.11-.678 1.818-.882a8.089 8.089 0 012.25-.306zm-.306 8.208c.564 0 1.062-.126 1.494-.378.444-.264.756-.636.936-1.116v-1.116h-2.322c-1.296 0-1.944.426-1.944 1.278 0 .408.162.732.486.972.324.24.774.36 1.35.36zm18.013-.396v4.122h-2.106V35h-8.442v-9.612h2.25v7.704h4.59v-7.704h2.25v7.704h1.458zm2.002-7.704h2.25v6.336l5.31-6.336h2.052V35h-2.25v-6.336L234.688 35h-2.07v-9.612zm21.423-.108c.96 0 1.818.21 2.574.63.756.408 1.35.99 1.782 1.746.432.744.648 1.59.648 2.538 0 .948-.216 1.8-.648 2.556a4.614 4.614 0 01-1.782 1.746c-.756.42-1.614.63-2.574.63-.84 0-1.608-.162-2.304-.486a4.705 4.705 0 01-1.728-1.404 4.775 4.775 0 01-.882-2.088h-1.62V35h-2.25v-9.612h2.25v3.726h1.656a4.533 4.533 0 01.9-1.998 4.488 4.488 0 011.71-1.35c.684-.324 1.44-.486 2.268-.486zm0 7.938c.528 0 1.002-.12 1.422-.36.42-.252.75-.606.99-1.062.24-.468.36-1.002.36-1.602 0-.912-.264-1.638-.792-2.178-.516-.552-1.176-.828-1.98-.828s-1.464.276-1.98.828c-.516.54-.774 1.266-.774 2.178 0 .912.258 1.644.774 2.196.528.552 1.188.828 1.98.828zm16.471 1.908c-.972 0-1.848-.21-2.628-.63a4.676 4.676 0 01-1.836-1.746c-.432-.756-.648-1.608-.648-2.556s.216-1.794.648-2.538a4.676 4.676 0 011.836-1.746c.78-.42 1.656-.63 2.628-.63.984 0 1.866.21 2.646.63a4.55 4.55 0 011.818 1.746c.444.744.666 1.59.666 2.538 0 .948-.222 1.8-.666 2.556a4.55 4.55 0 01-1.818 1.746c-.78.42-1.662.63-2.646.63zm0-1.926c.828 0 1.512-.276 2.052-.828.54-.552.81-1.278.81-2.178 0-.9-.27-1.626-.81-2.178s-1.224-.828-2.052-.828c-.828 0-1.512.276-2.052.828-.528.552-.792 1.278-.792 2.178 0 .9.264 1.626.792 2.178.54.552 1.224.828 2.052.828zM46.472 53.148h-1.746V57h-2.25v-9.612h2.25v3.888h1.8l2.844-3.888h2.412l-3.492 4.626L52.016 57H49.37l-2.898-3.852zm11.098 3.978c-.972 0-1.848-.21-2.628-.63a4.676 4.676 0 01-1.836-1.746c-.432-.756-.648-1.608-.648-2.556s.216-1.794.648-2.538a4.676 4.676 0 011.836-1.746c.78-.42 1.656-.63 2.628-.63.984 0 1.866.21 2.646.63a4.55 4.55 0 011.818 1.746c.444.744.666 1.59.666 2.538 0 .948-.222 1.8-.666 2.556a4.55 4.55 0 01-1.818 1.746c-.78.42-1.662.63-2.646.63zm0-1.926c.828 0 1.512-.276 2.052-.828.54-.552.81-1.278.81-2.178 0-.9-.27-1.626-.81-2.178s-1.224-.828-2.052-.828c-.828 0-1.512.276-2.052.828-.528.552-.792 1.278-.792 2.178 0 .9.264 1.626.792 2.178.54.552 1.224.828 2.052.828zm15.96-7.812V57h-2.25v-7.704h-3.6l-.09 1.908c-.06 1.272-.18 2.34-.36 3.204-.168.852-.462 1.53-.882 2.034-.408.492-.972.738-1.692.738-.336 0-.75-.066-1.242-.198l.108-1.89c.168.036.312.054.432.054.456 0 .798-.18 1.026-.54.228-.372.372-.81.432-1.314.072-.516.132-1.248.18-2.196l.162-3.708h7.776zm3.03 0h2.25v6.336l5.31-6.336h2.052V57h-2.25v-6.336L78.63 57h-2.07v-9.612zm20.793 0V57h-2.25v-3.726a6.612 6.612 0 01-2.898.666c-1.236 0-2.184-.282-2.844-.846-.66-.576-.99-1.452-.99-2.628v-3.078h2.25v2.934c0 .612.18 1.068.54 1.368.36.3.87.45 1.53.45.84 0 1.644-.18 2.412-.54v-4.212h2.25zm12.025 4.86c0 .156-.012.378-.036.666H101.8c.132.708.474 1.272 1.026 1.692.564.408 1.26.612 2.088.612 1.056 0 1.926-.348 2.61-1.044l1.206 1.386a4.063 4.063 0 01-1.638 1.17c-.66.264-1.404.396-2.232.396-1.056 0-1.986-.21-2.79-.63a4.617 4.617 0 01-1.872-1.746c-.432-.756-.648-1.608-.648-2.556 0-.936.21-1.776.63-2.52a4.578 4.578 0 011.782-1.764c.756-.42 1.608-.63 2.556-.63.936 0 1.77.21 2.502.63a4.25 4.25 0 011.728 1.746c.42.744.63 1.608.63 2.592zm-4.86-3.168c-.72 0-1.332.216-1.836.648-.492.42-.792.984-.9 1.692h5.454c-.096-.696-.39-1.26-.882-1.692-.492-.432-1.104-.648-1.836-.648zm11.695 8.046c-.996 0-1.89-.21-2.682-.63a4.645 4.645 0 01-1.854-1.746c-.444-.756-.666-1.608-.666-2.556s.222-1.794.666-2.538a4.676 4.676 0 011.836-1.746c.792-.42 1.692-.63 2.7-.63.948 0 1.776.192 2.484.576.72.384 1.26.936 1.62 1.656l-1.728 1.008a2.656 2.656 0 00-1.044-.99 2.72 2.72 0 00-1.35-.342c-.84 0-1.536.276-2.088.828-.552.54-.828 1.266-.828 2.178 0 .912.27 1.644.81 2.196.552.54 1.254.81 2.106.81a2.84 2.84 0 001.35-.324c.42-.228.768-.564 1.044-1.008l1.728 1.008a3.936 3.936 0 01-1.638 1.674c-.708.384-1.53.576-2.466.576zm13.611-7.83h-3.366V57h-2.25v-7.704h-3.384v-1.908h9v1.908zm8.598 2.7c1.188.36 1.782 1.128 1.782 2.304 0 .864-.324 1.53-.972 1.998-.648.468-1.608.702-2.88.702h-4.896v-9.612h4.698c1.176 0 2.094.216 2.754.648.66.432.99 1.044.99 1.836 0 .492-.132.918-.396 1.278-.252.36-.612.642-1.08.846zm-4.824-.594h2.358c1.164 0 1.746-.402 1.746-1.206 0-.78-.582-1.17-1.746-1.17h-2.358v2.376zm2.574 3.96c1.236 0 1.854-.402 1.854-1.206 0-.42-.144-.732-.432-.936-.288-.216-.738-.324-1.35-.324h-2.646v2.466h2.574zm15.429-3.114c0 .156-.012.378-.036.666h-7.542c.132.708.474 1.272 1.026 1.692.564.408 1.26.612 2.088.612 1.056 0 1.926-.348 2.61-1.044l1.206 1.386a4.063 4.063 0 01-1.638 1.17c-.66.264-1.404.396-2.232.396-1.056 0-1.986-.21-2.79-.63a4.617 4.617 0 01-1.872-1.746c-.432-.756-.648-1.608-.648-2.556 0-.936.21-1.776.63-2.52a4.578 4.578 0 011.782-1.764c.756-.42 1.608-.63 2.556-.63.936 0 1.77.21 2.502.63a4.25 4.25 0 011.728 1.746c.42.744.63 1.608.63 2.592zm-4.86-3.168c-.72 0-1.332.216-1.836.648-.492.42-.792.984-.9 1.692h5.454c-.096-.696-.39-1.26-.882-1.692-.492-.432-1.104-.648-1.836-.648zm17.623-1.8c.936 0 1.77.204 2.502.612a4.397 4.397 0 011.746 1.728c.42.744.63 1.602.63 2.574 0 .972-.21 1.836-.63 2.592a4.397 4.397 0 01-1.746 1.728c-.732.408-1.566.612-2.502.612-1.296 0-2.322-.432-3.078-1.296v4.662h-2.25V47.388h2.142v1.26a3.495 3.495 0 011.368-1.026 4.717 4.717 0 011.818-.342zm-.252 7.92c.828 0 1.506-.276 2.034-.828.54-.552.81-1.278.81-2.178 0-.9-.27-1.626-.81-2.178-.528-.552-1.206-.828-2.034-.828a2.84 2.84 0 00-1.458.378c-.432.24-.774.588-1.026 1.044-.252.456-.378.984-.378 1.584 0 .6.126 1.128.378 1.584.252.456.594.81 1.026 1.062.432.24.918.36 1.458.36zm16.37-2.952c0 .156-.012.378-.036.666h-7.542c.132.708.474 1.272 1.026 1.692.564.408 1.26.612 2.088.612 1.056 0 1.926-.348 2.61-1.044l1.206 1.386a4.063 4.063 0 01-1.638 1.17c-.66.264-1.404.396-2.232.396-1.056 0-1.986-.21-2.79-.63a4.617 4.617 0 01-1.872-1.746c-.432-.756-.648-1.608-.648-2.556 0-.936.21-1.776.63-2.52a4.578 4.578 0 011.782-1.764c.756-.42 1.608-.63 2.556-.63.936 0 1.77.21 2.502.63a4.25 4.25 0 011.728 1.746c.42.744.63 1.608.63 2.592zm-4.86-3.168c-.72 0-1.332.216-1.836.648-.492.42-.792.984-.9 1.692h5.454c-.096-.696-.39-1.26-.882-1.692-.492-.432-1.104-.648-1.836-.648zm11.317 4.068h-1.746V57h-2.25v-9.612h2.25v3.888h1.8l2.844-3.888h2.412l-3.492 4.626L192.483 57h-2.646l-2.898-3.852zm15.843-5.76V57h-2.25v-7.704h-3.6l-.09 1.908c-.06 1.272-.18 2.34-.36 3.204-.168.852-.462 1.53-.882 2.034-.408.492-.972.738-1.692.738-.336 0-.75-.066-1.242-.198l.108-1.89c.168.036.312.054.432.054.456 0 .798-.18 1.026-.54.228-.372.372-.81.432-1.314.072-.516.132-1.248.18-2.196l.162-3.708h7.776zm6.612-.108c1.416 0 2.496.342 3.24 1.026.756.672 1.134 1.692 1.134 3.06V57h-2.124v-1.17c-.276.42-.672.744-1.188.972-.504.216-1.116.324-1.836.324s-1.35-.12-1.89-.36c-.54-.252-.96-.594-1.26-1.026a2.686 2.686 0 01-.432-1.494c0-.864.318-1.554.954-2.07.648-.528 1.662-.792 3.042-.792h2.484v-.144c0-.672-.204-1.188-.612-1.548-.396-.36-.99-.54-1.782-.54-.54 0-1.074.084-1.602.252a3.925 3.925 0 00-1.314.702l-.882-1.638c.504-.384 1.11-.678 1.818-.882a8.089 8.089 0 012.25-.306zm-.306 8.208c.564 0 1.062-.126 1.494-.378.444-.264.756-.636.936-1.116v-1.116h-2.322c-1.296 0-1.944.426-1.944 1.278 0 .408.162.732.486.972.324.24.774.36 1.35.36zM226.002 57v-6.372l-3.24 5.364h-.972l-3.186-5.382V57h-2.052v-9.612h2.358l3.42 6.012 3.582-6.012h2.106l.018 9.612h-2.034zm5.052-9.612h2.25v3.906h4.842v-3.906h2.25V57h-2.25v-3.798h-4.842V57h-2.25v-9.612zm17.037 3.168c1.224 0 2.16.276 2.808.828.648.552.972 1.332.972 2.34 0 1.056-.36 1.872-1.08 2.448-.708.576-1.716.858-3.024.846L243.411 57v-9.612h2.25v3.15l2.43.018zm5.022-3.168h2.25V57h-2.25v-9.612zm-5.544 7.974c.66.012 1.164-.126 1.512-.414.348-.288.522-.708.522-1.26 0-.54-.168-.936-.504-1.188-.336-.252-.846-.384-1.53-.396l-1.908-.018v3.258l1.908.018zM264.4 57l-2.466-3.33L259.45 57h-2.484l3.744-4.878-3.582-4.734h2.502l2.358 3.15 2.358-3.15h2.43l-3.6 4.698L266.938 57H264.4zM45.918 69.388V79h-2.233v-7.704h-4.733V79h-2.25v-9.612h9.215zm7.32 9.738c-.973 0-1.849-.21-2.629-.63a4.676 4.676 0 01-1.836-1.746c-.432-.756-.648-1.608-.648-2.556s.216-1.794.648-2.538a4.676 4.676 0 011.836-1.746c.78-.42 1.656-.63 2.628-.63.984 0 1.866.21 2.646.63a4.55 4.55 0 011.818 1.746c.444.744.666 1.59.666 2.538 0 .948-.222 1.8-.666 2.556a4.55 4.55 0 01-1.818 1.746c-.78.42-1.662.63-2.646.63zm0-1.926c.827 0 1.511-.276 2.051-.828.54-.552.81-1.278.81-2.178 0-.9-.27-1.626-.81-2.178s-1.224-.828-2.052-.828c-.828 0-1.512.276-2.052.828-.528.552-.792 1.278-.792 2.178 0 .9.264 1.626.792 2.178.54.552 1.224.828 2.052.828zm11.726 1.926c-.996 0-1.89-.21-2.682-.63a4.645 4.645 0 01-1.854-1.746c-.444-.756-.666-1.608-.666-2.556s.222-1.794.666-2.538a4.676 4.676 0 011.836-1.746c.792-.42 1.692-.63 2.7-.63.948 0 1.776.192 2.484.576.72.384 1.26.936 1.62 1.656L67.34 72.52a2.656 2.656 0 00-1.044-.99 2.72 2.72 0 00-1.35-.342c-.84 0-1.536.276-2.088.828-.552.54-.828 1.266-.828 2.178 0 .912.27 1.644.81 2.196.552.54 1.254.81 2.106.81a2.84 2.84 0 001.35-.324c.42-.228.768-.564 1.044-1.008l1.728 1.008a3.936 3.936 0 01-1.638 1.674c-.708.384-1.53.576-2.466.576zm13.611-7.83H75.21V79h-2.25v-7.704h-3.384v-1.908h9v1.908zm5.494 7.83c-.972 0-1.848-.21-2.628-.63a4.676 4.676 0 01-1.836-1.746c-.432-.756-.648-1.608-.648-2.556s.216-1.794.648-2.538a4.676 4.676 0 011.836-1.746c.78-.42 1.656-.63 2.628-.63.984 0 1.866.21 2.646.63a4.55 4.55 0 011.818 1.746c.444.744.666 1.59.666 2.538 0 .948-.222 1.8-.666 2.556a4.55 4.55 0 01-1.818 1.746c-.78.42-1.662.63-2.646.63zm0-1.926c.828 0 1.512-.276 2.052-.828.54-.552.81-1.278.81-2.178 0-.9-.27-1.626-.81-2.178s-1.224-.828-2.052-.828c-.828 0-1.512.276-2.052.828-.528.552-.792 1.278-.792 2.178 0 .9.264 1.626.792 2.178.54.552 1.224.828 2.052.828zm14.32-3.204c1.187.36 1.781 1.128 1.781 2.304 0 .864-.324 1.53-.972 1.998-.648.468-1.608.702-2.88.702h-4.896v-9.612h4.698c1.176 0 2.094.216 2.754.648.66.432.99 1.044.99 1.836 0 .492-.132.918-.396 1.278-.252.36-.612.642-1.08.846zm-4.825-.594h2.358c1.164 0 1.746-.402 1.746-1.206 0-.78-.582-1.17-1.746-1.17h-2.358v2.376zm2.574 3.96c1.236 0 1.854-.402 1.854-1.206 0-.42-.144-.732-.432-.936-.288-.216-.738-.324-1.35-.324h-2.646v2.466h2.574zm7.131-1.224c.42 0 .768.138 1.044.414.276.276.414.636.414 1.08 0 .192-.03.396-.09.612a7.4 7.4 0 01-.324.936l-.918 2.538h-1.458l.72-2.754a1.376 1.376 0 01-.63-.504 1.578 1.578 0 01-.216-.828c0-.444.138-.804.414-1.08.276-.276.624-.414 1.044-.414zm8.667-6.75h2.25v6.336l5.31-6.336h2.052V79h-2.25v-6.336L114.006 79h-2.07v-9.612zm17.013 9.738c-.996 0-1.89-.21-2.682-.63a4.645 4.645 0 01-1.854-1.746c-.444-.756-.666-1.608-.666-2.556s.222-1.794.666-2.538a4.676 4.676 0 011.836-1.746c.792-.42 1.692-.63 2.7-.63.948 0 1.776.192 2.484.576.72.384 1.26.936 1.62 1.656l-1.728 1.008a2.656 2.656 0 00-1.044-.99 2.72 2.72 0 00-1.35-.342c-.84 0-1.536.276-2.088.828-.552.54-.828 1.266-.828 2.178 0 .912.27 1.644.81 2.196.552.54 1.254.81 2.106.81a2.84 2.84 0 001.35-.324c.42-.228.768-.564 1.044-1.008l1.728 1.008a3.936 3.936 0 01-1.638 1.674c-.708.384-1.53.576-2.466.576zm15.3-9.738V79h-2.232v-7.704h-4.734V79h-2.25v-9.612h9.216zm7.32 9.738c-.972 0-1.848-.21-2.628-.63a4.676 4.676 0 01-1.836-1.746c-.432-.756-.648-1.608-.648-2.556s.216-1.794.648-2.538a4.676 4.676 0 011.836-1.746c.78-.42 1.656-.63 2.628-.63.984 0 1.866.21 2.646.63a4.55 4.55 0 011.818 1.746c.444.744.666 1.59.666 2.538 0 .948-.222 1.8-.666 2.556a4.55 4.55 0 01-1.818 1.746c-.78.42-1.662.63-2.646.63zm0-1.926c.828 0 1.512-.276 2.052-.828.54-.552.81-1.278.81-2.178 0-.9-.27-1.626-.81-2.178s-1.224-.828-2.052-.828c-.828 0-1.512.276-2.052.828-.528.552-.792 1.278-.792 2.178 0 .9.264 1.626.792 2.178.54.552 1.224.828 2.052.828zm15.96-7.812V79h-2.25v-7.704h-3.6l-.09 1.908c-.06 1.272-.18 2.34-.36 3.204-.168.852-.462 1.53-.882 2.034-.408.492-.972.738-1.692.738-.336 0-.75-.066-1.242-.198l.108-1.89c.168.036.312.054.432.054.456 0 .798-.18 1.026-.54.228-.372.372-.81.432-1.314.072-.516.132-1.248.18-2.196l.162-3.708h7.776zm7.854 3.168c1.224 0 2.16.276 2.808.828.66.552.99 1.332.99 2.34 0 1.056-.36 1.872-1.08 2.448-.72.576-1.734.858-3.042.846l-4.5-.018v-9.612h2.25v3.15l2.574.018zm-.522 4.806c.66.012 1.164-.126 1.512-.414.348-.288.522-.708.522-1.26 0-.54-.168-.936-.504-1.188-.336-.252-.846-.384-1.53-.396l-2.052-.018v3.258l2.052.018zm11.864-3.366c.6.168 1.062.444 1.386.828.336.372.504.822.504 1.35a2.32 2.32 0 01-.594 1.566c-.396.444-.942.792-1.638 1.044s-1.488.378-2.376.378c-.744 0-1.47-.084-2.178-.252a7.858 7.858 0 01-1.926-.756l.648-1.674c.468.264.996.468 1.584.612a7.392 7.392 0 001.764.216c.756 0 1.344-.114 1.764-.342.432-.24.648-.564.648-.972 0-.372-.168-.66-.504-.864-.324-.204-.786-.306-1.386-.306h-1.872v-1.512h1.692c.564 0 1.002-.096 1.314-.288.324-.192.486-.462.486-.81 0-.348-.192-.624-.576-.828-.384-.204-.912-.306-1.584-.306-.96 0-1.974.234-3.042.702l-.576-1.656c1.26-.588 2.532-.882 3.816-.882.816 0 1.548.114 2.196.342.648.216 1.152.528 1.512.936.372.396.558.852.558 1.368 0 .468-.144.888-.432 1.26-.288.36-.684.642-1.188.846zm8.509 5.13c-.972 0-1.848-.21-2.628-.63a4.676 4.676 0 01-1.836-1.746c-.432-.756-.648-1.608-.648-2.556s.216-1.794.648-2.538a4.676 4.676 0 011.836-1.746c.78-.42 1.656-.63 2.628-.63.984 0 1.866.21 2.646.63a4.55 4.55 0 011.818 1.746c.444.744.666 1.59.666 2.538 0 .948-.222 1.8-.666 2.556a4.55 4.55 0 01-1.818 1.746c-.78.42-1.662.63-2.646.63zm0-1.926c.828 0 1.512-.276 2.052-.828.54-.552.81-1.278.81-2.178 0-.9-.27-1.626-.81-2.178s-1.224-.828-2.052-.828c-.828 0-1.512.276-2.052.828-.528.552-.792 1.278-.792 2.178 0 .9.264 1.626.792 2.178.54.552 1.224.828 2.052.828zm14.318-3.204c1.188.36 1.782 1.128 1.782 2.304 0 .864-.324 1.53-.972 1.998-.648.468-1.608.702-2.88.702h-4.896v-9.612h4.698c1.176 0 2.094.216 2.754.648.66.432.99 1.044.99 1.836 0 .492-.132.918-.396 1.278-.252.36-.612.642-1.08.846zm-4.824-.594h2.358c1.164 0 1.746-.402 1.746-1.206 0-.78-.582-1.17-1.746-1.17h-2.358v2.376zm2.574 3.96c1.236 0 1.854-.402 1.854-1.206 0-.42-.144-.732-.432-.936-.288-.216-.738-.324-1.35-.324h-2.646v2.466h2.574zm10.011-8.082c1.416 0 2.496.342 3.24 1.026.756.672 1.134 1.692 1.134 3.06V79h-2.124v-1.17c-.276.42-.672.744-1.188.972-.504.216-1.116.324-1.836.324s-1.35-.12-1.89-.36c-.54-.252-.96-.594-1.26-1.026a2.686 2.686 0 01-.432-1.494c0-.864.318-1.554.954-2.07.648-.528 1.662-.792 3.042-.792h2.484v-.144c0-.672-.204-1.188-.612-1.548-.396-.36-.99-.54-1.782-.54-.54 0-1.074.084-1.602.252a3.925 3.925 0 00-1.314.702l-.882-1.638c.504-.384 1.11-.678 1.818-.882a8.089 8.089 0 012.25-.306zm-.306 8.208c.564 0 1.062-.126 1.494-.378.444-.264.756-.636.936-1.116v-1.116h-2.322c-1.296 0-1.944.426-1.944 1.278 0 .408.162.732.486.972.324.24.774.36 1.35.36zm7.464-8.1h2.25v3.906h4.842v-3.906h2.25V79h-2.25v-3.798h-4.842V79h-2.25v-9.612zm12.357 0h2.25v3.906h4.842v-3.906h2.25V79h-2.25v-3.798h-4.842V79h-2.25v-9.612zm17.038 3.168c1.224 0 2.16.276 2.808.828.648.552.972 1.332.972 2.34 0 1.056-.36 1.872-1.08 2.448-.708.576-1.716.858-3.024.846L249.186 79v-9.612h2.25v3.15l2.43.018zm5.022-3.168h2.25V79h-2.25v-9.612zm-5.544 7.974c.66.012 1.164-.126 1.512-.414.348-.288.522-.708.522-1.26 0-.54-.168-.936-.504-1.188-.336-.252-.846-.384-1.53-.396l-1.908-.018v3.258l1.908.018zM270.174 79l-2.466-3.33-2.484 3.33h-2.484l3.744-4.878-3.582-4.734h2.502l2.358 3.15 2.358-3.15h2.43l-3.6 4.698L272.712 79h-2.538zM62.784 91.388V101h-2.232v-7.704h-4.734V101h-2.25v-9.612h9.216zm8.364-.108c.936 0 1.77.204 2.502.612a4.397 4.397 0 011.746 1.728c.42.744.63 1.602.63 2.574 0 .972-.21 1.836-.63 2.592a4.397 4.397 0 01-1.746 1.728c-.732.408-1.566.612-2.502.612-1.296 0-2.322-.432-3.078-1.296v4.662h-2.25V91.388h2.142v1.26a3.495 3.495 0 011.368-1.026 4.717 4.717 0 011.818-.342zm-.252 7.92c.828 0 1.506-.276 2.034-.828.54-.552.81-1.278.81-2.178 0-.9-.27-1.626-.81-2.178-.528-.552-1.206-.828-2.034-.828a2.84 2.84 0 00-1.458.378c-.432.24-.774.588-1.026 1.044-.252.456-.378.984-.378 1.584 0 .6.126 1.128.378 1.584.252.456.594.81 1.026 1.062.432.24.918.36 1.458.36zm11.653 1.926c-.972 0-1.848-.21-2.628-.63a4.676 4.676 0 01-1.836-1.746c-.432-.756-.648-1.608-.648-2.556s.216-1.794.648-2.538a4.676 4.676 0 011.836-1.746c.78-.42 1.656-.63 2.628-.63.984 0 1.866.21 2.646.63a4.55 4.55 0 011.818 1.746c.444.744.666 1.59.666 2.538 0 .948-.222 1.8-.666 2.556a4.55 4.55 0 01-1.818 1.746c-.78.42-1.662.63-2.646.63zm0-1.926c.828 0 1.512-.276 2.052-.828.54-.552.81-1.278.81-2.178 0-.9-.27-1.626-.81-2.178s-1.224-.828-2.052-.828c-.828 0-1.512.276-2.052.828-.528.552-.792 1.278-.792 2.178 0 .9.264 1.626.792 2.178.54.552 1.224.828 2.052.828zm16.803 1.8v-6.372l-3.24 5.364h-.972l-3.186-5.382V101h-2.052v-9.612h2.358l3.42 6.012 3.582-6.012h2.106l.018 9.612h-2.034zm9.336.126c-.972 0-1.848-.21-2.628-.63a4.676 4.676 0 01-1.836-1.746c-.432-.756-.648-1.608-.648-2.556s.216-1.794.648-2.538a4.676 4.676 0 011.836-1.746c.78-.42 1.656-.63 2.628-.63.984 0 1.866.21 2.646.63a4.55 4.55 0 011.818 1.746c.444.744.666 1.59.666 2.538 0 .948-.222 1.8-.666 2.556a4.55 4.55 0 01-1.818 1.746c-.78.42-1.662.63-2.646.63zm0-1.926c.828 0 1.512-.276 2.052-.828.54-.552.81-1.278.81-2.178 0-.9-.27-1.626-.81-2.178s-1.224-.828-2.052-.828c-.828 0-1.512.276-2.052.828-.528.552-.792 1.278-.792 2.178 0 .9.264 1.626.792 2.178.54.552 1.224.828 2.052.828zm11.348-2.052h-1.746V101h-2.25v-9.612h2.25v3.888h1.8l2.844-3.888h2.412l-3.492 4.626L125.58 101h-2.646l-2.898-3.852zm11.099 3.978c-.972 0-1.848-.21-2.628-.63a4.676 4.676 0 01-1.836-1.746c-.432-.756-.648-1.608-.648-2.556s.216-1.794.648-2.538a4.676 4.676 0 011.836-1.746c.78-.42 1.656-.63 2.628-.63.984 0 1.866.21 2.646.63a4.55 4.55 0 011.818 1.746c.444.744.666 1.59.666 2.538 0 .948-.222 1.8-.666 2.556a4.55 4.55 0 01-1.818 1.746c-.78.42-1.662.63-2.646.63zm0-1.926c.828 0 1.512-.276 2.052-.828.54-.552.81-1.278.81-2.178 0-.9-.27-1.626-.81-2.178s-1.224-.828-2.052-.828c-.828 0-1.512.276-2.052.828-.528.552-.792 1.278-.792 2.178 0 .9.264 1.626.792 2.178.54.552 1.224.828 2.052.828zm17.507-.108v4.05h-2.106V101h-7.416v2.142h-2.088v-4.05h.45c.612-.024 1.026-.414 1.242-1.17.228-.768.378-1.848.45-3.24l.126-3.294h7.92v7.704h1.422zm-7.416-4.248c-.048 1.104-.138 2.004-.27 2.7-.132.696-.372 1.212-.72 1.548h4.734v-5.796h-3.69l-.054 1.548zm13.71 6.282c-.972 0-1.848-.21-2.628-.63a4.676 4.676 0 01-1.836-1.746c-.432-.756-.648-1.608-.648-2.556s.216-1.794.648-2.538a4.676 4.676 0 011.836-1.746c.78-.42 1.656-.63 2.628-.63.984 0 1.866.21 2.646.63a4.55 4.55 0 011.818 1.746c.444.744.666 1.59.666 2.538 0 .948-.222 1.8-.666 2.556a4.55 4.55 0 01-1.818 1.746c-.78.42-1.662.63-2.646.63zm0-1.926c.828 0 1.512-.276 2.052-.828.54-.552.81-1.278.81-2.178 0-.9-.27-1.626-.81-2.178s-1.224-.828-2.052-.828c-.828 0-1.512.276-2.052.828-.528.552-.792 1.278-.792 2.178 0 .9.264 1.626.792 2.178.54.552 1.224.828 2.052.828zm14.318-3.204c1.188.36 1.782 1.128 1.782 2.304 0 .864-.324 1.53-.972 1.998-.648.468-1.608.702-2.88.702h-4.896v-9.612h4.698c1.176 0 2.094.216 2.754.648.66.432.99 1.044.99 1.836 0 .492-.132.918-.396 1.278-.252.36-.612.642-1.08.846zm-4.824-.594h2.358c1.164 0 1.746-.402 1.746-1.206 0-.78-.582-1.17-1.746-1.17h-2.358v2.376zm2.574 3.96c1.236 0 1.854-.402 1.854-1.206 0-.42-.144-.732-.432-.936-.288-.216-.738-.324-1.35-.324h-2.646v2.466h2.574zm11.404-7.974h2.25v6.336l5.31-6.336h2.052V101h-2.25v-6.336L180.478 101h-2.07v-9.612zm21.987 9.738c-.996 0-1.89-.21-2.682-.63a4.645 4.645 0 01-1.854-1.746c-.444-.756-.666-1.608-.666-2.556s.222-1.794.666-2.538a4.676 4.676 0 011.836-1.746c.792-.42 1.692-.63 2.7-.63.948 0 1.776.192 2.484.576.72.384 1.26.936 1.62 1.656l-1.728 1.008a2.656 2.656 0 00-1.044-.99 2.72 2.72 0 00-1.35-.342c-.84 0-1.536.276-2.088.828-.552.54-.828 1.266-.828 2.178 0 .912.27 1.644.81 2.196.552.54 1.254.81 2.106.81a2.84 2.84 0 001.35-.324c.42-.228.768-.564 1.044-1.008l1.728 1.008a3.936 3.936 0 01-1.638 1.674c-.708.384-1.53.576-2.466.576zm15.034-9.738l-4.5 10.386c-.42 1.044-.93 1.776-1.53 2.196-.6.432-1.326.648-2.178.648a4.47 4.47 0 01-1.422-.234c-.468-.156-.852-.372-1.152-.648l.9-1.656c.216.204.468.366.756.486.3.12.6.18.9.18.396 0 .72-.102.972-.306.264-.204.504-.546.72-1.026l.162-.378-4.194-9.648h2.34l3.024 7.11 3.042-7.11h2.16zM226.441 101v-6.372l-3.24 5.364h-.972l-3.186-5.382V101h-2.052v-9.612h2.358l3.42 6.012 3.582-6.012h2.106l.018 9.612h-2.034zm14.502 0v-6.372l-3.24 5.364h-.972l-3.186-5.382V101h-2.052v-9.612h2.358l3.42 6.012 3.582-6.012h2.106l.018 9.612h-2.034zm14.052-4.752c0 .156-.012.378-.036.666h-7.542c.132.708.474 1.272 1.026 1.692.564.408 1.26.612 2.088.612 1.056 0 1.926-.348 2.61-1.044l1.206 1.386a4.063 4.063 0 01-1.638 1.17c-.66.264-1.404.396-2.232.396-1.056 0-1.986-.21-2.79-.63a4.617 4.617 0 01-1.872-1.746c-.432-.756-.648-1.608-.648-2.556 0-.936.21-1.776.63-2.52a4.578 4.578 0 011.782-1.764c.756-.42 1.608-.63 2.556-.63.936 0 1.77.21 2.502.63a4.25 4.25 0 011.728 1.746c.42.744.63 1.608.63 2.592zm-4.86-3.168c-.72 0-1.332.216-1.836.648-.492.42-.792.984-.9 1.692h5.454c-.096-.696-.39-1.26-.882-1.692-.492-.432-1.104-.648-1.836-.648zM27.302 113.388V123H25.07v-7.704h-4.734V123h-2.25v-9.612h9.216zm7.32 9.738c-.972 0-1.848-.21-2.628-.63a4.676 4.676 0 01-1.836-1.746c-.432-.756-.648-1.608-.648-2.556s.216-1.794.648-2.538a4.676 4.676 0 011.836-1.746c.78-.42 1.656-.63 2.628-.63.984 0 1.866.21 2.646.63a4.55 4.55 0 011.818 1.746c.444.744.666 1.59.666 2.538 0 .948-.222 1.8-.666 2.556a4.55 4.55 0 01-1.818 1.746c-.78.42-1.662.63-2.646.63zm0-1.926c.828 0 1.512-.276 2.052-.828.54-.552.81-1.278.81-2.178 0-.9-.27-1.626-.81-2.178s-1.224-.828-2.052-.828c-.828 0-1.512.276-2.052.828-.528.552-.792 1.278-.792 2.178 0 .9.264 1.626.792 2.178.54.552 1.224.828 2.052.828zm11.349-2.052h-1.746V123h-2.25v-9.612h2.25v3.888h1.8l2.844-3.888h2.412l-3.492 4.626L51.515 123h-2.646l-2.898-3.852zm15.658-5.76l-4.5 10.386c-.42 1.044-.93 1.776-1.53 2.196-.6.432-1.326.648-2.178.648a4.47 4.47 0 01-1.422-.234c-.468-.156-.852-.372-1.152-.648l.9-1.656c.216.204.468.366.756.486.3.12.6.18.9.18.396 0 .72-.102.972-.306.264-.204.504-.546.72-1.026l.162-.378-4.194-9.648h2.34l3.024 7.11 3.042-7.11h2.16zm10.779 0V123h-2.232v-7.704h-4.734V123h-2.25v-9.612h9.216zm7.32 9.738c-.972 0-1.848-.21-2.628-.63a4.676 4.676 0 01-1.836-1.746c-.432-.756-.648-1.608-.648-2.556s.216-1.794.648-2.538a4.676 4.676 0 011.836-1.746c.78-.42 1.656-.63 2.628-.63.984 0 1.866.21 2.646.63a4.55 4.55 0 011.818 1.746c.444.744.666 1.59.666 2.538 0 .948-.222 1.8-.666 2.556a4.55 4.55 0 01-1.818 1.746c-.78.42-1.662.63-2.646.63zm0-1.926c.828 0 1.512-.276 2.052-.828.54-.552.81-1.278.81-2.178 0-.9-.27-1.626-.81-2.178s-1.224-.828-2.052-.828c-.828 0-1.512.276-2.052.828-.528.552-.792 1.278-.792 2.178 0 .9.264 1.626.792 2.178.54.552 1.224.828 2.052.828zm11.348-2.052H89.33V123h-2.25v-9.612h2.25v3.888h1.8l2.844-3.888h2.412l-3.492 4.626L96.62 123h-2.646l-2.898-3.852zm17.308-5.292c.912 0 1.716.198 2.412.594a4.048 4.048 0 011.62 1.62c.396.696.594 1.494.594 2.394 0 .924-.216 1.746-.648 2.466a4.421 4.421 0 01-1.818 1.656c-.78.396-1.668.594-2.664.594-1.668 0-2.958-.552-3.87-1.656-.912-1.104-1.368-2.694-1.368-4.77 0-1.932.414-3.462 1.242-4.59.828-1.128 2.094-1.872 3.798-2.232l4.464-.954.324 2.016-4.05.828c-1.164.24-2.034.648-2.61 1.224-.576.576-.912 1.386-1.008 2.43a4.35 4.35 0 011.566-1.188 4.675 4.675 0 012.016-.432zm-.45 7.506c.828 0 1.494-.264 1.998-.792.516-.54.774-1.224.774-2.052 0-.828-.258-1.494-.774-1.998-.504-.504-1.17-.756-1.998-.756-.84 0-1.518.252-2.034.756-.516.504-.774 1.17-.774 1.998 0 .84.258 1.524.774 2.052.528.528 1.206.792 2.034.792zm15.86-7.974V123h-2.25v-7.704h-3.6l-.09 1.908c-.06 1.272-.18 2.34-.36 3.204-.168.852-.462 1.53-.882 2.034-.408.492-.972.738-1.692.738-.336 0-.75-.066-1.242-.198l.108-1.89c.168.036.312.054.432.054.456 0 .798-.18 1.026-.54.228-.372.372-.81.432-1.314.072-.516.132-1.248.18-2.196l.162-3.708h7.776zm6.613-.108c1.416 0 2.496.342 3.24 1.026.756.672 1.134 1.692 1.134 3.06V123h-2.124v-1.17c-.276.42-.672.744-1.188.972-.504.216-1.116.324-1.836.324s-1.35-.12-1.89-.36c-.54-.252-.96-.594-1.26-1.026a2.686 2.686 0 01-.432-1.494c0-.864.318-1.554.954-2.07.648-.528 1.662-.792 3.042-.792h2.484v-.144c0-.672-.204-1.188-.612-1.548-.396-.36-.99-.54-1.782-.54-.54 0-1.074.084-1.602.252a3.925 3.925 0 00-1.314.702l-.882-1.638c.504-.384 1.11-.678 1.818-.882a8.089 8.089 0 012.25-.306zm-.306 8.208c.564 0 1.062-.126 1.494-.378.444-.264.756-.636.936-1.116v-1.116h-2.322c-1.296 0-1.944.426-1.944 1.278 0 .408.162.732.486.972.324.24.774.36 1.35.36zm14.844-6.192h-5.13V123h-2.25v-9.612h7.38v1.908zm5.499 7.83c-.972 0-1.848-.21-2.628-.63a4.676 4.676 0 01-1.836-1.746c-.432-.756-.648-1.608-.648-2.556s.216-1.794.648-2.538a4.676 4.676 0 011.836-1.746c.78-.42 1.656-.63 2.628-.63.984 0 1.866.21 2.646.63a4.55 4.55 0 011.818 1.746c.444.744.666 1.59.666 2.538 0 .948-.222 1.8-.666 2.556a4.55 4.55 0 01-1.818 1.746c-.78.42-1.662.63-2.646.63zm0-1.926c.828 0 1.512-.276 2.052-.828.54-.552.81-1.278.81-2.178 0-.9-.27-1.626-.81-2.178s-1.224-.828-2.052-.828c-.828 0-1.512.276-2.052.828-.528.552-.792 1.278-.792 2.178 0 .9.264 1.626.792 2.178.54.552 1.224.828 2.052.828zm17.508-.108v4.05h-2.106V123h-7.416v2.142h-2.088v-4.05h.45c.612-.024 1.026-.414 1.242-1.17.228-.768.378-1.848.45-3.24l.126-3.294h7.92v7.704h1.422zm-7.416-4.248c-.048 1.104-.138 2.004-.27 2.7-.132.696-.372 1.212-.72 1.548h4.734v-5.796h-3.69l-.054 1.548zm13.007-3.564c1.416 0 2.496.342 3.24 1.026.756.672 1.134 1.692 1.134 3.06V123h-2.124v-1.17c-.276.42-.672.744-1.188.972-.504.216-1.116.324-1.836.324s-1.35-.12-1.89-.36c-.54-.252-.96-.594-1.26-1.026a2.686 2.686 0 01-.432-1.494c0-.864.318-1.554.954-2.07.648-.528 1.662-.792 3.042-.792h2.484v-.144c0-.672-.204-1.188-.612-1.548-.396-.36-.99-.54-1.782-.54-.54 0-1.074.084-1.602.252a3.925 3.925 0 00-1.314.702l-.882-1.638c.504-.384 1.11-.678 1.818-.882a8.089 8.089 0 012.25-.306zm-.306 8.208c.564 0 1.062-.126 1.494-.378.444-.264.756-.636.936-1.116v-1.116h-2.322c-1.296 0-1.944.426-1.944 1.278 0 .408.162.732.486.972.324.24.774.36 1.35.36zm12.792-8.208c.936 0 1.77.204 2.502.612a4.397 4.397 0 011.746 1.728c.42.744.63 1.602.63 2.574 0 .972-.21 1.836-.63 2.592a4.397 4.397 0 01-1.746 1.728c-.732.408-1.566.612-2.502.612-1.296 0-2.322-.432-3.078-1.296v4.662h-2.25v-13.104h2.142v1.26a3.495 3.495 0 011.368-1.026 4.717 4.717 0 011.818-.342zm-.252 7.92c.828 0 1.506-.276 2.034-.828.54-.552.81-1.278.81-2.178 0-.9-.27-1.626-.81-2.178-.528-.552-1.206-.828-2.034-.828a2.84 2.84 0 00-1.458.378c-.432.24-.774.588-1.026 1.044-.252.456-.378.984-.378 1.584 0 .6.126 1.128.378 1.584.252.456.594.81 1.026 1.062.432.24.918.36 1.458.36zm15.171-7.812V123h-2.016v-2.898h-2.538L194.432 123h-2.412l2.268-3.204c-.696-.24-1.23-.606-1.602-1.098-.36-.504-.54-1.122-.54-1.854 0-1.104.39-1.956 1.17-2.556.78-.6 1.854-.9 3.222-.9h4.41zm-4.338 1.89c-1.452 0-2.178.546-2.178 1.638 0 1.08.702 1.62 2.106 1.62h2.394v-3.258h-2.322zm16.714 7.848c-.996 0-1.89-.21-2.682-.63a4.645 4.645 0 01-1.854-1.746c-.444-.756-.666-1.608-.666-2.556s.222-1.794.666-2.538a4.676 4.676 0 011.836-1.746c.792-.42 1.692-.63 2.7-.63.948 0 1.776.192 2.484.576.72.384 1.26.936 1.62 1.656l-1.728 1.008a2.656 2.656 0 00-1.044-.99 2.72 2.72 0 00-1.35-.342c-.84 0-1.536.276-2.088.828-.552.54-.828 1.266-.828 2.178 0 .912.27 1.644.81 2.196.552.54 1.254.81 2.106.81a2.84 2.84 0 001.35-.324c.42-.228.768-.564 1.044-1.008l1.728 1.008a3.936 3.936 0 01-1.638 1.674c-.708.384-1.53.576-2.466.576zm14.944-4.878c0 .156-.012.378-.036.666h-7.542c.132.708.474 1.272 1.026 1.692.564.408 1.26.612 2.088.612 1.056 0 1.926-.348 2.61-1.044l1.206 1.386a4.063 4.063 0 01-1.638 1.17c-.66.264-1.404.396-2.232.396-1.056 0-1.986-.21-2.79-.63a4.617 4.617 0 01-1.872-1.746c-.432-.756-.648-1.608-.648-2.556 0-.936.21-1.776.63-2.52a4.578 4.578 0 011.782-1.764c.756-.42 1.608-.63 2.556-.63.936 0 1.77.21 2.502.63a4.25 4.25 0 011.728 1.746c.42.744.63 1.608.63 2.592zm-4.86-3.168c-.72 0-1.332.216-1.836.648-.492.42-.792.984-.9 1.692h5.454c-.096-.696-.39-1.26-.882-1.692-.492-.432-1.104-.648-1.836-.648zm12.649-1.8c.936 0 1.77.204 2.502.612a4.397 4.397 0 011.746 1.728c.42.744.63 1.602.63 2.574 0 .972-.21 1.836-.63 2.592a4.397 4.397 0 01-1.746 1.728c-.732.408-1.566.612-2.502.612-1.296 0-2.322-.432-3.078-1.296v4.662h-2.25v-13.104h2.142v1.26a3.495 3.495 0 011.368-1.026 4.717 4.717 0 011.818-.342zm-.252 7.92c.828 0 1.506-.276 2.034-.828.54-.552.81-1.278.81-2.178 0-.9-.27-1.626-.81-2.178-.528-.552-1.206-.828-2.034-.828a2.84 2.84 0 00-1.458.378c-.432.24-.774.588-1.026 1.044-.252.456-.378.984-.378 1.584 0 .6.126 1.128.378 1.584.252.456.594.81 1.026 1.062.432.24.918.36 1.458.36zm14.335-3.204c1.188.36 1.782 1.128 1.782 2.304 0 .864-.324 1.53-.972 1.998-.648.468-1.608.702-2.88.702h-4.896v-9.612h4.698c1.176 0 2.094.216 2.754.648.66.432.99 1.044.99 1.836 0 .492-.132.918-.396 1.278-.252.36-.612.642-1.08.846zm-4.824-.594h2.358c1.164 0 1.746-.402 1.746-1.206 0-.78-.582-1.17-1.746-1.17h-2.358v2.376zm2.574 3.96c1.236 0 1.854-.402 1.854-1.206 0-.42-.144-.732-.432-.936-.288-.216-.738-.324-1.35-.324h-2.646v2.466h2.574zm6.429-7.974h2.25v6.336l5.31-6.336h2.052V123h-2.25v-6.336L256.389 123h-2.07v-9.612zm17.012 9.738c-.996 0-1.89-.21-2.682-.63a4.645 4.645 0 01-1.854-1.746c-.444-.756-.666-1.608-.666-2.556s.222-1.794.666-2.538a4.676 4.676 0 011.836-1.746c.792-.42 1.692-.63 2.7-.63.948 0 1.776.192 2.484.576.72.384 1.26.936 1.62 1.656l-1.728 1.008a2.656 2.656 0 00-1.044-.99 2.72 2.72 0 00-1.35-.342c-.84 0-1.536.276-2.088.828-.552.54-.828 1.266-.828 2.178 0 .912.27 1.644.81 2.196.552.54 1.254.81 2.106.81a2.84 2.84 0 001.35-.324c.42-.228.768-.564 1.044-1.008l1.728 1.008a3.936 3.936 0 01-1.638 1.674c-.708.384-1.53.576-2.466.576zm15.034-9.738l-4.5 10.386c-.42 1.044-.93 1.776-1.53 2.196-.6.432-1.326.648-2.178.648a4.47 4.47 0 01-1.422-.234c-.468-.156-.852-.372-1.152-.648l.9-1.656c.216.204.468.366.756.486.3.12.6.18.9.18.396 0 .72-.102.972-.306.264-.204.504-.546.72-1.026l.162-.378-4.194-9.648h2.34l3.024 7.11 3.042-7.11h2.16zm1.239-2.988h2.664l-.45 8.424h-1.782l-.432-8.424zm1.332 12.726c-.42 0-.768-.132-1.044-.396a1.372 1.372 0 01-.414-1.008c0-.396.138-.726.414-.99.276-.264.624-.396 1.044-.396.408 0 .744.132 1.008.396.276.264.414.594.414.99s-.138.732-.414 1.008c-.264.264-.6.396-1.008.396z" fill="#000"/></svg>