<svg width="330" height="59" viewBox="0 0 330 59" fill="none" xmlns="http://www.w3.org/2000/svg"><rect opacity=".9" width="330" height="59" rx="10" fill="#FFFCF2"/><path d="M26.307 38.288c-1.744 0-3.32-.376-4.728-1.128-1.392-.752-2.488-1.784-3.288-3.096-.784-1.328-1.176-2.816-1.176-4.464 0-1.648.392-3.128 1.176-4.44a8.452 8.452 0 013.288-3.12c1.408-.752 2.984-1.128 4.728-1.128 1.744 0 3.312.376 4.704 1.128a8.452 8.452 0 013.288 3.12c.8 1.312 1.2 2.792 1.2 4.44 0 1.648-.4 3.136-1.2 4.464-.8 1.312-1.896 2.344-3.288 3.096-1.392.752-2.96 1.128-4.704 1.128zm0-3.312c.992 0 1.888-.224 2.688-.672a4.909 4.909 0 001.872-1.92c.464-.816.696-1.744.696-2.784 0-1.04-.232-1.968-.696-2.784a4.744 4.744 0 00-1.872-1.896c-.8-.464-1.696-.696-2.688-.696-.992 0-1.888.232-2.688.696a4.907 4.907 0 00-1.896 1.896c-.448.816-.672 1.744-.672 2.784 0 1.04.224 1.968.672 2.784a5.08 5.08 0 001.896 1.92c.8.448 1.696.672 2.688.672zM48.89 28.16h-4.368V38h-3.72v-9.84h-4.368v-3.072H48.89v3.072zm10.208 3.12c.768.24 1.36.608 1.776 1.104.432.496.648 1.088.648 1.776 0 .816-.28 1.536-.84 2.16-.56.608-1.328 1.08-2.304 1.416-.976.336-2.08.504-3.312.504-1.008 0-2-.104-2.976-.312-.976-.208-1.88-.52-2.712-.936l1.008-2.616c1.36.656 2.864.984 4.512.984.88 0 1.568-.128 2.064-.384.512-.272.768-.648.768-1.128 0-.416-.176-.728-.528-.936-.352-.224-.864-.336-1.536-.336h-2.64v-2.328h2.304c.656 0 1.16-.104 1.512-.312.352-.208.528-.512.528-.912 0-.416-.224-.736-.672-.96-.432-.224-1.056-.336-1.872-.336-1.248 0-2.608.296-4.08.888l-.912-2.592c1.792-.784 3.536-1.176 5.232-1.176 1.168 0 2.208.144 3.12.432.928.288 1.656.712 2.184 1.272.528.544.792 1.184.792 1.92 0 .608-.184 1.16-.552 1.656-.368.48-.872.864-1.512 1.152zm11.94-2.064c1.68.016 2.951.392 3.815 1.128.864.736 1.296 1.792 1.296 3.168 0 1.44-.488 2.552-1.464 3.336-.976.784-2.36 1.176-4.152 1.176L64.245 38V25.088h3.72v4.128h3.072zm6.503-4.128h3.72V38h-3.72V25.088zM70.197 35.36c.72.016 1.272-.136 1.656-.456.384-.32.576-.8.576-1.44 0-.624-.192-1.08-.576-1.368-.368-.288-.92-.44-1.656-.456l-2.232-.024v3.744h2.232zm24.537-4.104c1.52.512 2.28 1.536 2.28 3.072 0 1.168-.44 2.072-1.32 2.712-.88.64-2.192.96-3.936.96H84.87V25.088h6.6c1.616 0 2.88.296 3.792.888.912.576 1.368 1.392 1.368 2.448 0 .64-.168 1.208-.504 1.704-.32.48-.784.856-1.392 1.128zm-6.432-.864h2.832c1.312 0 1.968-.464 1.968-1.392 0-.912-.656-1.368-1.968-1.368h-2.832v2.76zm3.144 5.064c1.376 0 2.064-.472 2.064-1.416 0-.496-.16-.856-.48-1.08-.32-.24-.824-.36-1.512-.36h-3.216v2.856h3.144zm15.343-15.264h3.432v22.464h-3.432V20.192zm19.699 12.912h-1.944V38H120.8V25.088h3.744v5.016h2.016l3.504-5.016h3.984l-4.512 6.192L134.36 38h-4.416l-3.456-4.896zm14.492-8.208c2 0 3.536.48 4.608 1.44 1.072.944 1.608 2.376 1.608 4.296V38h-3.504v-1.608c-.704 1.2-2.016 1.8-3.936 1.8-.992 0-1.856-.168-2.592-.504-.72-.336-1.272-.8-1.656-1.392-.384-.592-.576-1.264-.576-2.016 0-1.2.448-2.144 1.344-2.832.912-.688 2.312-1.032 4.2-1.032h2.976c0-.816-.248-1.44-.744-1.872-.496-.448-1.24-.672-2.232-.672-.688 0-1.368.112-2.04.336-.656.208-1.216.496-1.68.864l-1.344-2.616c.704-.496 1.544-.88 2.52-1.152a11.474 11.474 0 013.048-.408zm-.288 10.776c.64 0 1.208-.144 1.704-.432a2.486 2.486 0 001.056-1.32V32.6h-2.568c-1.536 0-2.304.504-2.304 1.512 0 .48.184.864.552 1.152.384.272.904.408 1.56.408zm27.588-4.176c0 2-.672 3.584-2.016 4.752-1.328 1.152-3.232 1.816-5.712 1.992v4.416h-3.432V38.24c-2.48-.176-4.392-.832-5.736-1.968-1.328-1.152-1.992-2.744-1.992-4.776 0-2 .656-3.552 1.968-4.656 1.328-1.104 3.248-1.744 5.76-1.92v-4.728h3.432v4.728c2.48.176 4.384.824 5.712 1.944 1.344 1.12 2.016 2.664 2.016 4.632zm-15.264 0c0 1.152.328 2.04.984 2.664.656.624 1.696 1.016 3.12 1.176v-7.512c-1.424.144-2.464.52-3.12 1.128-.656.592-.984 1.44-.984 2.544zm7.536 3.84c1.424-.16 2.464-.552 3.12-1.176.672-.624 1.008-1.512 1.008-2.664 0-1.104-.336-1.952-1.008-2.544-.656-.608-1.696-.984-3.12-1.128v7.512zm22.816-3.744c0 .048-.024.384-.072 1.008h-9.768c.176.8.592 1.432 1.248 1.896.656.464 1.472.696 2.448.696.672 0 1.264-.096 1.776-.288a4.46 4.46 0 001.464-.96l1.992 2.16c-1.216 1.392-2.992 2.088-5.328 2.088-1.456 0-2.744-.28-3.864-.84-1.12-.576-1.984-1.368-2.592-2.376-.608-1.008-.912-2.152-.912-3.432 0-1.264.296-2.4.888-3.408a6.3 6.3 0 012.472-2.376c1.056-.576 2.232-.864 3.528-.864 1.264 0 2.408.272 3.432.816a5.857 5.857 0 012.4 2.352c.592 1.008.888 2.184.888 3.528zm-6.696-3.864c-.848 0-1.56.24-2.136.72-.576.48-.928 1.136-1.056 1.968h6.36c-.128-.816-.48-1.464-1.056-1.944-.576-.496-1.28-.744-2.112-.744zm18.738-3.72c.4.176.712.44.936.792.224.352.336.768.336 1.248 0 .688-.216 1.248-.648 1.68-.432.416-.984.624-1.656.624-.672 0-1.232-.216-1.68-.648-.432-.432-.648-.984-.648-1.656 0-.32.04-.64.12-.96.08-.32.256-.8.528-1.44l1.392-3.456h2.376l-1.056 3.816zm5.664 0c.4.176.712.44.936.792.224.352.336.768.336 1.248 0 .688-.216 1.248-.648 1.68-.432.416-.984.624-1.656.624-.672 0-1.232-.216-1.68-.648-.432-.432-.648-.984-.648-1.656 0-.32.04-.64.12-.96.08-.32.256-.8.528-1.44l1.392-3.456h2.376l-1.056 3.816zm7.994.312v4.44h7.776v3.12h-7.776V38h-3.888V21.2h12.696v3.12h-8.808zm14.517 2.472c.448-.624 1.048-1.096 1.8-1.416.768-.32 1.648-.48 2.64-.48v3.456a13.512 13.512 0 00-.84-.048c-1.072 0-1.912.304-2.52.912-.608.592-.912 1.488-.912 2.688V38h-3.744V25.088h3.576v1.704zm6.666-1.704h3.744V38h-3.744V25.088zm1.872-1.8c-.688 0-1.248-.2-1.68-.6a1.946 1.946 0 01-.648-1.488c0-.592.216-1.088.648-1.488.432-.4.992-.6 1.68-.6s1.248.192 1.68.576c.432.384.648.864.648 1.44 0 .624-.216 1.144-.648 1.56-.432.4-.992.6-1.68.6zm17.995 8.304c0 .048-.024.384-.072 1.008h-9.768c.176.8.592 1.432 1.248 1.896.656.464 1.472.696 2.448.696.672 0 1.264-.096 1.776-.288a4.46 4.46 0 001.464-.96l1.992 2.16c-1.216 1.392-2.992 2.088-5.328 2.088-1.456 0-2.744-.28-3.864-.84-1.12-.576-1.984-1.368-2.592-2.376-.608-1.008-.912-2.152-.912-3.432 0-1.264.296-2.4.888-3.408a6.3 6.3 0 012.472-2.376c1.056-.576 2.232-.864 3.528-.864 1.264 0 2.408.272 3.432.816a5.857 5.857 0 012.4 2.352c.592 1.008.888 2.184.888 3.528zm-6.696-3.864c-.848 0-1.56.24-2.136.72-.576.48-.928 1.136-1.056 1.968h6.36c-.128-.816-.48-1.464-1.056-1.944-.576-.496-1.28-.744-2.112-.744zm17.037-2.832c1.6 0 2.888.48 3.864 1.44.992.96 1.488 2.384 1.488 4.272V38h-3.744v-6.816c0-1.024-.224-1.784-.672-2.28-.448-.512-1.096-.768-1.944-.768-.944 0-1.696.296-2.256.888-.56.576-.84 1.44-.84 2.592V38h-3.744V25.088h3.576V26.6a4.847 4.847 0 011.848-1.248c.736-.304 1.544-.456 2.424-.456zm22.038-4.704V38h-3.576v-1.488c-.928 1.12-2.272 1.68-4.032 1.68-1.216 0-2.32-.272-3.312-.816a5.865 5.865 0 01-2.304-2.328c-.56-1.008-.84-2.176-.84-3.504 0-1.328.28-2.496.84-3.504a5.865 5.865 0 012.304-2.328c.992-.544 2.096-.816 3.312-.816 1.648 0 2.936.52 3.864 1.56v-6.264h3.744zm-6.96 14.928c.944 0 1.728-.32 2.352-.96.624-.656.936-1.528.936-2.616s-.312-1.952-.936-2.592c-.624-.656-1.408-.984-2.352-.984-.96 0-1.752.328-2.376.984-.624.64-.936 1.504-.936 2.592s.312 1.96.936 2.616c.624.64 1.416.96 2.376.96zM287.402 20c.672 0 1.224.216 1.656.648.432.416.648.968.648 1.656 0 .32-.04.64-.12.96-.08.32-.248.8-.504 1.44l-1.392 3.456h-2.376l1.032-3.792c-.4-.176-.712-.44-.936-.792-.224-.352-.336-.776-.336-1.272 0-.688.216-1.24.648-1.656.448-.432 1.008-.648 1.68-.648zm8.764 18.192c-1.072 0-2.12-.128-3.144-.384-1.024-.272-1.84-.608-2.448-1.008l1.248-2.688c.576.368 1.272.672 2.088.912a9.042 9.042 0 002.4.336c1.584 0 2.376-.392 2.376-1.176 0-.368-.216-.632-.648-.792-.432-.16-1.096-.296-1.992-.408-1.056-.16-1.928-.344-2.616-.552a4.142 4.142 0 01-1.8-1.104c-.496-.528-.744-1.28-.744-2.256 0-.816.232-1.536.696-2.16.48-.64 1.168-1.136 2.064-1.488.912-.352 1.984-.528 3.216-.528.912 0 1.816.104 2.712.312.912.192 1.664.464 2.256.816l-1.248 2.664a7.45 7.45 0 00-3.72-.96c-.8 0-1.4.112-1.8.336-.4.224-.6.512-.6.864 0 .4.216.68.648.84.432.16 1.12.312 2.064.456 1.056.176 1.92.368 2.592.576a3.802 3.802 0 011.752 1.08c.496.528.744 1.264.744 2.208 0 .8-.24 1.512-.72 2.136-.48.624-1.184 1.112-2.112 1.464-.912.336-2 .504-3.264.504zM306.012 20c.672 0 1.224.216 1.656.648.432.416.648.968.648 1.656 0 .32-.04.64-.12.96-.08.32-.248.8-.504 1.44L306.3 28.16h-2.376l1.032-3.792c-.4-.176-.712-.44-.936-.792-.224-.352-.336-.776-.336-1.272 0-.688.216-1.24.648-1.656.448-.432 1.008-.648 1.68-.648zm5.664 0c.672 0 1.224.216 1.656.648.432.416.648.968.648 1.656 0 .32-.04.64-.12.96-.08.32-.248.8-.504 1.44l-1.392 3.456h-2.376l1.032-3.792c-.4-.176-.712-.44-.936-.792-.224-.352-.336-.776-.336-1.272 0-.688.216-1.24.648-1.656.448-.432 1.008-.648 1.68-.648z" fill="#FF6072"/></svg>