<svg width="330" height="54" viewBox="0 0 330 54" fill="none" xmlns="http://www.w3.org/2000/svg"><path fill="#fff" d="M0 0h330v54H0z"/><path d="M28.14 30.608c0 .848-.216 1.608-.649 2.28a4.601 4.601 0 01-1.752 1.56 5.144 5.144 0 01-2.376.552h-8.04V17.96h8.209c.8 0 1.488.216 2.064.648.576.416 1.023.96 1.343 1.632.32.656.48 1.344.48 2.064 0 .848-.216 1.632-.648 2.352a3.99 3.99 0 01-1.8 1.608c.96.288 1.729.824 2.305 1.608.576.784.864 1.696.864 2.736zM17.003 19.424v6.288h5.857a2.62 2.62 0 001.488-.432 3.096 3.096 0 001.032-1.152c.256-.48.384-1 .384-1.56 0-.576-.12-1.104-.36-1.584a2.822 2.822 0 00-.985-1.128 2.428 2.428 0 00-1.416-.432h-6zM26.46 30.32c0-.56-.128-1.088-.383-1.584a3.194 3.194 0 00-1.056-1.2 2.521 2.521 0 00-1.488-.456h-6.529v6.456h6.36c.576 0 1.096-.152 1.56-.456a3.379 3.379 0 001.105-1.176 3.104 3.104 0 00.431-1.584zm3.505 1.08c0-.768.224-1.432.672-1.992.448-.576 1.064-1.024 1.848-1.344.8-.32 1.72-.48 2.76-.48.608 0 1.24.056 1.896.168a9.75 9.75 0 011.752.408v-1.056c0-1.056-.312-1.896-.936-2.52-.624-.624-1.488-.936-2.592-.936a5.38 5.38 0 00-1.968.384c-.656.24-1.336.6-2.04 1.08l-.624-1.152c.816-.56 1.616-.976 2.4-1.248a6.91 6.91 0 012.4-.432c1.536 0 2.752.44 3.648 1.32.896.88 1.344 2.096 1.344 3.648v5.784c0 .432.2.656.6.672V35c-.352.048-.6.064-.744.048-.4-.016-.704-.144-.912-.384-.208-.24-.32-.496-.336-.768l-.024-.912c-.56.72-1.288 1.28-2.184 1.68a6.886 6.886 0 01-2.736.576c-.816 0-1.544-.168-2.184-.504a4.098 4.098 0 01-1.512-1.392 3.734 3.734 0 01-.528-1.944zm8.376.96c.368-.432.552-.832.552-1.2v-1.824a9.4 9.4 0 00-3.456-.648c-1.168 0-2.112.232-2.832.696-.72.464-1.08 1.096-1.08 1.896 0 .688.264 1.312.792 1.872.544.56 1.296.84 2.256.84.784 0 1.512-.152 2.184-.456.688-.304 1.216-.696 1.584-1.176zM44.026 35V22.496h1.632V33.56h5.352V22.496h1.656V33.56h5.328V22.496h1.632V35h-15.6zm28.41 0V23.96h-4.464v-1.464h10.56v1.464h-4.464V35h-1.632zm13.717.24c-1.2 0-2.272-.296-3.216-.888a6.371 6.371 0 01-2.232-2.376c-.544-.992-.816-2.08-.816-3.264 0-1.168.264-2.24.792-3.216a6.236 6.236 0 012.232-2.328c.944-.592 2.016-.888 3.216-.888 1.232 0 2.312.296 3.24.888a6.11 6.11 0 012.16 2.352c.528.96.792 2.016.792 3.168 0 .256-.008.472-.024.648H81.593c.08.896.336 1.696.768 2.4.432.688.984 1.24 1.656 1.656.672.4 1.408.6 2.208.6.816 0 1.584-.208 2.304-.624.72-.416 1.232-.96 1.536-1.632l1.416.384a4.498 4.498 0 01-1.2 1.632 6.101 6.101 0 01-1.848 1.104 6.622 6.622 0 01-2.28.384zm-4.608-7.08h9.24c-.064-.896-.312-1.688-.744-2.376a4.619 4.619 0 00-1.656-1.632c-.672-.4-1.416-.6-2.232-.6-.816 0-1.56.2-2.232.6a4.619 4.619 0 00-1.656 1.632c-.416.688-.656 1.48-.72 2.376zm12.094 6.912v-1.488c.416 0 .792-.112 1.128-.336.352-.224.656-.616.912-1.176.272-.56.488-1.336.648-2.328.16-.992.264-2.248.312-3.768l.144-3.48h8.112V35h-1.632V23.96h-5.04l-.048 2.16c-.08 2.32-.296 4.128-.648 5.424-.352 1.296-.856 2.208-1.512 2.736-.64.512-1.432.776-2.376.792zm20.264.168c-1.2 0-2.272-.296-3.216-.888a6.371 6.371 0 01-2.232-2.376c-.544-.992-.816-2.08-.816-3.264 0-1.168.264-2.24.792-3.216a6.236 6.236 0 012.232-2.328c.944-.592 2.016-.888 3.216-.888 1.232 0 2.312.296 3.24.888a6.11 6.11 0 012.16 2.352c.528.96.792 2.016.792 3.168 0 .256-.008.472-.024.648h-10.704c.08.896.336 1.696.768 2.4.432.688.984 1.24 1.656 1.656.672.4 1.408.6 2.208.6.816 0 1.584-.208 2.304-.624.72-.416 1.232-.96 1.536-1.632l1.416.384a4.498 4.498 0 01-1.2 1.632 6.101 6.101 0 01-1.848 1.104 6.622 6.622 0 01-2.28.384zm-4.608-7.08h9.24c-.064-.896-.312-1.688-.744-2.376a4.619 4.619 0 00-1.656-1.632c-.672-.4-1.416-.6-2.232-.6-.816 0-1.56.2-2.232.6a4.619 4.619 0 00-1.656 1.632c-.416.688-.656 1.48-.72 2.376zm19.054 11.952V35h-.552c-1.232 0-2.304-.28-3.216-.84a5.902 5.902 0 01-2.112-2.28 6.554 6.554 0 01-.744-3.096c0-1.136.248-2.176.744-3.12a6.088 6.088 0 012.136-2.28c.912-.576 1.976-.864 3.192-.864h.552v-5.04h1.632v5.04h.552c1.216 0 2.28.288 3.192.864a5.902 5.902 0 012.112 2.28c.512.944.768 1.984.768 3.12 0 1.12-.248 2.152-.744 3.096a5.902 5.902 0 01-2.112 2.28c-.912.56-1.984.84-3.216.84h-.552v5.112h-1.632zm-.552-6.48h.6v-9.744h-.6c-.864 0-1.64.224-2.328.672a4.49 4.49 0 00-1.584 1.776c-.368.736-.552 1.56-.552 2.472 0 .896.184 1.712.552 2.448.384.736.912 1.32 1.584 1.752.672.416 1.448.624 2.328.624zm2.112 0h.624c.88 0 1.656-.208 2.328-.624a4.354 4.354 0 001.56-1.752c.384-.736.576-1.552.576-2.448 0-.912-.192-1.736-.576-2.472a4.263 4.263 0 00-1.584-1.776c-.672-.448-1.44-.672-2.304-.672h-.624v9.744zm14.766 1.608c-1.2 0-2.272-.296-3.216-.888A6.298 6.298 0 01139.275 32a6.74 6.74 0 01-.792-3.216c0-1.168.264-2.24.792-3.216a6.438 6.438 0 012.208-2.376c.944-.608 2.008-.912 3.192-.912 1.2 0 2.264.304 3.192.912a6.186 6.186 0 012.208 2.376c.544.976.816 2.048.816 3.216a6.74 6.74 0 01-.792 3.216 6.234 6.234 0 01-2.208 2.352c-.928.592-2 .888-3.216.888zm-4.536-6.432c0 .928.2 1.776.6 2.544a4.987 4.987 0 001.656 1.8 4.202 4.202 0 002.28.648c.832 0 1.592-.224 2.28-.672a4.934 4.934 0 001.656-1.824 5.254 5.254 0 00.624-2.544c0-.928-.208-1.776-.624-2.544a4.934 4.934 0 00-1.656-1.824 4.092 4.092 0 00-2.28-.672c-.816 0-1.568.232-2.256.696a4.934 4.934 0 00-1.656 1.824c-.416.768-.624 1.624-.624 2.568zM153.596 35V22.496h1.632v5.376h7.152v-5.376h1.632V35h-1.632v-5.664h-7.152V35h-1.632z" fill="#C5C5C5"/></svg>