<svg width="330" height="59" viewBox="0 0 330 59" fill="none" xmlns="http://www.w3.org/2000/svg"><rect opacity=".9" width="330" height="59" rx="10" fill="#FFFCF2"/><path d="M128.026 24.368h-5.376V38h-3.84V24.368h-5.352V21.2h14.568v3.168zm6.513.528c2 0 3.536.48 4.608 1.44 1.072.944 1.608 2.376 1.608 4.296V38h-3.504v-1.608c-.704 1.2-2.016 1.8-3.936 1.8-.992 0-1.856-.168-2.592-.504-.72-.336-1.272-.8-1.656-1.392-.384-.592-.576-1.264-.576-2.016 0-1.2.448-2.144 1.344-2.832.912-.688 2.312-1.032 4.2-1.032h2.976c0-.816-.248-1.44-.744-1.872-.496-.448-1.24-.672-2.232-.672-.688 0-1.368.112-2.04.336-.656.208-1.216.496-1.68.864l-1.344-2.616c.704-.496 1.544-.88 2.52-1.152a11.474 11.474 0 013.048-.408zm-.288 10.776c.64 0 1.208-.144 1.704-.432a2.486 2.486 0 001.056-1.32V32.6h-2.568c-1.536 0-2.304.504-2.304 1.512 0 .48.184.864.552 1.152.384.272.904.408 1.56.408zm17.364-10.776c1.2 0 2.288.28 3.264.84a5.821 5.821 0 012.328 2.328c.56.992.84 2.152.84 3.48 0 1.328-.28 2.496-.84 3.504a6.028 6.028 0 01-2.328 2.328c-.976.544-2.064.816-3.264.816-1.648 0-2.944-.52-3.888-1.56v6.024h-3.744V25.088h3.576v1.488c.928-1.12 2.28-1.68 4.056-1.68zm-.648 10.224c.96 0 1.744-.32 2.352-.96.624-.656.936-1.528.936-2.616s-.312-1.952-.936-2.592c-.608-.656-1.392-.984-2.352-.984s-1.752.328-2.376.984c-.608.64-.912 1.504-.912 2.592s.304 1.96.912 2.616c.624.64 1.416.96 2.376.96zm9.704-10.032h3.72v7.68l6.288-7.68h3.432V38h-3.72v-7.68L164.127 38h-3.456V25.088zm34.871 6.408c0 2-.672 3.584-2.016 4.752-1.328 1.152-3.232 1.816-5.712 1.992v4.416h-3.432V38.24c-2.48-.176-4.392-.832-5.736-1.968-1.328-1.152-1.992-2.744-1.992-4.776 0-2 .656-3.552 1.968-4.656 1.328-1.104 3.248-1.744 5.76-1.92v-4.728h3.432v4.728c2.48.176 4.384.824 5.712 1.944 1.344 1.12 2.016 2.664 2.016 4.632zm-15.264 0c0 1.152.328 2.04.984 2.664.656.624 1.696 1.016 3.12 1.176v-7.512c-1.424.144-2.464.52-3.12 1.128-.656.592-.984 1.44-.984 2.544zm7.536 3.84c1.424-.16 2.464-.552 3.12-1.176.672-.624 1.008-1.512 1.008-2.664 0-1.104-.336-1.952-1.008-2.544-.656-.608-1.696-.984-3.12-1.128v7.512zm17.055-6.12c1.68.016 2.952.392 3.816 1.128.864.736 1.296 1.792 1.296 3.168 0 1.44-.488 2.552-1.464 3.336-.976.784-2.36 1.176-4.152 1.176L198.077 38V25.088h3.72v4.128h3.072zm6.504-4.128h3.72V38h-3.72V25.088zm-7.344 10.272c.72.016 1.272-.136 1.656-.456.384-.32.576-.8.576-1.44 0-.624-.192-1.08-.576-1.368-.368-.288-.92-.44-1.656-.456l-2.232-.024v3.744h2.232z" fill="#FF6072"/></svg>