<svg width="330" height="54" viewBox="0 0 330 54" fill="none" xmlns="http://www.w3.org/2000/svg"><path fill="#fff" d="M0 0h330v54H0z"/><path d="M27.995 30.608c0 .848-.216 1.608-.648 2.28a4.601 4.601 0 01-1.752 1.56 5.144 5.144 0 01-2.376.552h-8.04V17.96h8.208c.8 0 1.488.216 2.064.648.576.416 1.024.96 1.344 1.632.32.656.48 1.344.48 2.064 0 .848-.216 1.632-.648 2.352a3.99 3.99 0 01-1.8 1.608c.96.288 1.728.824 2.304 1.608.576.784.864 1.696.864 2.736zM16.859 19.424v6.288h5.856a2.62 2.62 0 001.488-.432 3.096 3.096 0 001.032-1.152c.256-.48.384-1 .384-1.56 0-.576-.12-1.104-.36-1.584a2.822 2.822 0 00-.984-1.128 2.428 2.428 0 00-1.416-.432h-6zm9.456 10.896c0-.56-.128-1.088-.384-1.584a3.194 3.194 0 00-1.056-1.2 2.521 2.521 0 00-1.488-.456h-6.528v6.456h6.36c.576 0 1.096-.152 1.56-.456a3.379 3.379 0 001.104-1.176 3.104 3.104 0 00.432-1.584zm3.504 1.08c0-.768.224-1.432.672-1.992.448-.576 1.064-1.024 1.848-1.344.8-.32 1.72-.48 2.76-.48.608 0 1.24.056 1.896.168a9.75 9.75 0 011.752.408v-1.056c0-1.056-.312-1.896-.936-2.52-.624-.624-1.488-.936-2.592-.936a5.38 5.38 0 00-1.968.384c-.656.24-1.336.6-2.04 1.08l-.624-1.152c.816-.56 1.616-.976 2.4-1.248a6.91 6.91 0 012.4-.432c1.536 0 2.752.44 3.648 1.32.896.88 1.344 2.096 1.344 3.648v5.784c0 .432.2.656.6.672V35c-.352.048-.6.064-.744.048-.4-.016-.704-.144-.912-.384-.208-.24-.32-.496-.336-.768l-.024-.912c-.56.72-1.288 1.28-2.184 1.68a6.886 6.886 0 01-2.736.576c-.816 0-1.544-.168-2.184-.504a4.098 4.098 0 01-1.512-1.392 3.734 3.734 0 01-.528-1.944zm8.376.96c.368-.432.552-.832.552-1.2v-1.824a9.4 9.4 0 00-3.456-.648c-1.168 0-2.112.232-2.832.696-.72.464-1.08 1.096-1.08 1.896 0 .688.264 1.312.792 1.872.544.56 1.296.84 2.256.84.784 0 1.512-.152 2.184-.456.688-.304 1.216-.696 1.584-1.176zM43.882 35V22.496h1.632V33.56h5.351V22.496h1.657V33.56h5.328V22.496h1.631V35h-15.6zm24.572.24c-1.2 0-2.272-.296-3.216-.888a6.371 6.371 0 01-2.232-2.376c-.544-.992-.816-2.08-.816-3.264 0-1.168.264-2.24.792-3.216a6.236 6.236 0 012.232-2.328c.944-.592 2.016-.888 3.216-.888 1.232 0 2.312.296 3.24.888a6.11 6.11 0 012.16 2.352c.528.96.792 2.016.792 3.168 0 .256-.008.472-.024.648H63.894c.08.896.336 1.696.768 2.4.432.688.984 1.24 1.656 1.656.672.4 1.408.6 2.208.6.816 0 1.584-.208 2.304-.624.72-.416 1.232-.96 1.536-1.632l1.416.384a4.498 4.498 0 01-1.2 1.632 6.101 6.101 0 01-1.848 1.104 6.622 6.622 0 01-2.28.384zm-4.608-7.08h9.24c-.064-.896-.312-1.688-.744-2.376a4.619 4.619 0 00-1.656-1.632c-.672-.4-1.416-.6-2.232-.6-.816 0-1.56.2-2.232.6a4.619 4.619 0 00-1.656 1.632c-.416.688-.656 1.48-.72 2.376zM83.233 35V22.52h1.632v10.272l7.608-10.296h1.464V35h-1.632V24.896L84.817 35h-1.584zm14.25 0V22.496h1.68l4.968 8.616 4.992-8.616h1.608V35h-1.56V24.944l-4.512 7.824h-1.056l-4.56-7.824V35h-1.56zm15.916 0l3.72-5.112c-.864-.112-1.552-.48-2.064-1.104-.512-.624-.768-1.472-.768-2.544 0-.704.168-1.336.504-1.896a3.64 3.64 0 011.416-1.368c.624-.336 1.352-.504 2.184-.504h4.776V35h-1.632v-4.848h-2.784L115.223 35h-1.824zm4.968-6.096h3.168v-5.136h-2.88c-.832 0-1.496.24-1.992.72-.496.464-.744 1.056-.744 1.776 0 .736.2 1.36.6 1.872.416.512 1.032.768 1.848.768z" fill="#C5C5C5"/></svg>