<svg width="330" height="90" viewBox="0 0 330 90" fill="none" xmlns="http://www.w3.org/2000/svg"><rect opacity=".9" width="330" height="90" rx="10" fill="#FFFCF2"/><path d="M55 45c0 8.283-6.717 15-15 15-8.283 0-15-6.717-15-15 0-8.283 6.717-15 15-15 8.287 0 15 6.713 15 15z" fill="#FFCE00"/><path d="M49.177 36.394c-2.446-4.664-6.973-1.358-6.18 2.129.628 2.737 3.633 6.626 3.633 6.626.433-.152 4.62-1.663 6.62-3.639 2.54-2.513.499-7.732-4.073-5.116zM30.826 36.394c2.447-4.664 6.973-1.358 6.18 2.129-.624 2.737-3.633 6.626-3.633 6.626-.433-.152-4.62-1.663-6.62-3.639-2.54-2.513-.498-7.732 4.073-5.116z" fill="#CC342F"/><path d="M34.524 48.012c-.374-.125-.728.28-.62.717C34.548 51.291 37.03 53.2 40 53.2s5.452-1.91 6.096-4.47c.111-.434-.242-.843-.62-.718-1.646.547-3.507.852-5.476.852-1.968.004-3.826-.305-5.476-.852z" fill="#562912"/><path d="M40.003 50.594c-1.306 0-2.43.794-2.922 1.93a6.656 6.656 0 002.922.673 6.633 6.633 0 002.922-.673 3.196 3.196 0 00-2.922-1.93z" fill="#CC342F"/><path d="M120.08 25.38h-4.176V36h-2.322V25.38h-4.158V23.4h10.656v1.98zm4.838.9c1.416 0 2.496.342 3.24 1.026.756.672 1.134 1.692 1.134 3.06V36h-2.124v-1.17c-.276.42-.672.744-1.188.972-.504.216-1.116.324-1.836.324s-1.35-.12-1.89-.36c-.54-.252-.96-.594-1.26-1.026a2.686 2.686 0 01-.432-1.494c0-.864.318-1.554.954-2.07.648-.528 1.662-.792 3.042-.792h2.484v-.144c0-.672-.204-1.188-.612-1.548-.396-.36-.99-.54-1.782-.54-.54 0-1.074.084-1.602.252a3.925 3.925 0 00-1.314.702l-.882-1.638c.504-.384 1.11-.678 1.818-.882a8.089 8.089 0 012.25-.306zm-.306 8.208c.564 0 1.062-.126 1.494-.378.444-.264.756-.636.936-1.116v-1.116h-2.322c-1.296 0-1.944.426-1.944 1.278 0 .408.162.732.486.972.324.24.774.36 1.35.36zm12.792-8.208c.936 0 1.77.204 2.502.612a4.397 4.397 0 011.746 1.728c.42.744.63 1.602.63 2.574 0 .972-.21 1.836-.63 2.592a4.397 4.397 0 01-1.746 1.728c-.732.408-1.566.612-2.502.612-1.296 0-2.322-.432-3.078-1.296v4.662h-2.25V26.388h2.142v1.26a3.495 3.495 0 011.368-1.026 4.717 4.717 0 011.818-.342zm-.252 7.92c.828 0 1.506-.276 2.034-.828.54-.552.81-1.278.81-2.178 0-.9-.27-1.626-.81-2.178-.528-.552-1.206-.828-2.034-.828a2.84 2.84 0 00-1.458.378c-.432.24-.774.588-1.026 1.044-.252.456-.378.984-.378 1.584 0 .6.126 1.128.378 1.584.252.456.594.81 1.026 1.062.432.24.918.36 1.458.36zm7.37-7.812h2.25v6.336l5.31-6.336h2.052V36h-2.25v-6.336L146.592 36h-2.07v-9.612zm25.346 4.788c0 1.488-.498 2.658-1.494 3.51-.984.852-2.394 1.338-4.23 1.458v3.348h-2.124v-3.33c-1.836-.12-3.246-.606-4.23-1.458-.984-.852-1.476-2.028-1.476-3.528 0-1.488.492-2.646 1.476-3.474.984-.84 2.394-1.32 4.23-1.44v-3.618h2.124v3.618c1.836.12 3.246.6 4.23 1.44.996.84 1.494 1.998 1.494 3.474zm-11.34 0c0 .924.282 1.644.846 2.16.576.516 1.458.828 2.646.936V28.17c-1.188.096-2.07.396-2.646.9-.564.504-.846 1.206-.846 2.106zm5.616 3.096c2.352-.216 3.528-1.248 3.528-3.096 0-.912-.294-1.614-.882-2.106-.576-.504-1.458-.804-2.646-.9v6.102zm20.836-5.544v1.944l-8.298 3.222v-1.872l6.21-2.322-6.21-2.322v-1.872l8.298 3.222zm7.305-.126c1.164.144 2.052.54 2.664 1.188.612.648.918 1.458.918 2.43 0 .732-.186 1.398-.558 1.998-.372.6-.936 1.08-1.692 1.44-.744.348-1.656.522-2.736.522-.9 0-1.77-.126-2.61-.378-.828-.264-1.536-.624-2.124-1.08l1.008-1.818c.456.384 1.008.69 1.656.918.66.216 1.338.324 2.034.324.828 0 1.476-.168 1.944-.504.48-.348.72-.816.72-1.404s-.228-1.044-.684-1.368c-.444-.336-1.128-.504-2.052-.504h-1.152v-1.602l2.862-3.402h-5.724V23.4h8.586v1.566l-3.06 3.636zm10.368 7.578c-1.008 0-1.908-.252-2.7-.756-.792-.516-1.416-1.26-1.872-2.232-.456-.984-.684-2.148-.684-3.492 0-1.344.228-2.502.684-3.474.456-.984 1.08-1.728 1.872-2.232.792-.516 1.692-.774 2.7-.774 1.008 0 1.908.258 2.7.774.804.504 1.434 1.248 1.89 2.232.456.972.684 2.13.684 3.474 0 1.344-.228 2.508-.684 3.492-.456.972-1.086 1.716-1.89 2.232-.792.504-1.692.756-2.7.756zm0-2.034c.9 0 1.608-.372 2.124-1.116.528-.744.792-1.854.792-3.33s-.264-2.586-.792-3.33c-.516-.744-1.224-1.116-2.124-1.116-.888 0-1.596.372-2.124 1.116-.516.744-.774 1.854-.774 3.33s.258 2.586.774 3.33c.528.744 1.236 1.116 2.124 1.116zm12.112 2.034c-1.008 0-1.908-.252-2.7-.756-.792-.516-1.416-1.26-1.872-2.232-.456-.984-.684-2.148-.684-3.492 0-1.344.228-2.502.684-3.474.456-.984 1.08-1.728 1.872-2.232.792-.516 1.692-.774 2.7-.774 1.008 0 1.908.258 2.7.774.804.504 1.434 1.248 1.89 2.232.456.972.684 2.13.684 3.474 0 1.344-.228 2.508-.684 3.492-.456.972-1.086 1.716-1.89 2.232-.792.504-1.692.756-2.7.756zm0-2.034c.9 0 1.608-.372 2.124-1.116.528-.744.792-1.854.792-3.33s-.264-2.586-.792-3.33c-.516-.744-1.224-1.116-2.124-1.116-.888 0-1.596.372-2.124 1.116-.516.744-.774 1.854-.774 3.33s.258 2.586.774 3.33c.528.744 1.236 1.116 2.124 1.116zM113.342 53.4v1.566L108.446 66h-2.502l4.734-10.62h-4.95v2.142h-2.178V53.4h9.792zm14.522 4.896h-5.13V66h-2.25v-9.612h7.38v1.908zm6.965-2.016c.936 0 1.77.204 2.502.612a4.397 4.397 0 011.746 1.728c.42.744.63 1.602.63 2.574 0 .972-.21 1.836-.63 2.592a4.397 4.397 0 01-1.746 1.728c-.732.408-1.566.612-2.502.612-1.296 0-2.322-.432-3.078-1.296v4.662h-2.25V56.388h2.142v1.26a3.495 3.495 0 011.368-1.026 4.717 4.717 0 011.818-.342zm-.252 7.92c.828 0 1.506-.276 2.034-.828.54-.552.81-1.278.81-2.178 0-.9-.27-1.626-.81-2.178-.528-.552-1.206-.828-2.034-.828a2.84 2.84 0 00-1.458.378c-.432.24-.774.588-1.026 1.044-.252.456-.378.984-.378 1.584 0 .6.126 1.128.378 1.584.252.456.594.81 1.026 1.062.432.24.918.36 1.458.36zm7.37-7.812h2.25v3.906h4.842v-3.906h2.25V66h-2.25v-3.798h-4.842V66h-2.25v-9.612zm23.074 4.608c.6.168 1.062.444 1.386.828.336.372.504.822.504 1.35a2.32 2.32 0 01-.594 1.566c-.396.444-.942.792-1.638 1.044s-1.488.378-2.376.378c-.744 0-1.47-.084-2.178-.252a7.858 7.858 0 01-1.926-.756l.648-1.674c.468.264.996.468 1.584.612a7.392 7.392 0 001.764.216c.756 0 1.344-.114 1.764-.342.432-.24.648-.564.648-.972 0-.372-.168-.66-.504-.864-.324-.204-.786-.306-1.386-.306h-1.872v-1.512h1.692c.564 0 1.002-.096 1.314-.288.324-.192.486-.462.486-.81 0-.348-.192-.624-.576-.828-.384-.204-.912-.306-1.584-.306-.96 0-1.974.234-3.042.702l-.576-1.656c1.26-.588 2.532-.882 3.816-.882.816 0 1.548.114 2.196.342.648.216 1.152.528 1.512.936.372.396.558.852.558 1.368 0 .468-.144.888-.432 1.26-.288.36-.684.642-1.188.846zm7.806-4.716c1.416 0 2.496.342 3.24 1.026.756.672 1.134 1.692 1.134 3.06V66h-2.124v-1.17c-.276.42-.672.744-1.188.972-.504.216-1.116.324-1.836.324s-1.35-.12-1.89-.36c-.54-.252-.96-.594-1.26-1.026a2.686 2.686 0 01-.432-1.494c0-.864.318-1.554.954-2.07.648-.528 1.662-.792 3.042-.792h2.484v-.144c0-.672-.204-1.188-.612-1.548-.396-.36-.99-.54-1.782-.54-.54 0-1.074.084-1.602.252a3.925 3.925 0 00-1.314.702l-.882-1.638c.504-.384 1.11-.678 1.818-.882a8.089 8.089 0 012.25-.306zm-.306 8.208c.564 0 1.062-.126 1.494-.378.444-.264.756-.636.936-1.116v-1.116h-2.322c-1.296 0-1.944.426-1.944 1.278 0 .408.162.732.486.972.324.24.774.36 1.35.36zm21.655-8.1V66h-2.232v-7.704h-4.734V66h-2.25v-9.612h9.216zm7.32 9.738c-.972 0-1.848-.21-2.628-.63a4.676 4.676 0 01-1.836-1.746c-.432-.756-.648-1.608-.648-2.556s.216-1.794.648-2.538a4.676 4.676 0 011.836-1.746c.78-.42 1.656-.63 2.628-.63.984 0 1.866.21 2.646.63a4.55 4.55 0 011.818 1.746c.444.744.666 1.59.666 2.538 0 .948-.222 1.8-.666 2.556a4.55 4.55 0 01-1.818 1.746c-.78.42-1.662.63-2.646.63zm0-1.926c.828 0 1.512-.276 2.052-.828.54-.552.81-1.278.81-2.178 0-.9-.27-1.626-.81-2.178s-1.224-.828-2.052-.828c-.828 0-1.512.276-2.052.828-.528.552-.792 1.278-.792 2.178 0 .9.264 1.626.792 2.178.54.552 1.224.828 2.052.828zm11.727 1.926c-.996 0-1.89-.21-2.682-.63a4.645 4.645 0 01-1.854-1.746c-.444-.756-.666-1.608-.666-2.556s.222-1.794.666-2.538a4.676 4.676 0 011.836-1.746c.792-.42 1.692-.63 2.7-.63.948 0 1.776.192 2.484.576.72.384 1.26.936 1.62 1.656l-1.728 1.008a2.656 2.656 0 00-1.044-.99 2.72 2.72 0 00-1.35-.342c-.84 0-1.536.276-2.088.828-.552.54-.828 1.266-.828 2.178 0 .912.27 1.644.81 2.196.552.54 1.254.81 2.106.81a2.84 2.84 0 001.35-.324c.42-.228.768-.564 1.044-1.008l1.728 1.008a3.936 3.936 0 01-1.638 1.674c-.708.384-1.53.576-2.466.576zm13.611-7.83h-3.366V66h-2.25v-7.704h-3.384v-1.908h9v1.908z" fill="#000"/><path d="M305 45c0 8.283-6.717 15-15 15-8.283 0-15-6.717-15-15 0-8.283 6.717-15 15-15 8.287 0 15 6.713 15 15z" fill="#FFCE00"/><path d="M299.177 36.394c-2.446-4.664-6.973-1.358-6.179 2.129.627 2.737 3.632 6.626 3.632 6.626.433-.152 4.62-1.663 6.62-3.639 2.54-2.513.499-7.732-4.073-5.116zM280.826 36.394c2.447-4.664 6.973-1.358 6.18 2.129-.624 2.737-3.633 6.626-3.633 6.626-.433-.152-4.619-1.663-6.619-3.639-2.541-2.513-.499-7.732 4.072-5.116z" fill="#CC342F"/><path d="M284.524 48.012c-.374-.125-.728.28-.62.717.644 2.562 3.126 4.471 6.096 4.471s5.452-1.91 6.097-4.47c.11-.434-.243-.843-.621-.718-1.646.547-3.507.852-5.476.852-1.968.004-3.826-.305-5.476-.852z" fill="#562912"/><path d="M290.003 50.594a3.186 3.186 0 00-2.921 1.93 6.653 6.653 0 002.921.673 6.635 6.635 0 002.922-.673 3.196 3.196 0 00-2.922-1.93z" fill="#CC342F"/></svg>