<svg width="330" height="74" viewBox="0 0 330 74" fill="none" xmlns="http://www.w3.org/2000/svg"><rect opacity=".9" width="330" height="74" rx="10" fill="#FFFCF2"/><path d="M56.219 32.216c-1.308 0-2.49-.282-3.546-.846a6.382 6.382 0 01-2.466-2.322c-.588-.996-.882-2.112-.882-3.348 0-1.236.294-2.346.882-3.33a6.34 6.34 0 012.466-2.34c1.056-.564 2.238-.846 3.546-.846 1.308 0 2.484.282 3.528.846a6.34 6.34 0 012.466 2.34c.6.984.9 2.094.9 3.33 0 1.236-.3 2.352-.9 3.348a6.382 6.382 0 01-2.466 2.322c-1.044.564-2.22.846-3.528.846zm0-2.484c.744 0 1.416-.168 2.016-.504a3.682 3.682 0 001.404-1.44c.348-.612.522-1.308.522-2.088s-.174-1.476-.522-2.088a3.558 3.558 0 00-1.404-1.422 3.944 3.944 0 00-2.016-.522c-.744 0-1.416.174-2.016.522a3.68 3.68 0 00-1.422 1.422c-.336.612-.504 1.308-.504 2.088s.168 1.476.504 2.088a3.81 3.81 0 001.422 1.44c.6.336 1.272.504 2.016.504zm18.554-7.416V32h-2.808v-7.38h-4.032V32h-2.79v-9.684h9.63zm11.98 0V32h-2.808v-7.38h-3.06l-.09 1.71c-.048 1.272-.168 2.328-.36 3.168-.192.84-.504 1.5-.936 1.98-.432.48-1.032.72-1.8.72-.408 0-.894-.072-1.458-.216l.144-2.304c.192.024.33.036.414.036.42 0 .732-.15.936-.45.216-.312.36-.702.432-1.17.072-.48.126-1.11.162-1.89l.144-3.888h8.28zm6.463-.144c1.5 0 2.652.36 3.456 1.08.803.708 1.206 1.782 1.206 3.222V32h-2.629v-1.206c-.527.9-1.511 1.35-2.951 1.35-.745 0-1.392-.126-1.945-.378-.54-.252-.953-.6-1.241-1.044a2.717 2.717 0 01-.432-1.512c0-.9.335-1.608 1.007-2.124.684-.516 1.734-.774 3.15-.774h2.233c0-.612-.186-1.08-.558-1.404-.373-.336-.93-.504-1.674-.504a4.81 4.81 0 00-1.53.252 3.904 3.904 0 00-1.26.648l-1.008-1.962c.527-.372 1.157-.66 1.89-.864a8.606 8.606 0 012.285-.306zM93 30.254c.48 0 .906-.108 1.278-.324.371-.228.635-.558.791-.99v-.99h-1.925c-1.153 0-1.729.378-1.729 1.134 0 .36.138.648.414.864.289.204.678.306 1.17.306zm15.453-5.634h-3.276V32h-2.79v-7.38h-3.276v-2.304h9.342v2.304zm5.259-2.448c1.5 0 2.652.36 3.456 1.08.804.708 1.206 1.782 1.206 3.222V32h-2.628v-1.206c-.528.9-1.512 1.35-2.952 1.35-.744 0-1.392-.126-1.944-.378-.54-.252-.954-.6-1.242-1.044a2.717 2.717 0 01-.432-1.512c0-.9.336-1.608 1.008-2.124.684-.516 1.734-.774 3.15-.774h2.232c0-.612-.186-1.08-.558-1.404-.372-.336-.93-.504-1.674-.504a4.81 4.81 0 00-1.53.252 3.904 3.904 0 00-1.26.648l-1.008-1.962c.528-.372 1.158-.66 1.89-.864a8.606 8.606 0 012.286-.306zm-.216 8.082c.48 0 .906-.108 1.278-.324.372-.228.636-.558.792-.99v-.99h-1.926c-1.152 0-1.728.378-1.728 1.134 0 .36.138.648.414.864.288.204.678.306 1.17.306zm20.551-5.634h-3.276V32h-2.79v-7.38h-3.276v-2.304h9.342v2.304zm5.628 7.524c-1.02 0-1.938-.21-2.754-.63a4.829 4.829 0 01-1.89-1.782c-.456-.756-.684-1.614-.684-2.574 0-.96.228-1.818.684-2.574a4.702 4.702 0 011.89-1.764c.816-.432 1.734-.648 2.754-.648s1.932.216 2.736.648a4.702 4.702 0 011.89 1.764c.456.756.684 1.614.684 2.574 0 .96-.228 1.818-.684 2.574a4.829 4.829 0 01-1.89 1.782c-.804.42-1.716.63-2.736.63zm0-2.304c.72 0 1.308-.24 1.764-.72.468-.492.702-1.146.702-1.962 0-.816-.234-1.464-.702-1.944-.456-.492-1.044-.738-1.764-.738s-1.314.246-1.782.738c-.468.48-.702 1.128-.702 1.944 0 .816.234 1.47.702 1.962.468.48 1.062.72 1.782.72zm16.389-7.524V32h-2.808v-7.38h-3.06l-.09 1.71c-.048 1.272-.168 2.328-.36 3.168-.192.84-.504 1.5-.936 1.98-.432.48-1.032.72-1.8.72-.408 0-.894-.072-1.458-.216l.144-2.304c.192.024.33.036.414.036.42 0 .732-.15.936-.45.216-.312.36-.702.432-1.17.072-.48.126-1.11.162-1.89l.144-3.888h8.28zm7.938 3.096c1.26.012 2.226.3 2.898.864.672.552 1.008 1.338 1.008 2.358 0 1.068-.378 1.902-1.134 2.502-.744.588-1.794.882-3.15.882l-4.86-.018v-9.684h2.79v3.096h2.448zm-.63 4.608c.54.012.954-.102 1.242-.342.288-.24.432-.6.432-1.08 0-.468-.144-.81-.432-1.026-.276-.216-.69-.33-1.242-.342l-1.818-.018v2.808h1.818zm10.557-1.692h-1.458V32h-2.808v-9.684h2.808v3.762h1.512l2.628-3.762h2.988l-3.384 4.644 3.618 5.04h-3.312l-2.592-3.672zm11.52 3.816c-1.02 0-1.938-.21-2.754-.63a4.829 4.829 0 01-1.89-1.782c-.456-.756-.684-1.614-.684-2.574 0-.96.228-1.818.684-2.574a4.702 4.702 0 011.89-1.764c.816-.432 1.734-.648 2.754-.648s1.932.216 2.736.648a4.702 4.702 0 011.89 1.764c.456.756.684 1.614.684 2.574 0 .96-.228 1.818-.684 2.574a4.829 4.829 0 01-1.89 1.782c-.804.42-1.716.63-2.736.63zm0-2.304c.72 0 1.308-.24 1.764-.72.468-.492.702-1.146.702-1.962 0-.816-.234-1.464-.702-1.944-.456-.492-1.044-.738-1.764-.738s-1.314.246-1.782.738c-.468.48-.702 1.128-.702 1.944 0 .816.234 1.47.702 1.962.468.48 1.062.72 1.782.72zm18.621-2.88c.576.18 1.02.456 1.332.828.324.372.486.816.486 1.332 0 .612-.21 1.152-.63 1.62-.42.456-.996.81-1.728 1.062s-1.56.378-2.484.378c-.756 0-1.5-.078-2.233-.234a8.486 8.486 0 01-2.033-.702l.756-1.962c1.02.492 2.148.738 3.384.738.66 0 1.176-.096 1.548-.288.384-.204.576-.486.576-.846a.764.764 0 00-.396-.702c-.264-.168-.648-.252-1.152-.252h-1.98v-1.746h1.728c.492 0 .87-.078 1.134-.234a.749.749 0 00.396-.684c0-.312-.168-.552-.504-.72-.324-.168-.792-.252-1.404-.252-.936 0-1.956.222-3.06.666l-.684-1.944c1.344-.588 2.652-.882 3.924-.882.876 0 1.656.108 2.34.324.696.216 1.242.534 1.638.954a2 2 0 01.594 1.44c0 .456-.138.87-.414 1.242-.276.36-.654.648-1.134.864zm7.622-4.788c1.5 0 2.652.36 3.456 1.08.804.708 1.206 1.782 1.206 3.222V32h-2.628v-1.206c-.528.9-1.512 1.35-2.952 1.35-.744 0-1.392-.126-1.944-.378-.54-.252-.954-.6-1.242-1.044a2.717 2.717 0 01-.432-1.512c0-.9.336-1.608 1.008-2.124.684-.516 1.734-.774 3.15-.774h2.232c0-.612-.186-1.08-.558-1.404-.372-.336-.93-.504-1.674-.504a4.81 4.81 0 00-1.53.252 3.904 3.904 0 00-1.26.648l-1.008-1.962c.528-.372 1.158-.66 1.89-.864a8.606 8.606 0 012.286-.306zm-.216 8.082c.48 0 .906-.108 1.278-.324.372-.228.636-.558.792-.99v-.99h-1.926c-1.152 0-1.728.378-1.728 1.134 0 .36.138.648.414.864.288.204.678.306 1.17.306zm22.045-7.938V32h-2.808v-7.38h-4.032V32h-2.79v-9.684h9.63zm7.228 9.828c-1.02 0-1.938-.21-2.754-.63a4.829 4.829 0 01-1.89-1.782c-.456-.756-.684-1.614-.684-2.574 0-.96.228-1.818.684-2.574a4.702 4.702 0 011.89-1.764c.816-.432 1.734-.648 2.754-.648s1.932.216 2.736.648a4.702 4.702 0 011.89 1.764c.456.756.684 1.614.684 2.574 0 .96-.228 1.818-.684 2.574a4.829 4.829 0 01-1.89 1.782c-.804.42-1.716.63-2.736.63zm0-2.304c.72 0 1.308-.24 1.764-.72.468-.492.702-1.146.702-1.962 0-.816-.234-1.464-.702-1.944-.456-.492-1.044-.738-1.764-.738s-1.314.246-1.782.738c-.468.48-.702 1.128-.702 1.944 0 .816.234 1.47.702 1.962.468.48 1.062.72 1.782.72zm11.85 2.304c-1.032 0-1.962-.21-2.79-.63a4.929 4.929 0 01-1.926-1.782c-.456-.756-.684-1.614-.684-2.574 0-.96.228-1.818.684-2.574a4.8 4.8 0 011.926-1.764c.828-.432 1.758-.648 2.79-.648 1.02 0 1.908.216 2.664.648a3.734 3.734 0 011.674 1.818l-2.178 1.17c-.504-.888-1.23-1.332-2.178-1.332-.732 0-1.338.24-1.818.72s-.72 1.134-.72 1.962c0 .828.24 1.482.72 1.962s1.086.72 1.818.72c.96 0 1.686-.444 2.178-1.332l2.178 1.188c-.348.768-.906 1.368-1.674 1.8-.756.432-1.644.648-2.664.648zm14.145-7.524h-3.276V32h-2.79v-7.38h-3.276v-2.304h9.342v2.304zm6.591.792c1.26.012 2.214.294 2.862.846.648.552.972 1.344.972 2.376 0 1.08-.366 1.914-1.098 2.502-.732.588-1.77.882-3.114.882L268.241 32v-9.684h2.79v3.096h2.304zm4.878-3.096h2.79V32h-2.79v-9.684zm-5.508 7.704c.54.012.954-.102 1.242-.342.288-.24.432-.6.432-1.08 0-.468-.144-.81-.432-1.026-.276-.216-.69-.33-1.242-.342l-1.674-.018v2.808h1.674zM27.793 50.328h-1.458V54h-2.808v-9.684h2.808v3.762h1.512l2.628-3.762h2.988l-3.384 4.644L33.697 54h-3.312l-2.592-3.672zm11.52 3.816c-1.02 0-1.938-.21-2.754-.63a4.829 4.829 0 01-1.89-1.782c-.456-.756-.684-1.614-.684-2.574 0-.96.228-1.818.684-2.574a4.702 4.702 0 011.89-1.764c.816-.432 1.734-.648 2.754-.648s1.932.216 2.736.648a4.702 4.702 0 011.89 1.764c.456.756.684 1.614.684 2.574 0 .96-.228 1.818-.684 2.574a4.829 4.829 0 01-1.89 1.782c-.804.42-1.716.63-2.736.63zm0-2.304c.72 0 1.308-.24 1.764-.72.468-.492.702-1.146.702-1.962 0-.816-.234-1.464-.702-1.944-.456-.492-1.044-.738-1.764-.738s-1.314.246-1.782.738c-.468.48-.702 1.128-.702 1.944 0 .816.234 1.47.702 1.962.468.48 1.062.72 1.782.72zm15.026-5.22h-3.276V54h-2.79v-7.38h-3.277v-2.304h9.343v2.304zm5.628 7.524c-1.02 0-1.938-.21-2.754-.63a4.829 4.829 0 01-1.89-1.782c-.456-.756-.684-1.614-.684-2.574 0-.96.228-1.818.684-2.574a4.702 4.702 0 011.89-1.764c.816-.432 1.734-.648 2.754-.648s1.932.216 2.736.648a4.702 4.702 0 011.89 1.764c.456.756.684 1.614.684 2.574 0 .96-.228 1.818-.684 2.574a4.829 4.829 0 01-1.89 1.782c-.804.42-1.716.63-2.736.63zm0-2.304c.72 0 1.308-.24 1.764-.72.468-.492.702-1.146.702-1.962 0-.816-.234-1.464-.702-1.944-.456-.492-1.044-.738-1.764-.738s-1.314.246-1.782.738c-.468.48-.702 1.128-.702 1.944 0 .816.234 1.47.702 1.962.468.48 1.062.72 1.782.72zm12.947-7.668c.9 0 1.716.21 2.448.63.744.408 1.326.99 1.746 1.746.42.744.63 1.614.63 2.61 0 .996-.21 1.872-.63 2.628a4.521 4.521 0 01-1.746 1.746c-.732.408-1.548.612-2.448.612-1.236 0-2.208-.39-2.916-1.17v4.518H67.19V44.316h2.682v1.116c.696-.84 1.71-1.26 3.042-1.26zm-.486 7.668c.72 0 1.308-.24 1.764-.72.468-.492.702-1.146.702-1.962 0-.816-.234-1.464-.702-1.944-.456-.492-1.044-.738-1.764-.738s-1.314.246-1.782.738c-.456.48-.684 1.128-.684 1.944 0 .816.228 1.47.684 1.962.468.48 1.062.72 1.782.72zM84.8 47.412c1.26.012 2.214.294 2.862.846.648.552.972 1.344.972 2.376 0 1.08-.366 1.914-1.098 2.502-.732.588-1.77.882-3.114.882L79.706 54v-9.684h2.79v3.096H84.8zm4.878-3.096h2.79V54h-2.79v-9.684zM84.17 52.02c.54.012.954-.102 1.242-.342.288-.24.432-.6.432-1.08 0-.468-.144-.81-.432-1.026-.276-.216-.69-.33-1.242-.342l-1.674-.018v2.808h1.674zm20.419-2.826c0 .036-.018.288-.054.756h-7.326c.132.6.444 1.074.936 1.422.492.348 1.104.522 1.836.522.504 0 .948-.072 1.332-.216a3.345 3.345 0 001.098-.72l1.494 1.62c-.912 1.044-2.244 1.566-3.996 1.566-1.092 0-2.058-.21-2.898-.63-.84-.432-1.488-1.026-1.944-1.782-.456-.756-.684-1.614-.684-2.574 0-.948.222-1.8.666-2.556a4.726 4.726 0 011.854-1.782c.792-.432 1.674-.648 2.646-.648.948 0 1.806.204 2.574.612a4.393 4.393 0 011.8 1.764c.444.756.666 1.638.666 2.646zm-5.022-2.898c-.636 0-1.17.18-1.602.54-.432.36-.696.852-.792 1.476h4.77c-.096-.612-.36-1.098-.792-1.458-.432-.372-.96-.558-1.584-.558zm21.902-1.98V54h-2.808v-7.38h-4.032V54h-2.79v-9.684h9.63zm8.399-.144c.9 0 1.716.21 2.448.63.744.408 1.326.99 1.746 1.746.42.744.63 1.614.63 2.61 0 .996-.21 1.872-.63 2.628a4.521 4.521 0 01-1.746 1.746c-.732.408-1.548.612-2.448.612-1.236 0-2.208-.39-2.916-1.17v4.518h-2.808V44.316h2.682v1.116c.696-.84 1.71-1.26 3.042-1.26zm-.486 7.668c.72 0 1.308-.24 1.764-.72.468-.492.702-1.146.702-1.962 0-.816-.234-1.464-.702-1.944-.456-.492-1.044-.738-1.764-.738s-1.314.246-1.782.738c-.456.48-.684 1.128-.684 1.944 0 .816.228 1.47.684 1.962.468.48 1.062.72 1.782.72zm7.278-7.524h2.79v5.76l4.716-5.76h2.574V54h-2.79v-5.76L139.252 54h-2.592v-9.684zm20.177 4.626c1.14.384 1.71 1.152 1.71 2.304 0 .876-.33 1.554-.99 2.034-.66.48-1.644.72-2.952.72h-5.166v-9.684h4.95c1.212 0 2.16.222 2.844.666.684.432 1.026 1.044 1.026 1.836 0 .48-.126.906-.378 1.278-.24.36-.588.642-1.044.846zm-4.824-.648h2.124c.984 0 1.476-.348 1.476-1.044 0-.684-.492-1.026-1.476-1.026h-2.124v2.07zm2.358 3.798c1.032 0 1.548-.354 1.548-1.062 0-.372-.12-.642-.36-.81-.24-.18-.618-.27-1.134-.27h-2.412v2.142h2.358zm15.679-2.898c0 .036-.018.288-.054.756h-7.326c.132.6.444 1.074.936 1.422.492.348 1.104.522 1.836.522.504 0 .948-.072 1.332-.216a3.345 3.345 0 001.098-.72l1.494 1.62c-.912 1.044-2.244 1.566-3.996 1.566-1.092 0-2.058-.21-2.898-.63-.84-.432-1.488-1.026-1.944-1.782-.456-.756-.684-1.614-.684-2.574 0-.948.222-1.8.666-2.556a4.726 4.726 0 011.854-1.782c.792-.432 1.674-.648 2.646-.648.948 0 1.806.204 2.574.612a4.393 4.393 0 011.8 1.764c.444.756.666 1.638.666 2.646zm-5.022-2.898c-.636 0-1.17.18-1.602.54-.432.36-.696.852-.792 1.476h4.77c-.096-.612-.36-1.098-.792-1.458-.432-.372-.96-.558-1.584-.558zm16.375-1.98V54h-2.808v-7.38h-3.06l-.09 1.71c-.048 1.272-.168 2.328-.36 3.168-.192.84-.504 1.5-.936 1.98-.432.48-1.032.72-1.8.72-.408 0-.894-.072-1.458-.216l.144-2.304c.192.024.33.036.414.036.42 0 .732-.15.936-.45.216-.312.36-.702.432-1.17.072-.48.126-1.11.162-1.89l.144-3.888h8.28zm2.7 0h2.79v5.76l4.716-5.76h2.574V54h-2.79v-5.76L186.695 54h-2.592v-9.684zm22.143 6.012h-1.458V54h-2.808v-9.684h2.808v3.762h1.512l2.628-3.762h2.988l-3.384 4.644L212.15 54h-3.312l-2.592-3.672zm16.571-6.012V54h-2.808v-7.38h-3.06l-.09 1.71c-.048 1.272-.168 2.328-.36 3.168-.192.84-.504 1.5-.936 1.98-.432.48-1.032.72-1.8.72-.408 0-.894-.072-1.458-.216l.144-2.304c.192.024.33.036.414.036.42 0 .732-.15.936-.45.216-.312.36-.702.432-1.17.072-.48.126-1.11.162-1.89l.144-3.888h8.28zm2.7 0h2.79v5.76l4.716-5.76h2.574V54h-2.79v-5.76L228.109 54h-2.592v-9.684zm22.193 4.878c0 .036-.018.288-.054.756h-7.326c.132.6.444 1.074.936 1.422.492.348 1.104.522 1.836.522.504 0 .948-.072 1.332-.216a3.345 3.345 0 001.098-.72l1.494 1.62c-.912 1.044-2.244 1.566-3.996 1.566-1.092 0-2.058-.21-2.898-.63-.84-.432-1.488-1.026-1.944-1.782-.456-.756-.684-1.614-.684-2.574 0-.948.222-1.8.666-2.556a4.726 4.726 0 011.854-1.782c.792-.432 1.674-.648 2.646-.648.948 0 1.806.204 2.574.612a4.393 4.393 0 011.8 1.764c.444.756.666 1.638.666 2.646zm-5.022-2.898c-.636 0-1.17.18-1.602.54-.432.36-.696.852-.792 1.476h4.77c-.096-.612-.36-1.098-.792-1.458-.432-.372-.96-.558-1.584-.558zm7.175-1.98h2.79v3.78h4.212v-3.78h2.808V54h-2.808v-3.618h-4.212V54h-2.79v-9.684zm20.634 2.304h-3.276V54h-2.79v-7.38h-3.276v-2.304h9.342v2.304zm5.628 7.524c-1.02 0-1.938-.21-2.754-.63a4.829 4.829 0 01-1.89-1.782c-.456-.756-.684-1.614-.684-2.574 0-.96.228-1.818.684-2.574a4.702 4.702 0 011.89-1.764c.816-.432 1.734-.648 2.754-.648s1.932.216 2.736.648a4.702 4.702 0 011.89 1.764c.456.756.684 1.614.684 2.574 0 .96-.228 1.818-.684 2.574a4.829 4.829 0 01-1.89 1.782c-.804.42-1.716.63-2.736.63zm0-2.304c.72 0 1.308-.24 1.764-.72.468-.492.702-1.146.702-1.962 0-.816-.234-1.464-.702-1.944-.456-.492-1.044-.738-1.764-.738s-1.314.246-1.782.738c-.468.48-.702 1.128-.702 1.944 0 .816.234 1.47.702 1.962.468.48 1.062.72 1.782.72zm14.64-2.898c1.14.384 1.71 1.152 1.71 2.304 0 .876-.33 1.554-.99 2.034-.66.48-1.644.72-2.952.72h-5.166v-9.684h4.95c1.212 0 2.16.222 2.844.666.684.432 1.026 1.044 1.026 1.836 0 .48-.126.906-.378 1.278-.24.36-.588.642-1.044.846zm-4.824-.648h2.124c.984 0 1.476-.348 1.476-1.044 0-.684-.492-1.026-1.476-1.026h-2.124v2.07zm2.358 3.798c1.032 0 1.548-.354 1.548-1.062 0-.372-.12-.642-.36-.81-.24-.18-.618-.27-1.134-.27h-2.412v2.142h2.358zM294.15 41.4h3.348l-.558 8.226h-2.232l-.558-8.226zm1.674 12.744c-.492 0-.906-.156-1.242-.468a1.595 1.595 0 01-.486-1.17c0-.456.162-.834.486-1.134.324-.312.738-.468 1.242-.468s.918.156 1.242.468c.324.3.486.678.486 1.134 0 .456-.168.846-.504 1.17-.324.312-.732.468-1.224.468zm3.529-12.744h3.348l-.558 8.226h-2.232l-.558-8.226zm1.674 12.744c-.492 0-.906-.156-1.242-.468a1.595 1.595 0 01-.486-1.17c0-.456.162-.834.486-1.134.324-.312.738-.468 1.242-.468s.918.156 1.242.468c.324.3.486.678.486 1.134 0 .456-.168.846-.504 1.17-.324.312-.732.468-1.224.468zm3.529-12.744h3.348l-.558 8.226h-2.232l-.558-8.226zm1.674 12.744c-.492 0-.906-.156-1.242-.468a1.595 1.595 0 01-.486-1.17c0-.456.162-.834.486-1.134.324-.312.738-.468 1.242-.468s.918.156 1.242.468c.324.3.486.678.486 1.134 0 .456-.168.846-.504 1.17-.324.312-.732.468-1.224.468z" fill="#FF6072"/></svg>