<svg width="339" height="4" viewBox="0 0 339 4" fill="none" xmlns="http://www.w3.org/2000/svg"><path opacity=".5" fill="#ABA198" d="M304.231.913H339v2.173h-34.769zM266.202.913h34.769v2.173h-34.769zM228.173.913h34.769v2.173h-34.769zM190.144.913h34.769v2.173h-34.769zM152.115.913h34.769v2.173h-34.769z"/><path fill="#fff" d="M152.115.913h34.769v2.173h-34.769z"/><path opacity=".5" fill="#ABA198" d="M114.086.913h34.769v2.173h-34.769z"/><path fill="#fff" d="M114.086.913h34.769v2.173h-34.769z"/><path opacity=".5" fill="#ABA198" d="M76.058.913h34.769v2.173H76.058z"/><path fill="#fff" d="M76.058.913h34.769v2.173H76.058z"/><path opacity=".5" fill="#ABA198" d="M38.029.913h34.769v2.173H38.029z"/><path fill="#fff" d="M38.029.913h34.769v2.173H38.029z"/><path opacity=".5" fill="#ABA198" d="M0 .913h34.769v2.173H0z"/><path fill="#fff" d="M0 .913h34.769v2.173H0z"/></svg>