<svg width="339" height="2" viewBox="0 0 339 2" fill="none" xmlns="http://www.w3.org/2000/svg"><path opacity=".5" fill="#ABA198" d="M304 0h35v2h-35zM266 0h35v2h-35zM228 0h35v2h-35z"/><path fill="#fff" d="M228 0h35v2h-35z"/><path opacity=".5" fill="#ABA198" d="M190 0h35v2h-35z"/><path fill="#fff" d="M190 0h35v2h-35z"/><path opacity=".5" fill="#ABA198" d="M152 0h35v2h-35z"/><path fill="#fff" d="M152 0h35v2h-35z"/><path opacity=".5" fill="#ABA198" d="M114 0h35v2h-35z"/><path fill="#fff" d="M114 0h35v2h-35z"/><path opacity=".5" fill="#ABA198" d="M76 0h35v2H76z"/><path fill="#fff" d="M76 0h35v2H76z"/><path opacity=".5" fill="#ABA198" d="M38 0h35v2H38z"/><path fill="#fff" d="M38 0h35v2H38z"/><path opacity=".5" fill="#ABA198" d="M0 0h35v2H0z"/><path fill="#fff" d="M0 0h35v2H0z"/></svg>