<svg width="306" height="192" viewBox="0 0 306 192" fill="none" xmlns="http://www.w3.org/2000/svg"><g opacity=".9" fill="#F3F1E9"><path d="M0 37c0-8.284 6.716-15 15-15h276c8.284 0 15 6.716 15 15v140c0 8.284-6.716 15-15 15H15c-8.284 0-15-6.716-15-15V37z"/><path d="M176 22.5c0 12.426-10.074 22.5-22.5 22.5S131 34.926 131 22.5 141.074 0 153.5 0 176 10.074 176 22.5z"/></g><path d="M159.875 13.25a1.877 1.877 0 00-1.326 3.201 1.876 1.876 0 002.652-2.652 1.877 1.877 0 00-1.326-.549zm-3.125 1.875a3.128 3.128 0 012.574-3.076 3.125 3.125 0 11-1.82 5.111l-8.398 3.9a3.11 3.11 0 010 1.88l8.398 3.9a3.125 3.125 0 11-.61 1.095l-8.398-3.9a3.12 3.12 0 01-3.456.896 3.126 3.126 0 113.456-4.966l8.398-3.9a3.122 3.122 0 01-.144-.94zm-10.625 5a1.877 1.877 0 00-1.326 3.201 1.876 1.876 0 002.652-2.652 1.875 1.875 0 00-1.326-.549zM159.875 27a1.877 1.877 0 00-1.326 3.2 1.877 1.877 0 003.201-1.325A1.877 1.877 0 00159.875 27z" fill="#FF6072"/><path d="M71.597 52.69h-2.34V58h-2.305V45.4h2.305v5.274h2.411l3.618-5.274h2.484l-4.301 6.102L77.933 58h-2.647l-3.69-5.31zm16.63-4.302V58h-2.25v-7.704h-3.6l-.09 1.908c-.06 1.272-.18 2.34-.36 3.204-.168.852-.462 1.53-.882 2.034-.408.492-.972.738-1.692.738-.336 0-.75-.066-1.242-.198l.108-1.89c.168.036.312.054.432.054.456 0 .798-.18 1.026-.54.228-.372.372-.81.432-1.314.072-.516.132-1.248.18-2.196l.162-3.708h7.776zm3.03 0h2.25v6.336l5.31-6.336h2.052V58h-2.25v-6.336L93.327 58h-2.07v-9.612zm21.639 4.86c0 .156-.012.378-.036.666h-7.542c.132.708.474 1.272 1.026 1.692.564.408 1.26.612 2.088.612 1.056 0 1.926-.348 2.61-1.044l1.206 1.386a4.063 4.063 0 01-1.638 1.17c-.66.264-1.404.396-2.232.396-1.056 0-1.986-.21-2.79-.63a4.617 4.617 0 01-1.872-1.746c-.432-.756-.648-1.608-.648-2.556 0-.936.21-1.776.63-2.52a4.578 4.578 0 011.782-1.764c.756-.42 1.608-.63 2.556-.63.936 0 1.77.21 2.502.63a4.25 4.25 0 011.728 1.746c.42.744.63 1.608.63 2.592zm-4.86-3.168c-.72 0-1.332.216-1.836.648-.492.42-.792.984-.9 1.692h5.454c-.096-.696-.39-1.26-.882-1.692-.492-.432-1.104-.648-1.836-.648zm7.321-1.692h2.25v3.906h4.842v-3.906h2.25V58h-2.25v-3.798h-4.842V58h-2.25v-9.612zm19.971 1.908h-3.366V58h-2.25v-7.704h-3.384v-1.908h9v1.908zm15.823-1.908V58h-2.232v-7.704h-4.734V58h-2.25v-9.612h9.216zm12.108 0l-4.5 10.386c-.42 1.044-.93 1.776-1.53 2.196-.6.432-1.326.648-2.178.648a4.47 4.47 0 01-1.422-.234c-.468-.156-.852-.372-1.152-.648l.9-1.656c.216.204.468.366.756.486.3.12.6.18.9.18.396 0 .72-.102.972-.306.264-.204.504-.546.72-1.026l.162-.378-4.194-9.648h2.34l3.024 7.11 3.042-7.11h2.16zm6.677.468c.912 0 1.716.198 2.412.594a4.048 4.048 0 011.62 1.62c.396.696.594 1.494.594 2.394 0 .924-.216 1.746-.648 2.466a4.421 4.421 0 01-1.818 1.656c-.78.396-1.668.594-2.664.594-1.668 0-2.958-.552-3.87-1.656-.912-1.104-1.368-2.694-1.368-4.77 0-1.932.414-3.462 1.242-4.59.828-1.128 2.094-1.872 3.798-2.232l4.464-.954.324 2.016-4.05.828c-1.164.24-2.034.648-2.61 1.224-.576.576-.912 1.386-1.008 2.43a4.35 4.35 0 011.566-1.188 4.675 4.675 0 012.016-.432zm-.45 7.506c.828 0 1.494-.264 1.998-.792.516-.54.774-1.224.774-2.052 0-.828-.258-1.494-.774-1.998-.504-.504-1.17-.756-1.998-.756-.84 0-1.518.252-2.034.756-.516.504-.774 1.17-.774 1.998 0 .84.258 1.524.774 2.052.528.528 1.206.792 2.034.792zm15.86-7.974V58h-2.25v-7.704h-3.6l-.09 1.908c-.06 1.272-.18 2.34-.36 3.204-.168.852-.462 1.53-.882 2.034-.408.492-.972.738-1.692.738-.336 0-.75-.066-1.242-.198l.108-1.89c.168.036.312.054.432.054.456 0 .798-.18 1.026-.54.228-.372.372-.81.432-1.314.072-.516.132-1.248.18-2.196l.162-3.708h7.776zm3.03 0h2.25v6.336l5.31-6.336h2.052V58h-2.25v-6.336L190.446 58h-2.07v-9.612zm16.635 5.76h-1.746V58h-2.25v-9.612h2.25v3.888h1.8l2.844-3.888h2.412l-3.492 4.626L210.555 58h-2.646l-2.898-3.852zm15.658-5.76l-4.5 10.386c-.42 1.044-.93 1.776-1.53 2.196-.6.432-1.326.648-2.178.648a4.47 4.47 0 01-1.422-.234c-.468-.156-.852-.372-1.152-.648l.9-1.656c.216.204.468.366.756.486.3.12.6.18.9.18.396 0 .72-.102.972-.306.264-.204.504-.546.72-1.026l.162-.378-4.194-9.648h2.34l3.024 7.11 3.042-7.11h2.16zm10.299 4.86c0 .156-.012.378-.036.666h-7.542c.132.708.474 1.272 1.026 1.692.564.408 1.26.612 2.088.612 1.056 0 1.926-.348 2.61-1.044l1.206 1.386a4.063 4.063 0 01-1.638 1.17c-.66.264-1.404.396-2.232.396-1.056 0-1.986-.21-2.79-.63a4.617 4.617 0 01-1.872-1.746c-.432-.756-.648-1.608-.648-2.556 0-.936.21-1.776.63-2.52a4.578 4.578 0 011.782-1.764c.756-.42 1.608-.63 2.556-.63.936 0 1.77.21 2.502.63a4.25 4.25 0 011.728 1.746c.42.744.63 1.608.63 2.592zm-4.86-3.168c-.72 0-1.332.216-1.836.648-.492.42-.792.984-.9 1.692h5.454c-.096-.696-.39-1.26-.882-1.692-.492-.432-1.104-.648-1.836-.648zm14.583.216h-3.366V58h-2.25v-7.704h-3.384v-1.908h9v1.908zM66.059 70.388h2.25v3.906h4.842v-3.906h2.25V80h-2.25v-3.798h-4.842V80h-2.25v-9.612zm21.357 4.86c0 .156-.012.378-.036.666h-7.542c.132.708.474 1.272 1.026 1.692.564.408 1.26.612 2.088.612 1.056 0 1.926-.348 2.61-1.044l1.206 1.386a4.063 4.063 0 01-1.638 1.17c-.66.264-1.404.396-2.232.396-1.056 0-1.986-.21-2.79-.63a4.617 4.617 0 01-1.872-1.746c-.432-.756-.648-1.608-.648-2.556 0-.936.21-1.776.63-2.52A4.578 4.578 0 0180 70.91c.756-.42 1.608-.63 2.556-.63.936 0 1.77.21 2.502.63a4.25 4.25 0 011.728 1.746c.42.744.63 1.608.63 2.592zm-4.86-3.168c-.72 0-1.332.216-1.836.648-.492.42-.792.984-.9 1.692h5.454c-.096-.696-.39-1.26-.882-1.692-.492-.432-1.104-.648-1.836-.648zm11.605 8.046c-.972 0-1.848-.21-2.628-.63a4.676 4.676 0 01-1.836-1.746c-.432-.756-.648-1.608-.648-2.556s.216-1.794.648-2.538a4.676 4.676 0 011.836-1.746c.78-.42 1.656-.63 2.628-.63.984 0 1.866.21 2.646.63a4.55 4.55 0 011.818 1.746c.444.744.666 1.59.666 2.538 0 .948-.222 1.8-.666 2.556a4.55 4.55 0 01-1.818 1.746c-.78.42-1.662.63-2.646.63zm0-1.926c.828 0 1.512-.276 2.052-.828.54-.552.81-1.278.81-2.178 0-.9-.27-1.626-.81-2.178s-1.224-.828-2.052-.828c-.828 0-1.512.276-2.052.828-.528.552-.792 1.278-.792 2.178 0 .9.264 1.626.792 2.178.54.552 1.224.828 2.052.828zm12.555-7.344c.912 0 1.716.198 2.412.594a4.048 4.048 0 011.62 1.62c.396.696.594 1.494.594 2.394 0 .924-.216 1.746-.648 2.466a4.421 4.421 0 01-1.818 1.656c-.78.396-1.668.594-2.664.594-1.668 0-2.958-.552-3.87-1.656-.912-1.104-1.368-2.694-1.368-4.77 0-1.932.414-3.462 1.242-4.59.828-1.128 2.094-1.872 3.798-2.232l4.464-.954.324 2.016-4.05.828c-1.164.24-2.034.648-2.61 1.224-.576.576-.912 1.386-1.008 2.43a4.35 4.35 0 011.566-1.188 4.675 4.675 0 012.016-.432zm-.45 7.506c.828 0 1.494-.264 1.998-.792.516-.54.774-1.224.774-2.052 0-.828-.258-1.494-.774-1.998-.504-.504-1.17-.756-1.998-.756-.84 0-1.518.252-2.034.756-.516.504-.774 1.17-.774 1.998 0 .84.258 1.524.774 2.052.528.528 1.206.792 2.034.792zM119.215 80l-2.466-3.33-2.484 3.33h-2.484l3.744-4.878-3.582-4.734h2.502l2.358 3.15 2.358-3.15h2.43l-3.6 4.698L121.753 80h-2.538zm8.116.126c-.972 0-1.848-.21-2.628-.63a4.676 4.676 0 01-1.836-1.746c-.432-.756-.648-1.608-.648-2.556s.216-1.794.648-2.538a4.676 4.676 0 011.836-1.746c.78-.42 1.656-.63 2.628-.63.984 0 1.866.21 2.646.63a4.55 4.55 0 011.818 1.746c.444.744.666 1.59.666 2.538 0 .948-.222 1.8-.666 2.556a4.55 4.55 0 01-1.818 1.746c-.78.42-1.662.63-2.646.63zm0-1.926c.828 0 1.512-.276 2.052-.828.54-.552.81-1.278.81-2.178 0-.9-.27-1.626-.81-2.178s-1.224-.828-2.052-.828c-.828 0-1.512.276-2.052.828-.528.552-.792 1.278-.792 2.178 0 .9.264 1.626.792 2.178.54.552 1.224.828 2.052.828zm17.507-.108v4.05h-2.106V80h-7.416v2.142h-2.088v-4.05h.45c.612-.024 1.026-.414 1.242-1.17.228-.768.378-1.848.45-3.24l.126-3.294h7.92v7.704h1.422zm-7.416-4.248c-.048 1.104-.138 2.004-.27 2.7-.132.696-.372 1.212-.72 1.548h4.734v-5.796h-3.69l-.054 1.548zm9.426-3.456h2.25v6.336l5.31-6.336h2.052V80h-2.25v-6.336L148.918 80h-2.07v-9.612zM168.937 80v-6.372l-3.24 5.364h-.972l-3.186-5.382V80h-2.052v-9.612h2.358l3.42 6.012 3.582-6.012h2.106l.018 9.612h-2.034zm9.732-6.444c1.224 0 2.16.276 2.808.828.648.552.972 1.332.972 2.34 0 1.056-.36 1.872-1.08 2.448-.708.576-1.716.858-3.024.846L173.989 80v-9.612h2.25v3.15l2.43.018zm5.022-3.168h2.25V80h-2.25v-9.612zm-5.544 7.974c.66.012 1.164-.126 1.512-.414.348-.288.522-.708.522-1.26 0-.54-.168-.936-.504-1.188-.336-.252-.846-.384-1.53-.396l-1.908-.018v3.258l1.908.018zm10.818-7.974h2.25v6.336l5.31-6.336h2.052V80h-2.25v-6.336L191.035 80h-2.07v-9.612zm4.662-1.134c-.972 0-1.716-.222-2.232-.666-.504-.456-.762-1.116-.774-1.98h1.494c.012.432.144.774.396 1.026.264.252.63.378 1.098.378.456 0 .816-.126 1.08-.378.276-.252.42-.594.432-1.026h1.53c-.012.864-.276 1.524-.792 1.98-.516.444-1.26.666-2.232.666zm19.917 5.742c1.188.36 1.782 1.128 1.782 2.304 0 .864-.324 1.53-.972 1.998-.648.468-1.608.702-2.88.702h-4.896v-9.612h4.698c1.176 0 2.094.216 2.754.648.66.432.99 1.044.99 1.836 0 .492-.132.918-.396 1.278-.252.36-.612.642-1.08.846zm-4.824-.594h2.358c1.164 0 1.746-.402 1.746-1.206 0-.78-.582-1.17-1.746-1.17h-2.358v2.376zm2.574 3.96c1.236 0 1.854-.402 1.854-1.206 0-.42-.144-.732-.432-.936-.288-.216-.738-.324-1.35-.324h-2.646v2.466h2.574zm10.011-8.082c1.416 0 2.496.342 3.24 1.026.756.672 1.134 1.692 1.134 3.06V80h-2.124v-1.17c-.276.42-.672.744-1.188.972-.504.216-1.116.324-1.836.324s-1.35-.12-1.89-.36c-.54-.252-.96-.594-1.26-1.026a2.686 2.686 0 01-.432-1.494c0-.864.318-1.554.954-2.07.648-.528 1.662-.792 3.042-.792h2.484v-.144c0-.672-.204-1.188-.612-1.548-.396-.36-.99-.54-1.782-.54-.54 0-1.074.084-1.602.252a3.925 3.925 0 00-1.314.702l-.882-1.638c.504-.384 1.11-.678 1.818-.882a8.089 8.089 0 012.25-.306zm-.306 8.208c.564 0 1.062-.126 1.494-.378.444-.264.756-.636.936-1.116v-1.116h-2.322c-1.296 0-1.944.426-1.944 1.278 0 .408.162.732.486.972.324.24.774.36 1.35.36zM237.913 80v-6.372l-3.24 5.364h-.972l-3.186-5.382V80h-2.052v-9.612h2.358l3.42 6.012 3.582-6.012h2.106l.018 9.612h-2.034zM48.975 92.28c.936 0 1.77.204 2.502.612a4.397 4.397 0 011.746 1.728c.42.744.63 1.602.63 2.574 0 .972-.21 1.836-.63 2.592a4.397 4.397 0 01-1.746 1.728c-.732.408-1.566.612-2.502.612-1.296 0-2.322-.432-3.078-1.296v4.662h-2.25V92.388h2.142v1.26a3.495 3.495 0 011.368-1.026 4.717 4.717 0 011.818-.342zm-.252 7.92c.828 0 1.506-.276 2.034-.828.54-.552.81-1.278.81-2.178 0-.9-.27-1.626-.81-2.178-.528-.552-1.206-.828-2.034-.828a2.84 2.84 0 00-1.458.378c-.432.24-.774.588-1.026 1.044-.252.456-.378.984-.378 1.584 0 .6.126 1.128.378 1.584.252.456.594.81 1.026 1.062.432.24.918.36 1.458.36zm16.37-2.952c0 .156-.013.378-.037.666h-7.542c.132.708.474 1.272 1.026 1.692.564.408 1.26.612 2.088.612 1.056 0 1.926-.348 2.61-1.044l1.206 1.386a4.063 4.063 0 01-1.638 1.17c-.66.264-1.404.396-2.232.396-1.056 0-1.986-.21-2.79-.63a4.617 4.617 0 01-1.872-1.746c-.432-.756-.648-1.608-.648-2.556 0-.936.21-1.776.63-2.52a4.578 4.578 0 011.782-1.764c.756-.42 1.608-.63 2.556-.63.936 0 1.77.21 2.502.63a4.25 4.25 0 011.728 1.746c.42.744.63 1.608.63 2.592zm-4.86-3.168c-.72 0-1.333.216-1.837.648-.492.42-.792.984-.9 1.692h5.454c-.096-.696-.39-1.26-.882-1.692-.492-.432-1.104-.648-1.836-.648zm11.316 4.068h-1.746V102h-2.25v-9.612h2.25v3.888h1.8l2.844-3.888h2.412l-3.492 4.626L77.093 102h-2.646l-2.898-3.852zm15.843-5.76V102h-2.25v-7.704h-3.6l-.09 1.908c-.06 1.272-.18 2.34-.36 3.204-.168.852-.462 1.53-.882 2.034-.408.492-.972.738-1.692.738-.336 0-.75-.066-1.242-.198l.108-1.89c.168.036.312.054.432.054.456 0 .798-.18 1.026-.54.228-.372.372-.81.432-1.314.072-.516.132-1.248.18-2.196l.162-3.708h7.776zm6.612-.108c1.416 0 2.496.342 3.24 1.026.756.672 1.134 1.692 1.134 3.06V102h-2.124v-1.17c-.276.42-.672.744-1.188.972-.504.216-1.116.324-1.836.324s-1.35-.12-1.89-.36c-.54-.252-.96-.594-1.26-1.026a2.686 2.686 0 01-.432-1.494c0-.864.318-1.554.954-2.07.648-.528 1.662-.792 3.042-.792h2.484v-.144c0-.672-.204-1.188-.612-1.548-.396-.36-.99-.54-1.782-.54-.54 0-1.074.084-1.602.252a3.925 3.925 0 00-1.314.702l-.882-1.638c.504-.384 1.11-.678 1.818-.882a8.089 8.089 0 012.25-.306zm-.306 8.208c.564 0 1.062-.126 1.494-.378.444-.264.756-.636.936-1.116v-1.116h-2.322c-1.296 0-1.944.426-1.944 1.278 0 .408.162.732.486.972.324.24.774.36 1.35.36zM110.612 102v-6.372l-3.24 5.364h-.972l-3.186-5.382V102h-2.052v-9.612h2.358l3.42 6.012 3.582-6.012h2.106l.018 9.612h-2.034zm5.052-9.612h2.25v3.906h4.842v-3.906h2.25V102h-2.25v-3.798h-4.842V102h-2.25v-9.612zm17.038 3.168c1.224 0 2.16.276 2.808.828.648.552.972 1.332.972 2.34 0 1.056-.36 1.872-1.08 2.448-.708.576-1.716.858-3.024.846l-4.356-.018v-9.612h2.25v3.15l2.43.018zm5.022-3.168h2.25V102h-2.25v-9.612zm-5.544 7.974c.66.012 1.164-.126 1.512-.414.348-.288.522-.708.522-1.26 0-.54-.168-.936-.504-1.188-.336-.252-.846-.384-1.53-.396l-1.908-.018v3.258l1.908.018zm10.818-7.974h2.25v6.336l5.31-6.336h2.052V102h-2.25v-6.336L145.068 102h-2.07v-9.612zm4.662-1.134c-.972 0-1.716-.222-2.232-.666-.504-.456-.762-1.116-.774-1.98h1.494c.012.432.144.774.396 1.026.264.252.63.378 1.098.378.456 0 .816-.126 1.08-.378.276-.252.42-.594.432-1.026h1.53c-.012.864-.276 1.524-.792 1.98-.516.444-1.26.666-2.232.666zm16.948 6.894h-1.746V102h-2.25v-9.612h2.25v3.888h1.8l2.844-3.888h2.412l-3.492 4.626 3.726 4.986h-2.646l-2.898-3.852zm11.098 3.978c-.972 0-1.848-.21-2.628-.63a4.676 4.676 0 01-1.836-1.746c-.432-.756-.648-1.608-.648-2.556s.216-1.794.648-2.538a4.676 4.676 0 011.836-1.746c.78-.42 1.656-.63 2.628-.63.984 0 1.866.21 2.646.63a4.55 4.55 0 011.818 1.746c.444.744.666 1.59.666 2.538 0 .948-.222 1.8-.666 2.556a4.55 4.55 0 01-1.818 1.746c-.78.42-1.662.63-2.646.63zm0-1.926c.828 0 1.512-.276 2.052-.828.54-.552.81-1.278.81-2.178 0-.9-.27-1.626-.81-2.178s-1.224-.828-2.052-.828c-.828 0-1.512.276-2.052.828-.528.552-.792 1.278-.792 2.178 0 .9.264 1.626.792 2.178.54.552 1.224.828 2.052.828zm7.353-7.812h2.25v3.906h4.842v-3.906h2.25V102h-2.25v-3.798h-4.842V102h-2.25v-9.612zm19.971 1.908h-3.366V102h-2.25v-7.704h-3.384v-1.908h9v1.908zm10.211 2.952c0 .156-.012.378-.036.666h-7.542c.132.708.474 1.272 1.026 1.692.564.408 1.26.612 2.088.612 1.056 0 1.926-.348 2.61-1.044l1.206 1.386a4.063 4.063 0 01-1.638 1.17c-.66.264-1.404.396-2.232.396-1.056 0-1.986-.21-2.79-.63a4.617 4.617 0 01-1.872-1.746c-.432-.756-.648-1.608-.648-2.556 0-.936.21-1.776.63-2.52a4.578 4.578 0 011.782-1.764c.756-.42 1.608-.63 2.556-.63.936 0 1.77.21 2.502.63a4.25 4.25 0 011.728 1.746c.42.744.63 1.608.63 2.592zm-4.86-3.168c-.72 0-1.332.216-1.836.648-.492.42-.792.984-.9 1.692h5.454c-.096-.696-.39-1.26-.882-1.692-.492-.432-1.104-.648-1.836-.648zm7.32-1.692h2.25v3.906h4.842v-3.906h2.25V102h-2.25v-3.798h-4.842V102h-2.25v-9.612zm19.972 1.908h-3.366V102h-2.25v-7.704h-3.384v-1.908h9v1.908zm6.607-1.908h2.25v3.906h4.842v-3.906h2.25V102h-2.25v-3.798h-4.842V102h-2.25v-9.612zm15.939-.108c1.416 0 2.496.342 3.24 1.026.756.672 1.134 1.692 1.134 3.06V102h-2.124v-1.17c-.276.42-.672.744-1.188.972-.504.216-1.116.324-1.836.324s-1.35-.12-1.89-.36c-.54-.252-.96-.594-1.26-1.026a2.686 2.686 0 01-.432-1.494c0-.864.318-1.554.954-2.07.648-.528 1.662-.792 3.042-.792h2.484v-.144c0-.672-.204-1.188-.612-1.548-.396-.36-.99-.54-1.782-.54-.54 0-1.074.084-1.602.252a3.925 3.925 0 00-1.314.702l-.882-1.638c.504-.384 1.11-.678 1.818-.882a8.089 8.089 0 012.25-.306zm-.306 8.208c.564 0 1.062-.126 1.494-.378.444-.264.756-.636.936-1.116v-1.116h-2.322c-1.296 0-1.944.426-1.944 1.278 0 .408.162.732.486.972.324.24.774.36 1.35.36zM73.825 124.126c-.996 0-1.89-.21-2.681-.63a4.645 4.645 0 01-1.855-1.746c-.444-.756-.665-1.608-.665-2.556s.222-1.794.666-2.538a4.676 4.676 0 011.835-1.746c.793-.42 1.692-.63 2.7-.63.948 0 1.776.192 2.484.576.72.384 1.26.936 1.62 1.656l-1.728 1.008a2.656 2.656 0 00-1.043-.99 2.72 2.72 0 00-1.35-.342c-.84 0-1.537.276-2.089.828-.551.54-.828 1.266-.828 2.178 0 .912.27 1.644.81 2.196.553.54 1.255.81 2.107.81a2.84 2.84 0 001.35-.324c.42-.228.767-.564 1.043-1.008l1.729 1.008a3.936 3.936 0 01-1.639 1.674c-.707.384-1.53.576-2.465.576zm13.051-5.13c1.188.36 1.782 1.128 1.782 2.304 0 .864-.324 1.53-.972 1.998-.648.468-1.608.702-2.88.702H79.91v-9.612h4.698c1.176 0 2.094.216 2.754.648.66.432.99 1.044.99 1.836 0 .492-.132.918-.396 1.278-.252.36-.612.642-1.08.846zm-4.824-.594h2.358c1.164 0 1.746-.402 1.746-1.206 0-.78-.582-1.17-1.746-1.17h-2.358v2.376zm2.574 3.96c1.236 0 1.854-.402 1.854-1.206 0-.42-.144-.732-.432-.936-.288-.216-.738-.324-1.35-.324h-2.646v2.466h2.574zm10.713 1.764c-.972 0-1.848-.21-2.628-.63a4.676 4.676 0 01-1.836-1.746c-.432-.756-.648-1.608-.648-2.556s.216-1.794.648-2.538a4.676 4.676 0 011.836-1.746c.78-.42 1.656-.63 2.628-.63.984 0 1.866.21 2.646.63a4.55 4.55 0 011.818 1.746c.444.744.666 1.59.666 2.538 0 .948-.222 1.8-.666 2.556a4.55 4.55 0 01-1.818 1.746c-.78.42-1.662.63-2.646.63zm0-1.926c.828 0 1.512-.276 2.052-.828.54-.552.81-1.278.81-2.178 0-.9-.27-1.626-.81-2.178s-1.224-.828-2.052-.828c-.828 0-1.512.276-2.052.828-.528.552-.792 1.278-.792 2.178 0 .9.264 1.626.792 2.178.54.552 1.224.828 2.052.828zm16.353-2.952c0 .156-.012.378-.036.666h-7.542c.132.708.474 1.272 1.026 1.692.564.408 1.26.612 2.088.612 1.056 0 1.926-.348 2.61-1.044l1.206 1.386a4.063 4.063 0 01-1.638 1.17c-.66.264-1.404.396-2.232.396-1.056 0-1.986-.21-2.79-.63a4.617 4.617 0 01-1.872-1.746c-.432-.756-.648-1.608-.648-2.556 0-.936.21-1.776.63-2.52a4.578 4.578 0 011.782-1.764c.756-.42 1.608-.63 2.556-.63.936 0 1.77.21 2.502.63a4.25 4.25 0 011.728 1.746c.42.744.63 1.608.63 2.592zm-4.86-3.168c-.72 0-1.332.216-1.836.648-.492.42-.792.984-.9 1.692h5.454c-.096-.696-.39-1.26-.882-1.692-.492-.432-1.104-.648-1.836-.648zm7.321-1.692h2.25v6.336l5.31-6.336h2.052V124h-2.25v-6.336L116.223 124h-2.07v-9.612zm4.662-1.134c-.972 0-1.716-.222-2.232-.666-.504-.456-.762-1.116-.774-1.98h1.494c.012.432.144.774.396 1.026.264.252.63.378 1.098.378.456 0 .816-.126 1.08-.378.276-.252.42-.594.432-1.026h1.53c-.012.864-.276 1.524-.792 1.98-.516.444-1.26.666-2.232.666zm17.325 10.872c-.996 0-1.89-.21-2.682-.63a4.645 4.645 0 01-1.854-1.746c-.444-.756-.666-1.608-.666-2.556s.222-1.794.666-2.538a4.676 4.676 0 011.836-1.746c.792-.42 1.692-.63 2.7-.63.948 0 1.776.192 2.484.576.72.384 1.26.936 1.62 1.656l-1.728 1.008a2.656 2.656 0 00-1.044-.99 2.72 2.72 0 00-1.35-.342c-.84 0-1.536.276-2.088.828-.552.54-.828 1.266-.828 2.178 0 .912.27 1.644.81 2.196.552.54 1.254.81 2.106.81a2.84 2.84 0 001.35-.324c.42-.228.768-.564 1.044-1.008l1.728 1.008a3.936 3.936 0 01-1.638 1.674c-.708.384-1.53.576-2.466.576zm13.611-7.83h-3.366V124h-2.25v-7.704h-3.384v-1.908h9v1.908zm6.96-2.016c.936 0 1.77.204 2.502.612a4.397 4.397 0 011.746 1.728c.42.744.63 1.602.63 2.574 0 .972-.21 1.836-.63 2.592a4.397 4.397 0 01-1.746 1.728c-.732.408-1.566.612-2.502.612-1.296 0-2.322-.432-3.078-1.296v4.662h-2.25v-13.104h2.142v1.26a3.495 3.495 0 011.368-1.026 4.717 4.717 0 011.818-.342zm-.252 7.92c.828 0 1.506-.276 2.034-.828.54-.552.81-1.278.81-2.178 0-.9-.27-1.626-.81-2.178-.528-.552-1.206-.828-2.034-.828a2.84 2.84 0 00-1.458.378c-.432.24-.774.588-1.026 1.044-.252.456-.378.984-.378 1.584 0 .6.126 1.128.378 1.584.252.456.594.81 1.026 1.062.432.24.918.36 1.458.36zm10.828-7.92c1.416 0 2.496.342 3.24 1.026.756.672 1.134 1.692 1.134 3.06V124h-2.124v-1.17c-.276.42-.672.744-1.188.972-.504.216-1.116.324-1.836.324s-1.35-.12-1.89-.36c-.54-.252-.96-.594-1.26-1.026a2.686 2.686 0 01-.432-1.494c0-.864.318-1.554.954-2.07.648-.528 1.662-.792 3.042-.792h2.484v-.144c0-.672-.204-1.188-.612-1.548-.396-.36-.99-.54-1.782-.54-.54 0-1.074.084-1.602.252a3.925 3.925 0 00-1.314.702l-.882-1.638c.504-.384 1.11-.678 1.818-.882a8.089 8.089 0 012.25-.306zm-.306 8.208c.564 0 1.062-.126 1.494-.378.444-.264.756-.636.936-1.116v-1.116h-2.322c-1.296 0-1.944.426-1.944 1.278 0 .408.162.732.486.972.324.24.774.36 1.35.36zm7.465-8.1h2.25v3.906h4.842v-3.906h2.25V124h-2.25v-3.798h-4.842V124h-2.25v-9.612zm12.357 0h2.25v6.336l5.31-6.336h2.052V124h-2.25v-6.336L188.873 124h-2.07v-9.612zm23.187 7.704v4.122h-2.106V124h-8.442v-9.612h2.25v7.704h4.59v-7.704h2.25v7.704h1.458zm11.002-2.844c0 .156-.012.378-.036.666h-7.542c.132.708.474 1.272 1.026 1.692.564.408 1.26.612 2.088.612 1.056 0 1.926-.348 2.61-1.044l1.206 1.386a4.063 4.063 0 01-1.638 1.17c-.66.264-1.404.396-2.232.396-1.056 0-1.986-.21-2.79-.63a4.617 4.617 0 01-1.872-1.746c-.432-.756-.648-1.608-.648-2.556 0-.936.21-1.776.63-2.52a4.578 4.578 0 011.782-1.764c.756-.42 1.608-.63 2.556-.63.936 0 1.77.21 2.502.63a4.25 4.25 0 011.728 1.746c.42.744.63 1.608.63 2.592zm-4.86-3.168c-.72 0-1.332.216-1.836.648-.492.42-.792.984-.9 1.692h5.454c-.096-.696-.39-1.26-.882-1.692-.492-.432-1.104-.648-1.836-.648zm19.262 2.916c1.188.36 1.782 1.128 1.782 2.304 0 .864-.324 1.53-.972 1.998-.648.468-1.608.702-2.88.702h-4.896v-9.612h4.698c1.176 0 2.094.216 2.754.648.66.432.99 1.044.99 1.836 0 .492-.132.918-.396 1.278-.252.36-.612.642-1.08.846zm-4.824-.594h2.358c1.164 0 1.746-.402 1.746-1.206 0-.78-.582-1.17-1.746-1.17h-2.358v2.376zm2.574 3.96c1.236 0 1.854-.402 1.854-1.206 0-.42-.144-.732-.432-.936-.288-.216-.738-.324-1.35-.324h-2.646v2.466h2.574zM28.456 146.126c-.996 0-1.89-.21-2.682-.63a4.645 4.645 0 01-1.854-1.746c-.444-.756-.666-1.608-.666-2.556s.222-1.794.666-2.538a4.676 4.676 0 011.836-1.746c.792-.42 1.692-.63 2.7-.63.948 0 1.776.192 2.484.576.72.384 1.26.936 1.62 1.656l-1.728 1.008a2.656 2.656 0 00-1.044-.99 2.72 2.72 0 00-1.35-.342c-.84 0-1.536.276-2.088.828-.552.54-.828 1.266-.828 2.178 0 .912.27 1.644.81 2.196.552.54 1.254.81 2.106.81a2.84 2.84 0 001.35-.324c.42-.228.768-.564 1.044-1.008l1.728 1.008a3.936 3.936 0 01-1.638 1.674c-.708.384-1.53.576-2.466.576zm10.229 0c-.972 0-1.848-.21-2.628-.63a4.676 4.676 0 01-1.836-1.746c-.432-.756-.648-1.608-.648-2.556s.216-1.794.648-2.538a4.676 4.676 0 011.836-1.746c.78-.42 1.656-.63 2.628-.63.984 0 1.866.21 2.646.63a4.55 4.55 0 011.818 1.746c.444.744.666 1.59.666 2.538 0 .948-.222 1.8-.666 2.556a4.55 4.55 0 01-1.818 1.746c-.78.42-1.662.63-2.646.63zm0-1.926c.828 0 1.512-.276 2.052-.828.54-.552.81-1.278.81-2.178 0-.9-.27-1.626-.81-2.178s-1.224-.828-2.052-.828c-.828 0-1.512.276-2.052.828-.528.552-.792 1.278-.792 2.178 0 .9.264 1.626.792 2.178.54.552 1.224.828 2.052.828zm17.9-.108v4.122H54.48V146h-8.442v-9.612h2.25v7.704h4.59v-7.704h2.25v7.704h1.458zm2.003-7.704h2.25v6.336l5.31-6.336H68.2V146h-2.25v-6.336L60.658 146h-2.07v-9.612zm16.22-.108c1.417 0 2.497.342 3.24 1.026.757.672 1.135 1.692 1.135 3.06V146h-2.124v-1.17c-.276.42-.672.744-1.188.972-.504.216-1.116.324-1.836.324s-1.35-.12-1.89-.36c-.54-.252-.96-.594-1.26-1.026a2.686 2.686 0 01-.432-1.494c0-.864.318-1.554.954-2.07.648-.528 1.662-.792 3.042-.792h2.484v-.144c0-.672-.204-1.188-.612-1.548-.396-.36-.99-.54-1.782-.54-.54 0-1.074.084-1.602.252a3.925 3.925 0 00-1.314.702l-.882-1.638c.504-.384 1.11-.678 1.818-.882a8.089 8.089 0 012.25-.306zm-.305 8.208c.564 0 1.062-.126 1.494-.378.444-.264.756-.636.936-1.116v-1.116H74.61c-1.296 0-1.944.426-1.944 1.278 0 .408.162.732.486.972.324.24.774.36 1.35.36zm16.176-8.1V146h-2.25v-7.704h-3.6l-.09 1.908c-.06 1.272-.18 2.34-.36 3.204-.168.852-.462 1.53-.882 2.034-.408.492-.972.738-1.692.738-.336 0-.75-.066-1.242-.198l.108-1.89c.168.036.312.054.432.054.456 0 .798-.18 1.026-.54.228-.372.372-.81.432-1.314.072-.516.132-1.248.18-2.196l.162-3.708h7.776zm7.854 3.168c1.224 0 2.16.276 2.808.828.66.552.99 1.332.99 2.34 0 1.056-.36 1.872-1.08 2.448-.72.576-1.734.858-3.042.846l-4.5-.018v-9.612h2.25v3.15l2.574.018zm-.522 4.806c.66.012 1.164-.126 1.512-.414.348-.288.522-.708.522-1.26 0-.54-.168-.936-.504-1.188-.336-.252-.846-.384-1.53-.396l-2.052-.018v3.258l2.052.018zm6.298-7.974h2.25v3.906h4.842v-3.906h2.25V146h-2.25v-3.798h-4.842V146h-2.25v-9.612zm17.037 3.168c1.224 0 2.16.276 2.808.828.648.552.972 1.332.972 2.34 0 1.056-.36 1.872-1.08 2.448-.708.576-1.716.858-3.024.846l-4.356-.018v-9.612h2.25v3.15l2.43.018zm5.022-3.168h2.25V146h-2.25v-9.612zm-5.544 7.974c.66.012 1.164-.126 1.512-.414.348-.288.522-.708.522-1.26 0-.54-.168-.936-.504-1.188-.336-.252-.846-.384-1.53-.396l-1.908-.018v3.258l1.908.018zM137.655 146l-2.466-3.33-2.484 3.33h-2.484l3.744-4.878-3.582-4.734h2.502l2.358 3.15 2.358-3.15h2.43l-3.6 4.698 3.762 4.914h-2.538zm13.497.126c-.996 0-1.89-.21-2.682-.63a4.645 4.645 0 01-1.854-1.746c-.444-.756-.666-1.608-.666-2.556s.222-1.794.666-2.538a4.676 4.676 0 011.836-1.746c.792-.42 1.692-.63 2.7-.63.948 0 1.776.192 2.484.576.72.384 1.26.936 1.62 1.656l-1.728 1.008a2.656 2.656 0 00-1.044-.99 2.72 2.72 0 00-1.35-.342c-.84 0-1.536.276-2.088.828-.552.54-.828 1.266-.828 2.178 0 .912.27 1.644.81 2.196.552.54 1.254.81 2.106.81a2.84 2.84 0 001.35-.324c.42-.228.768-.564 1.044-1.008l1.728 1.008a3.936 3.936 0 01-1.638 1.674c-.708.384-1.53.576-2.466.576zm14.944-4.878c0 .156-.012.378-.036.666h-7.542c.132.708.474 1.272 1.026 1.692.564.408 1.26.612 2.088.612 1.056 0 1.926-.348 2.61-1.044l1.206 1.386a4.063 4.063 0 01-1.638 1.17c-.66.264-1.404.396-2.232.396-1.056 0-1.986-.21-2.79-.63a4.617 4.617 0 01-1.872-1.746c-.432-.756-.648-1.608-.648-2.556 0-.936.21-1.776.63-2.52a4.578 4.578 0 011.782-1.764c.756-.42 1.608-.63 2.556-.63.936 0 1.77.21 2.502.63a4.25 4.25 0 011.728 1.746c.42.744.63 1.608.63 2.592zm-4.86-3.168c-.72 0-1.332.216-1.836.648-.492.42-.792.984-.9 1.692h5.454c-.096-.696-.39-1.26-.882-1.692-.492-.432-1.104-.648-1.836-.648zm14.583.216h-3.366V146h-2.25v-7.704h-3.384v-1.908h9v1.908zm9.627-1.908V146h-2.016v-2.898h-2.538L178.93 146h-2.412l2.268-3.204c-.696-.24-1.23-.606-1.602-1.098-.36-.504-.54-1.122-.54-1.854 0-1.104.39-1.956 1.17-2.556.78-.6 1.854-.9 3.222-.9h4.41zm-4.338 1.89c-1.452 0-2.178.546-2.178 1.638 0 1.08.702 1.62 2.106 1.62h2.394v-3.258h-2.322zM194.485 146l-2.466-3.33-2.484 3.33h-2.484l3.744-4.878-3.582-4.734h2.502l2.358 3.15 2.358-3.15h2.43l-3.6 4.698 3.762 4.914h-2.538zm9.123-9.612h2.25v6.336l5.31-6.336h2.052V146h-2.25v-6.336L205.678 146h-2.07v-9.612zm21.987 9.738c-.996 0-1.89-.21-2.682-.63a4.645 4.645 0 01-1.854-1.746c-.444-.756-.666-1.608-.666-2.556s.222-1.794.666-2.538a4.676 4.676 0 011.836-1.746c.792-.42 1.692-.63 2.7-.63.948 0 1.776.192 2.484.576.72.384 1.26.936 1.62 1.656l-1.728 1.008a2.656 2.656 0 00-1.044-.99 2.72 2.72 0 00-1.35-.342c-.84 0-1.536.276-2.088.828-.552.54-.828 1.266-.828 2.178 0 .912.27 1.644.81 2.196.552.54 1.254.81 2.106.81a2.84 2.84 0 001.35-.324c.42-.228.768-.564 1.044-1.008l1.728 1.008a3.936 3.936 0 01-1.638 1.674c-.708.384-1.53.576-2.466.576zm15.301-9.738V146h-2.232v-7.704h-4.734V146h-2.25v-9.612h9.216zm12.108 0l-4.5 10.386c-.42 1.044-.93 1.776-1.53 2.196-.6.432-1.326.648-2.178.648a4.47 4.47 0 01-1.422-.234c-.468-.156-.852-.372-1.152-.648l.9-1.656c.216.204.468.366.756.486.3.12.6.18.9.18.396 0 .72-.102.972-.306.264-.204.504-.546.72-1.026l.162-.378-4.194-9.648h2.34l3.024 7.11 3.042-7.11h2.16zm5.673 9.738c-.996 0-1.89-.21-2.682-.63a4.645 4.645 0 01-1.854-1.746c-.444-.756-.666-1.608-.666-2.556s.222-1.794.666-2.538a4.676 4.676 0 011.836-1.746c.792-.42 1.692-.63 2.7-.63.948 0 1.776.192 2.484.576.72.384 1.26.936 1.62 1.656l-1.728 1.008a2.656 2.656 0 00-1.044-.99 2.72 2.72 0 00-1.35-.342c-.84 0-1.536.276-2.088.828-.552.54-.828 1.266-.828 2.178 0 .912.27 1.644.81 2.196.552.54 1.254.81 2.106.81a2.84 2.84 0 001.35-.324c.42-.228.768-.564 1.044-1.008l1.728 1.008a3.936 3.936 0 01-1.638 1.674c-.708.384-1.53.576-2.466.576zm13.611-7.83h-3.366V146h-2.25v-7.704h-3.384v-1.908h9v1.908zm9.627-1.908V146h-2.016v-2.898h-2.538L275.399 146h-2.412l2.268-3.204c-.696-.24-1.23-.606-1.602-1.098-.36-.504-.54-1.122-.54-1.854 0-1.104.39-1.956 1.17-2.556.78-.6 1.854-.9 3.222-.9h4.41zm-4.338 1.89c-1.452 0-2.178.546-2.178 1.638 0 1.08.702 1.62 2.106 1.62h2.394v-3.258h-2.322zM42.71 166.02V168h-9.288v-1.566l5.004-4.752c.564-.54.942-1.008 1.134-1.404.204-.408.306-.81.306-1.206 0-.588-.198-1.038-.594-1.35-.396-.312-.978-.468-1.746-.468-1.284 0-2.268.438-2.952 1.314l-1.638-1.26c.492-.66 1.152-1.17 1.98-1.53.84-.372 1.776-.558 2.808-.558 1.368 0 2.46.324 3.276.972.816.648 1.224 1.53 1.224 2.646 0 .684-.144 1.326-.432 1.926-.288.6-.84 1.284-1.656 2.052l-3.366 3.204h5.94zm12.319-.882h-2.232V168h-2.268v-2.862h-6.912v-1.62l6.21-8.118h2.502l-5.85 7.758H50.6v-2.538h2.196v2.538h2.232v1.98zm14.833-6.75V168h-2.25v-3.726a6.612 6.612 0 01-2.898.666c-1.236 0-2.184-.282-2.844-.846-.66-.576-.99-1.452-.99-2.628v-3.078h2.25v2.934c0 .612.18 1.068.54 1.368.36.3.87.45 1.53.45.84 0 1.644-.18 2.412-.54v-4.212h2.25zm6.608-.108c1.416 0 2.496.342 3.24 1.026.756.672 1.134 1.692 1.134 3.06V168H78.72v-1.17c-.276.42-.672.744-1.188.972-.504.216-1.116.324-1.836.324s-1.35-.12-1.89-.36c-.54-.252-.96-.594-1.26-1.026a2.686 2.686 0 01-.432-1.494c0-.864.318-1.554.954-2.07.648-.528 1.662-.792 3.042-.792h2.484v-.144c0-.672-.204-1.188-.612-1.548-.396-.36-.99-.54-1.782-.54-.54 0-1.074.084-1.602.252a3.925 3.925 0 00-1.314.702l-.882-1.638c.504-.384 1.11-.678 1.818-.882a8.089 8.089 0 012.25-.306zm-.306 8.208c.564 0 1.062-.126 1.494-.378.444-.264.756-.636.936-1.116v-1.116h-2.322c-1.296 0-1.944.426-1.944 1.278 0 .408.162.732.486.972.324.24.774.36 1.35.36zm11.838 1.638c-.996 0-1.89-.21-2.682-.63a4.645 4.645 0 01-1.854-1.746c-.444-.756-.666-1.608-.666-2.556s.222-1.794.666-2.538a4.676 4.676 0 011.836-1.746c.792-.42 1.692-.63 2.7-.63.948 0 1.776.192 2.484.576.72.384 1.26.936 1.62 1.656l-1.728 1.008a2.656 2.656 0 00-1.044-.99 2.72 2.72 0 00-1.35-.342c-.84 0-1.536.276-2.088.828-.552.54-.828 1.266-.828 2.178 0 .912.27 1.644.81 2.196.552.54 1.254.81 2.106.81a2.84 2.84 0 001.35-.324c.42-.228.768-.564 1.044-1.008l1.728 1.008a3.936 3.936 0 01-1.638 1.674c-.708.384-1.53.576-2.466.576zm9.667-9.846c1.416 0 2.496.342 3.24 1.026.756.672 1.134 1.692 1.134 3.06V168h-2.124v-1.17c-.276.42-.672.744-1.188.972-.504.216-1.116.324-1.836.324s-1.35-.12-1.89-.36c-.54-.252-.96-.594-1.26-1.026a2.686 2.686 0 01-.432-1.494c0-.864.318-1.554.954-2.07.648-.528 1.662-.792 3.042-.792h2.484v-.144c0-.672-.204-1.188-.612-1.548-.396-.36-.99-.54-1.782-.54-.54 0-1.074.084-1.602.252a3.925 3.925 0 00-1.314.702l-.882-1.638c.504-.384 1.11-.678 1.818-.882a8.089 8.089 0 012.25-.306zm-.306 8.208c.564 0 1.062-.126 1.494-.378.444-.264.756-.636.936-1.116v-1.116h-2.322c-1.296 0-1.944.426-1.944 1.278 0 .408.162.732.486.972.324.24.774.36 1.35.36zm21.655-8.1V168h-2.232v-7.704h-4.734V168h-2.25v-9.612h9.216zm7.32 9.738c-.972 0-1.848-.21-2.628-.63a4.676 4.676 0 01-1.836-1.746c-.432-.756-.648-1.608-.648-2.556s.216-1.794.648-2.538a4.676 4.676 0 011.836-1.746c.78-.42 1.656-.63 2.628-.63.984 0 1.866.21 2.646.63a4.55 4.55 0 011.818 1.746c.444.744.666 1.59.666 2.538 0 .948-.222 1.8-.666 2.556a4.55 4.55 0 01-1.818 1.746c-.78.42-1.662.63-2.646.63zm0-1.926c.828 0 1.512-.276 2.052-.828.54-.552.81-1.278.81-2.178 0-.9-.27-1.626-.81-2.178s-1.224-.828-2.052-.828c-.828 0-1.512.276-2.052.828-.528.552-.792 1.278-.792 2.178 0 .9.264 1.626.792 2.178.54.552 1.224.828 2.052.828zm15.959-7.812V168h-2.25v-7.704h-3.6l-.09 1.908c-.06 1.272-.18 2.34-.36 3.204-.168.852-.462 1.53-.882 2.034-.408.492-.972.738-1.692.738-.336 0-.75-.066-1.242-.198l.108-1.89c.168.036.312.054.432.054.456 0 .798-.18 1.026-.54.228-.372.372-.81.432-1.314.072-.516.132-1.248.18-2.196l.162-3.708h7.776zm12.102 0l-4.5 10.386c-.42 1.044-.93 1.776-1.53 2.196-.6.432-1.326.648-2.178.648a4.47 4.47 0 01-1.422-.234c-.468-.156-.852-.372-1.152-.648l.9-1.656c.216.204.468.366.756.486.3.12.6.18.9.18.396 0 .72-.102.972-.306.264-.204.504-.546.72-1.026l.162-.378-4.194-9.648h2.34l3.024 7.11 3.042-7.11h2.16zm9.717 0V168h-2.25v-3.726a6.612 6.612 0 01-2.898.666c-1.236 0-2.184-.282-2.844-.846-.66-.576-.99-1.452-.99-2.628v-3.078h2.25v2.934c0 .612.18 1.068.54 1.368.36.3.87.45 1.53.45.84 0 1.644-.18 2.412-.54v-4.212h2.25zm6.608-.108c1.416 0 2.496.342 3.24 1.026.756.672 1.134 1.692 1.134 3.06V168h-2.124v-1.17c-.276.42-.672.744-1.188.972-.504.216-1.116.324-1.836.324s-1.35-.12-1.89-.36c-.54-.252-.96-.594-1.26-1.026a2.686 2.686 0 01-.432-1.494c0-.864.318-1.554.954-2.07.648-.528 1.662-.792 3.042-.792h2.484v-.144c0-.672-.204-1.188-.612-1.548-.396-.36-.99-.54-1.782-.54-.54 0-1.074.084-1.602.252a3.925 3.925 0 00-1.314.702l-.882-1.638c.504-.384 1.11-.678 1.818-.882a8.089 8.089 0 012.25-.306zm-.306 8.208c.564 0 1.062-.126 1.494-.378.444-.264.756-.636.936-1.116v-1.116h-2.322c-1.296 0-1.944.426-1.944 1.278 0 .408.162.732.486.972.324.24.774.36 1.35.36zm16.464-3.24c0 .156-.012.378-.036.666h-7.542c.132.708.474 1.272 1.026 1.692.564.408 1.26.612 2.088.612 1.056 0 1.926-.348 2.61-1.044l1.206 1.386a4.063 4.063 0 01-1.638 1.17c-.66.264-1.404.396-2.232.396-1.056 0-1.986-.21-2.79-.63a4.617 4.617 0 01-1.872-1.746c-.432-.756-.648-1.608-.648-2.556 0-.936.21-1.776.63-2.52a4.578 4.578 0 011.782-1.764c.756-.42 1.608-.63 2.556-.63.936 0 1.77.21 2.502.63a4.25 4.25 0 011.728 1.746c.42.744.63 1.608.63 2.592zm-4.86-3.168c-.72 0-1.332.216-1.836.648-.492.42-.792.984-.9 1.692h5.454c-.096-.696-.39-1.26-.882-1.692-.492-.432-1.104-.648-1.836-.648zm14.583.216h-3.366V168h-2.25v-7.704h-3.384v-1.908h9v1.908zm10.981 7.83c-.996 0-1.89-.21-2.682-.63a4.645 4.645 0 01-1.854-1.746c-.444-.756-.666-1.608-.666-2.556s.222-1.794.666-2.538a4.676 4.676 0 011.836-1.746c.792-.42 1.692-.63 2.7-.63.948 0 1.776.192 2.484.576.72.384 1.26.936 1.62 1.656l-1.728 1.008a2.656 2.656 0 00-1.044-.99 2.72 2.72 0 00-1.35-.342c-.84 0-1.536.276-2.088.828-.552.54-.828 1.266-.828 2.178 0 .912.27 1.644.81 2.196.552.54 1.254.81 2.106.81a2.84 2.84 0 001.35-.324c.42-.228.768-.564 1.044-1.008l1.728 1.008a3.936 3.936 0 01-1.638 1.674c-.708.384-1.53.576-2.466.576zm10.081-3.978h-1.746V168h-2.25v-9.612h2.25v3.888h1.8l2.844-3.888h2.412l-3.492 4.626 3.726 4.986h-2.646l-2.898-3.852zm7.131-5.76h2.25v6.336l5.31-6.336h2.052V168h-2.25v-6.336L226.868 168h-2.07v-9.612zm22.899 7.704v4.05h-2.106V168h-7.416v2.142h-2.088v-4.05h.45c.612-.024 1.026-.414 1.242-1.17.228-.768.378-1.848.45-3.24l.126-3.294h7.92v7.704h1.422zm-7.416-4.248c-.048 1.104-.138 2.004-.27 2.7-.132.696-.372 1.212-.72 1.548h4.734v-5.796h-3.69l-.054 1.548zm13.421 2.304h-1.746V168h-2.25v-9.612h2.25v3.888h1.8l2.844-3.888h2.412l-3.492 4.626 3.726 4.986H256.6l-2.898-3.852zm15.658-5.76l-4.5 10.386c-.42 1.044-.93 1.776-1.53 2.196-.6.432-1.326.648-2.178.648a4.47 4.47 0 01-1.422-.234c-.468-.156-.852-.372-1.152-.648l.9-1.656c.216.204.468.366.756.486.3.12.6.18.9.18.396 0 .72-.102.972-.306.264-.204.504-.546.72-1.026l.162-.378-4.194-9.648h2.34l3.024 7.11 3.042-7.11h2.16zm1.649 9.738c-.408 0-.756-.138-1.044-.414a1.465 1.465 0 01-.432-1.08c0-.444.138-.804.414-1.08a1.476 1.476 0 011.062-.414c.42 0 .768.138 1.044.414.288.276.432.636.432 1.08 0 .432-.144.792-.432 1.08a1.454 1.454 0 01-1.044.414z" fill="#333"/></svg>