<svg width="330" height="54" viewBox="0 0 330 54" fill="none" xmlns="http://www.w3.org/2000/svg"><rect width="330" height="54" rx="10" fill="url(#paint0_linear)"/><path d="M77.937 33.216c-1.308 0-2.49-.282-3.546-.846a6.382 6.382 0 01-2.466-2.322c-.588-.996-.882-2.112-.882-3.348 0-1.236.294-2.346.882-3.33a6.34 6.34 0 012.466-2.34c1.056-.564 2.238-.846 3.546-.846 1.308 0 2.484.282 3.528.846a6.34 6.34 0 012.466 2.34c.6.984.9 2.094.9 3.33 0 1.236-.3 2.352-.9 3.348a6.382 6.382 0 01-2.466 2.322c-1.044.564-2.22.846-3.528.846zm0-2.484c.744 0 1.416-.168 2.016-.504a3.682 3.682 0 001.404-1.44c.348-.612.522-1.308.522-2.088s-.174-1.476-.522-2.088a3.558 3.558 0 00-1.404-1.422 3.944 3.944 0 00-2.016-.522c-.744 0-1.416.174-2.016.522a3.68 3.68 0 00-1.422 1.422c-.336.612-.504 1.308-.504 2.088s.168 1.476.504 2.088a3.81 3.81 0 001.422 1.44c.6.336 1.272.504 2.016.504zm15.099 2.484c-1.284 0-2.448-.276-3.492-.828a6.416 6.416 0 01-2.448-2.322c-.588-.996-.882-2.118-.882-3.366 0-1.248.294-2.364.882-3.348a6.242 6.242 0 012.448-2.322c1.044-.564 2.214-.846 3.51-.846 1.092 0 2.076.192 2.952.576a5.915 5.915 0 012.232 1.656l-1.872 1.728c-.852-.984-1.908-1.476-3.168-1.476-.78 0-1.476.174-2.088.522a3.647 3.647 0 00-1.44 1.422c-.336.612-.504 1.308-.504 2.088s.168 1.476.504 2.088a3.773 3.773 0 001.44 1.44c.612.336 1.308.504 2.088.504 1.26 0 2.316-.498 3.168-1.494l1.872 1.728a5.835 5.835 0 01-2.232 1.674c-.888.384-1.878.576-2.97.576zm16.609-10.44h-4.032V33h-2.88V22.776h-4.014V20.4h10.926v2.376zm9.73 7.524h-5.85l-1.116 2.7h-2.988l5.616-12.6h2.88l5.634 12.6h-3.06l-1.116-2.7zm-.918-2.214l-1.998-4.824-1.998 4.824h3.996zm15.495-1.656c.768.228 1.356.6 1.764 1.116.408.516.612 1.152.612 1.908 0 1.116-.426 1.986-1.278 2.61-.84.624-2.046.936-3.618.936h-6.21V20.4h5.868c1.464 0 2.604.282 3.42.846.816.564 1.224 1.368 1.224 2.412 0 .624-.156 1.176-.468 1.656-.312.468-.75.84-1.314 1.116zm-5.832-.81h2.718c.636 0 1.116-.126 1.44-.378.324-.264.486-.648.486-1.152 0-.492-.168-.87-.504-1.134-.324-.264-.798-.396-1.422-.396h-2.718v3.06zm3.204 5.22c1.368 0 2.052-.54 2.052-1.62 0-1.044-.684-1.566-2.052-1.566h-3.204v3.186h3.204zm7.31-10.44h2.898v8.208l6.012-8.208h2.736V33h-2.88v-8.19L141.388 33h-2.754V20.4zm24.414 2.376h-4.032V33h-2.88V22.776h-4.014V20.4h10.926v2.376zm7.933 1.764c1.536 0 2.712.342 3.528 1.026.828.684 1.242 1.698 1.242 3.042 0 1.428-.456 2.52-1.368 3.276-.9.744-2.172 1.116-3.816 1.116h-5.688V20.4h2.898v4.14h3.204zm-.576 6.3c.756 0 1.344-.186 1.764-.558.432-.372.647-.912.647-1.62 0-1.308-.803-1.962-2.411-1.962h-2.628v4.14h2.628zm19.708-4.41c.732.252 1.302.648 1.71 1.188.42.528.63 1.146.63 1.854a2.9 2.9 0 01-.756 1.998c-.504.564-1.188.996-2.052 1.296-.852.3-1.788.45-2.808.45-.864 0-1.728-.108-2.592-.324a9.496 9.496 0 01-2.43-.99l.9-2.088a7.036 7.036 0 001.818.774 8.076 8.076 0 001.962.252c.864 0 1.578-.156 2.142-.468.576-.312.864-.75.864-1.314 0-.468-.198-.822-.594-1.062-.384-.24-.912-.36-1.584-.36h-3.078V25.44h2.862c.588 0 1.044-.12 1.368-.36.336-.24.504-.57.504-.99 0-.492-.24-.876-.72-1.152-.468-.276-1.074-.414-1.818-.414-.552 0-1.122.078-1.71.234a6.505 6.505 0 00-1.674.666l-.882-2.268a9.32 9.32 0 014.32-1.026c.984 0 1.89.144 2.718.432.828.288 1.488.708 1.98 1.26s.738 1.194.738 1.926c0 .6-.162 1.134-.486 1.602a3.132 3.132 0 01-1.332 1.08zm13.18 3.87h-5.85l-1.116 2.7h-2.988l5.616-12.6h2.88l5.634 12.6h-3.06l-1.116-2.7zm-.918-2.214l-1.998-4.824-1.998 4.824h3.996zm16.177-7.686V33h-2.88v-3.348h-2.664L210.776 33h-3.078l2.628-3.798c-.852-.348-1.506-.87-1.962-1.566-.456-.708-.684-1.554-.684-2.538 0-.972.222-1.806.666-2.502.444-.708 1.074-1.248 1.89-1.62.816-.384 1.776-.576 2.88-.576h5.436zm-5.364 2.376c-.828 0-1.464.192-1.908.576-.432.384-.648.954-.648 1.71 0 .732.21 1.296.63 1.692.42.396 1.038.594 1.854.594h2.556v-4.572h-2.484zm17.251 3.654c.768.228 1.356.6 1.764 1.116.408.516.612 1.152.612 1.908 0 1.116-.426 1.986-1.278 2.61-.84.624-2.046.936-3.618.936h-6.21V20.4h5.868c1.464 0 2.604.282 3.42.846.816.564 1.224 1.368 1.224 2.412 0 .624-.156 1.176-.468 1.656-.312.468-.75.84-1.314 1.116zm-5.832-.81h2.718c.636 0 1.116-.126 1.44-.378.324-.264.486-.648.486-1.152 0-.492-.168-.87-.504-1.134-.324-.264-.798-.396-1.422-.396h-2.718v3.06zm3.204 5.22c1.368 0 2.052-.54 2.052-1.62 0-1.044-.684-1.566-2.052-1.566h-3.204v3.186h3.204zm12.188-2.916h-2.016V33h-2.898V20.4h2.898v5.094h2.088l3.312-5.094h3.078l-4.122 6.084L246.587 33h-3.312l-3.276-5.076zm19.558-7.524l-5.364 9.972c-.516.96-1.14 1.686-1.872 2.178a4.093 4.093 0 01-2.358.738c-.66 0-1.344-.144-2.052-.432l.702-2.214c.504.156.924.234 1.26.234.36 0 .684-.084.972-.252.288-.18.552-.456.792-.828l.108-.144-4.968-9.252h3.114l3.348 6.768 3.456-6.768h2.862z" fill="#fff"/><defs><linearGradient id="paint0_linear" x1="-108" y1="-158.5" x2="330" y2="122.5" gradientUnits="userSpaceOnUse"><stop stop-color="#FC3B3B"/><stop offset="1" stop-color="#FFCF3B"/></linearGradient></defs></svg>