<svg width="44" height="30" viewBox="0 0 44 30" fill="none" xmlns="http://www.w3.org/2000/svg"><path d="M1.888 8.4h2.304v8.946L10.96 8.4h2.178V21h-2.304v-8.928L4.066 21H1.888V8.4zm25.424 0V21h-2.304V10.38H20.04l-.108 3.15c-.06 1.764-.204 3.198-.432 4.302-.228 1.092-.594 1.926-1.098 2.502-.504.564-1.2.846-2.088.846-.312 0-.738-.06-1.278-.18l.162-2.034c.156.048.336.072.54.072.732 0 1.248-.432 1.548-1.296.312-.876.504-2.25.576-4.122l.18-5.22h9.27zm3.563 0h2.304v8.946L39.947 8.4h2.178V21H39.82v-8.928L33.053 21h-2.178V8.4z" fill="#000"/></svg>