<svg width="330" height="54" viewBox="0 0 330 54" fill="none" xmlns="http://www.w3.org/2000/svg"><rect width="330" height="54" rx="10" fill="url(#paint0_linear)"/><path d="M63.264 22.776h-4.032V33h-2.88V22.776h-4.014V20.4h10.926v2.376zm11.587 7.884V33h-9.756V20.4h9.522v2.34h-6.624v2.736h5.85v2.268h-5.85v2.916h6.858zm8.278 2.556c-1.284 0-2.448-.276-3.492-.828a6.416 6.416 0 01-2.448-2.322c-.587-.996-.881-2.118-.881-3.366 0-1.248.293-2.364.881-3.348a6.242 6.242 0 012.449-2.322c1.043-.564 2.213-.846 3.51-.846 1.092 0 2.076.192 2.952.576a5.915 5.915 0 012.232 1.656l-1.872 1.728c-.852-.984-1.908-1.476-3.168-1.476-.78 0-1.477.174-2.088.522a3.647 3.647 0 00-1.44 1.422c-.337.612-.504 1.308-.504 2.088s.167 1.476.503 2.088a3.773 3.773 0 001.44 1.44c.612.336 1.308.504 2.088.504 1.26 0 2.317-.498 3.169-1.494l1.872 1.728A5.835 5.835 0 0186.1 32.64c-.888.384-1.878.576-2.97.576zm16.61-10.44h-4.032V33h-2.88V22.776h-4.014V20.4h10.926v2.376zm1.831-2.376h2.898v8.208l6.012-8.208h2.736V33h-2.88v-8.19L104.324 33h-2.754V20.4zm20.237 0c1.116 0 2.082.186 2.898.558.828.372 1.464.9 1.908 1.584.444.684.666 1.494.666 2.43 0 .924-.222 1.734-.666 2.43-.444.684-1.08 1.212-1.908 1.584-.816.36-1.782.54-2.898.54h-2.538V33h-2.916V20.4h5.454zm-.162 6.75c.876 0 1.542-.186 1.998-.558.456-.384.684-.924.684-1.62 0-.708-.228-1.248-.684-1.62-.456-.384-1.122-.576-1.998-.576h-2.376v4.374h2.376zm13.746 6.066c-1.308 0-2.49-.282-3.546-.846a6.382 6.382 0 01-2.466-2.322c-.588-.996-.882-2.112-.882-3.348 0-1.236.294-2.346.882-3.33a6.34 6.34 0 012.466-2.34c1.056-.564 2.238-.846 3.546-.846 1.308 0 2.484.282 3.528.846a6.34 6.34 0 012.466 2.34c.6.984.9 2.094.9 3.33 0 1.236-.3 2.352-.9 3.348a6.382 6.382 0 01-2.466 2.322c-1.044.564-2.22.846-3.528.846zm0-2.484c.744 0 1.416-.168 2.016-.504a3.682 3.682 0 001.404-1.44c.348-.612.522-1.308.522-2.088s-.174-1.476-.522-2.088a3.558 3.558 0 00-1.404-1.422 3.944 3.944 0 00-2.016-.522c-.744 0-1.416.174-2.016.522a3.68 3.68 0 00-1.422 1.422c-.336.612-.504 1.308-.504 2.088s.168 1.476.504 2.088a3.81 3.81 0 001.422 1.44c.6.336 1.272.504 2.016.504zm17.87-4.302c.768.228 1.356.6 1.764 1.116.408.516.612 1.152.612 1.908 0 1.116-.426 1.986-1.278 2.61-.84.624-2.046.936-3.618.936h-6.21V20.4h5.868c1.464 0 2.604.282 3.42.846.816.564 1.224 1.368 1.224 2.412 0 .624-.156 1.176-.468 1.656-.312.468-.75.84-1.314 1.116zm-5.832-.81h2.718c.636 0 1.116-.126 1.44-.378.324-.264.486-.648.486-1.152 0-.492-.168-.87-.504-1.134-.324-.264-.798-.396-1.422-.396h-2.718v3.06zm3.204 5.22c1.368 0 2.052-.54 2.052-1.62 0-1.044-.684-1.566-2.052-1.566h-3.204v3.186h3.204zm15.842-.54h-5.85l-1.116 2.7h-2.988l5.616-12.6h2.88l5.634 12.6h-3.06l-1.116-2.7zm-.918-2.214l-1.998-4.824-1.998 4.824h3.996zm15.762-5.31h-4.032V33h-2.88V22.776h-4.014V20.4h10.926v2.376zm7.933 1.764c1.536 0 2.712.342 3.528 1.026.828.684 1.242 1.698 1.242 3.042 0 1.428-.456 2.52-1.368 3.276-.9.744-2.172 1.116-3.816 1.116h-5.688V20.4h2.898v4.14h3.204zm-.576 6.3c.756 0 1.344-.186 1.764-.558.432-.372.648-.912.648-1.62 0-1.308-.804-1.962-2.412-1.962h-2.628v4.14h2.628zm18.502 2.376c-1.284 0-2.448-.276-3.492-.828a6.416 6.416 0 01-2.448-2.322c-.588-.996-.882-2.118-.882-3.366 0-1.248.294-2.364.882-3.348a6.242 6.242 0 012.448-2.322c1.044-.564 2.214-.846 3.51-.846 1.092 0 2.076.192 2.952.576a5.915 5.915 0 012.232 1.656l-1.872 1.728c-.852-.984-1.908-1.476-3.168-1.476-.78 0-1.476.174-2.088.522a3.647 3.647 0 00-1.44 1.422c-.336.612-.504 1.308-.504 2.088s.168 1.476.504 2.088a3.773 3.773 0 001.44 1.44c.612.336 1.308.504 2.088.504 1.26 0 2.316-.498 3.168-1.494l1.872 1.728a5.835 5.835 0 01-2.232 1.674c-.888.384-1.878.576-2.97.576zm16.859-2.556V33h-9.756V20.4h9.522v2.34h-6.624v2.736h5.85v2.268h-5.85v2.916h6.858zm7.809-10.26c1.116 0 2.082.186 2.898.558.828.372 1.464.9 1.908 1.584.444.684.666 1.494.666 2.43 0 .924-.222 1.734-.666 2.43-.444.684-1.08 1.212-1.908 1.584-.816.36-1.782.54-2.898.54h-2.538V33h-2.916V20.4h5.454zm-.162 6.75c.876 0 1.542-.186 1.998-.558.456-.384.684-.924.684-1.62 0-.708-.228-1.248-.684-1.62-.456-.384-1.122-.576-1.998-.576h-2.376v4.374h2.376zm16.288-.72c.768.228 1.356.6 1.764 1.116.408.516.612 1.152.612 1.908 0 1.116-.426 1.986-1.278 2.61-.84.624-2.046.936-3.618.936h-6.21V20.4h5.868c1.464 0 2.604.282 3.42.846.816.564 1.224 1.368 1.224 2.412 0 .624-.156 1.176-.468 1.656-.312.468-.75.84-1.314 1.116zm-5.832-.81h2.718c.636 0 1.116-.126 1.44-.378.324-.264.486-.648.486-1.152 0-.492-.168-.87-.504-1.134-.324-.264-.798-.396-1.422-.396h-2.718v3.06zm3.204 5.22c1.368 0 2.052-.54 2.052-1.62 0-1.044-.684-1.566-2.052-1.566h-3.204v3.186h3.204zm7.31-10.44h2.898v8.208l6.012-8.208h2.736V33h-2.88v-8.19L255.408 33h-2.754V20.4zm20.741 12.816c-1.284 0-2.448-.276-3.492-.828a6.416 6.416 0 01-2.448-2.322c-.588-.996-.882-2.118-.882-3.366 0-1.248.294-2.364.882-3.348a6.242 6.242 0 012.448-2.322c1.044-.564 2.214-.846 3.51-.846 1.092 0 2.076.192 2.952.576a5.915 5.915 0 012.232 1.656l-1.872 1.728c-.852-.984-1.908-1.476-3.168-1.476-.78 0-1.476.174-2.088.522a3.647 3.647 0 00-1.44 1.422c-.336.612-.504 1.308-.504 2.088s.168 1.476.504 2.088a3.773 3.773 0 001.44 1.44c.612.336 1.308.504 2.088.504 1.26 0 2.316-.498 3.168-1.494l1.872 1.728a5.835 5.835 0 01-2.232 1.674c-.888.384-1.878.576-2.97.576z" fill="#fff"/><defs><linearGradient id="paint0_linear" x1="420" y1="131" x2="-127" y2="-169" gradientUnits="userSpaceOnUse"><stop stop-color="#FC3B3B"/><stop offset="1" stop-color="#FFCF3B"/></linearGradient></defs></svg>